<svg width="290" height="244" viewBox="0 0 290 244" fill="none" xmlns="http://www.w3.org/2000/svg">
<rect y="0.5" width="290" height="243" rx="20" fill="#4A4D63"/>
<path d="M48.3451 54.922H46.3471V46.876H45.0151V54.184H43.0531V39.172H45.0151V45.184H46.3471V38.884H48.3451V54.922ZM42.6751 49.522L41.4691 51.016C40.4431 50.368 39.0751 48.784 38.6431 47.2C38.2111 48.874 37.0051 50.53 35.4931 51.43L34.2871 49.99C36.3031 48.676 37.6171 46.264 37.6171 42.844V40.432H39.6511V42.826C39.6511 45.922 40.7311 48.37 42.6751 49.522ZM63.3974 48.748H58.5374V51.25H64.7654V52.924H50.2754V51.25H56.4314V48.748H52.1294V43.438H60.8414V41.584H52.0394V39.91H62.9294V45.112H54.2174V47.056H63.3974V48.748ZM78.7016 42.556C78.7016 44.428 76.6136 45.796 73.1036 45.796C69.5756 45.796 67.5236 44.428 67.5236 42.556C67.5236 40.72 69.5756 39.352 73.0856 39.352C76.6136 39.352 78.7016 40.72 78.7016 42.556ZM74.2916 51.394H72.2036V48.496H65.8496V46.822H80.3396V48.496H74.2916V51.394ZM78.6656 54.49H67.7036V49.918H69.7916V52.834H78.6656V54.49ZM76.5236 42.592C76.5236 41.602 75.2096 40.954 73.0856 40.954C71.0156 40.954 69.6836 41.602 69.6836 42.592C69.6836 43.528 71.0156 44.158 73.0856 44.158C75.2096 44.158 76.5236 43.528 76.5236 42.592ZM99.4183 48.244H97.3123V43.888H94.5763V42.214H97.3123V38.884H99.4183V48.244ZM95.7463 45.994L94.5403 47.632C93.3343 47.146 91.6783 45.868 90.9763 44.374C90.4903 46.012 88.7443 47.524 87.2503 48.028L85.9903 46.354C88.3123 45.508 89.8603 43.636 89.8603 41.206V39.622H92.0383V41.098C92.0383 43.582 93.8743 45.382 95.7463 45.994ZM99.5263 51.682C99.5263 53.626 97.5103 54.904 94.0003 54.904C90.5443 54.904 88.5463 53.626 88.5463 51.682C88.5463 49.684 90.5443 48.424 94.0003 48.424C97.5103 48.424 99.5263 49.684 99.5263 51.682ZM94.0003 50.116C91.9303 50.116 90.7063 50.71 90.7063 51.682C90.7063 52.636 91.9303 53.212 94.0003 53.212C96.1603 53.212 97.3483 52.636 97.3483 51.682C97.3483 50.71 96.1603 50.116 94.0003 50.116ZM114.489 51.682C114.489 53.662 112.437 54.904 108.891 54.904C105.345 54.904 103.311 53.662 103.311 51.682C103.311 49.684 105.345 48.46 108.891 48.46C112.437 48.46 114.489 49.684 114.489 51.682ZM101.943 41.728V40H110.385V41.728H107.343C107.523 43.978 109.125 45.472 110.889 46.048L109.737 47.704C108.495 47.236 106.965 46.03 106.263 44.554C105.777 46.12 104.085 47.614 102.537 48.154L101.295 46.516C103.527 45.706 105.021 43.996 105.147 41.728H101.943ZM116.559 44.446H114.273V48.262H112.149V38.884H114.273V42.718H116.559V44.446ZM108.891 50.152C106.695 50.152 105.435 50.71 105.435 51.682C105.435 52.654 106.695 53.23 108.891 53.23C111.123 53.23 112.365 52.654 112.365 51.682C112.365 50.71 111.123 50.152 108.891 50.152ZM120.091 43.744C120.091 44.932 120.955 45.85 122.395 45.85C123.853 45.85 124.717 44.932 124.717 43.744C124.717 42.61 123.853 41.692 122.395 41.692C120.955 41.692 120.091 42.61 120.091 43.744ZM130.837 38.884V54.922H128.749V38.884H130.837ZM117.931 43.762C117.931 41.512 119.695 39.91 122.395 39.91C125.113 39.91 126.841 41.512 126.841 43.762C126.841 45.994 125.113 47.614 122.395 47.614C119.695 47.614 117.931 45.994 117.931 43.762ZM128.083 50.818C126.553 51.016 124.375 51.196 122.665 51.286C120.883 51.358 118.975 51.43 117.625 51.412L117.319 49.612C119.173 49.612 120.721 49.594 122.539 49.522C124.537 49.45 126.481 49.306 127.903 49.126L128.083 50.818ZM151.139 54.922H149.033V38.884H151.139V54.922ZM148.547 49.648L147.215 51.052C146.513 50.404 145.649 49.18 145.289 48.226C144.947 49.45 143.633 51.304 142.697 51.916L141.383 50.548C143.561 48.982 144.263 46.102 144.263 42.898V40.18H146.279V42.808C146.279 46.138 146.891 48.208 148.547 49.648ZM143.165 47.452L142.013 49.054C141.599 48.748 141.095 48.118 140.861 47.632C140.519 48.766 139.637 50.116 138.629 50.872L137.279 49.54C139.043 48.154 139.799 45.904 139.799 42.034V40.36H141.815V42.016C141.815 45.724 142.265 46.624 143.165 47.452ZM167.992 44.734H165.724V49.27H163.582V38.812H165.724V43.006H167.992V44.734ZM153.268 43.78C153.268 41.512 154.906 39.73 157.426 39.73C159.946 39.73 161.584 41.512 161.584 43.78C161.584 46.084 159.946 47.722 157.426 47.722C154.906 47.722 153.268 46.084 153.268 43.78ZM155.374 43.78C155.374 45.058 156.166 45.994 157.426 45.994C158.704 45.994 159.496 45.058 159.496 43.78C159.496 42.448 158.704 41.476 157.426 41.476C156.166 41.476 155.374 42.502 155.374 43.78ZM166.822 53.374L165.832 55.03C163.726 54.67 161.404 53.122 160.63 51.646C159.91 53.14 157.66 54.652 155.392 55.03L154.42 53.338C157.21 53.014 159.568 51.286 159.568 49.108V48.532H161.728V49.108C161.728 51.286 164.122 52.924 166.822 53.374ZM183.242 47.326H168.752V45.652H183.242V47.326ZM181.91 54.85H170.48V50.764H179.246V49.846H170.498V48.208H181.334V52.24H172.586V53.122H181.91V54.85ZM172.532 41.998C172.532 42.718 173.792 43.294 176.024 43.294C178.256 43.294 179.534 42.718 179.534 41.998C179.534 41.26 178.256 40.72 176.024 40.72C173.792 40.72 172.532 41.26 172.532 41.998ZM170.354 41.998C170.354 40.252 172.388 39.118 176.024 39.118C179.642 39.118 181.694 40.252 181.694 41.998C181.694 43.726 179.642 44.878 176.024 44.878C172.388 44.878 170.354 43.726 170.354 41.998ZM200.215 38.884H202.321V48.064H200.215V38.884ZM202.321 54.724H191.683V48.838H202.321V54.724ZM200.215 53.086V50.458H193.807V53.086H200.215ZM198.829 45.832L197.641 47.47C196.417 47.02 194.743 45.724 194.041 44.248C193.573 45.886 191.845 47.416 190.351 47.938L189.073 46.264C191.413 45.418 192.925 43.474 192.925 41.062V39.694H195.121V40.954C195.121 43.456 196.957 45.238 198.829 45.832ZM217.877 47.686H215.771V44.338H213.665V42.646H215.771V38.884H217.877V47.686ZM212.981 43.618C212.981 45.868 211.181 47.308 208.841 47.308C206.555 47.308 204.683 45.868 204.683 43.618C204.683 41.386 206.519 39.748 208.841 39.748C211.145 39.748 212.981 41.368 212.981 43.618ZM210.965 43.6C210.965 42.412 210.155 41.476 208.841 41.476C207.563 41.476 206.735 42.448 206.735 43.6C206.735 44.824 207.581 45.706 208.841 45.706C210.083 45.706 210.965 44.788 210.965 43.6ZM219.209 53.482L217.949 54.994C216.941 54.562 215.609 53.176 215.249 52.15C214.979 53.194 213.827 54.634 212.495 55.264C212.063 54.76 211.667 54.292 211.217 53.806C213.107 52.924 214.187 51.25 214.187 49.234V48.478H216.257V49.234C216.257 51.214 217.571 52.906 219.209 53.482ZM211.037 53.284C210.497 53.05 209.831 52.33 209.579 51.808C209.165 53.014 207.797 54.49 206.519 55.03L205.295 53.536C207.041 52.708 208.391 51.142 208.391 49.108V48.532H210.425V49.054C210.425 50.476 211.361 51.502 212.423 51.898C211.955 52.33 211.523 52.816 211.037 53.284ZM220.311 45.724C220.311 42.34 221.841 39.982 224.451 39.982C226.827 39.982 228.285 41.908 228.537 44.77H231.363V38.884H233.469V54.922H231.363V46.552H228.555C228.321 49.45 226.845 51.43 224.451 51.43C221.841 51.43 220.311 49.09 220.311 45.724ZM226.575 45.724C226.575 43.186 225.693 41.674 224.451 41.674C223.245 41.674 222.363 43.186 222.363 45.724C222.363 48.244 223.245 49.738 224.451 49.738C225.693 49.738 226.575 48.244 226.575 45.724ZM248.881 44.086C248.881 46.534 246.559 48.298 243.031 48.298C239.521 48.298 237.199 46.534 237.199 44.086C237.199 41.62 239.521 39.82 243.031 39.82C246.559 39.82 248.881 41.62 248.881 44.086ZM250.267 52.924H235.777V51.232H239.017V48.568L241.123 48.658V51.232H244.885V48.658L246.991 48.568V51.232H250.267V52.924ZM246.721 44.086C246.721 42.628 245.263 41.584 243.031 41.584C240.799 41.584 239.359 42.628 239.359 44.086C239.359 45.526 240.799 46.57 243.031 46.57C245.245 46.57 246.721 45.526 246.721 44.086ZM252.432 49.18L252.144 39.946H254.484L254.232 49.18H252.432ZM252.252 53.014V50.908H254.412V53.014H252.252Z" fill="white"/>
<path d="M63.4496 85.48H62.3856V73.244H63.4496V85.48ZM53.7896 78.48C53.7896 75.904 54.9376 74.168 56.9396 74.168C58.9696 74.168 60.1036 75.904 60.1036 78.494C60.1036 81.084 58.9696 82.82 56.9396 82.82C54.9376 82.82 53.7896 81.084 53.7896 78.48ZM59.0956 78.494C59.0956 76.478 58.2416 75.092 56.9396 75.092C55.6516 75.092 54.7976 76.478 54.7976 78.494C54.7976 80.496 55.6516 81.896 56.9396 81.896C58.2416 81.896 59.0956 80.496 59.0956 78.494ZM71.7408 81.812L71.0688 82.596C70.2008 81.98 68.9128 80.552 68.5628 79.264C68.3108 80.622 67.2048 82.078 66.0148 82.918L65.3008 82.176C66.7428 81.252 68.0308 79.32 68.0308 76.94V75.568H65.5948V74.686H71.4328V75.568H69.0808V76.912C69.0808 79.32 70.2288 80.832 71.7408 81.812ZM73.3928 84.864H72.3428V78.62H70.3828V77.738H72.3428V73.538H73.3928V84.864ZM75.8148 85.48H74.7648V73.244H75.8148V85.48ZM92.5579 76.884H90.6959V79.572H89.6319V73.244H90.6959V75.988H92.5579V76.884ZM91.1439 85.396H82.8839V82.344H89.6319V81.14H82.8699V80.272H90.6959V83.17H83.9479V84.514H91.1439V85.396ZM87.4339 79.152H81.7219V73.72H82.7859V75.512H86.3559V73.72H87.4339V79.152ZM86.3559 78.27V76.394H82.7859V78.27H86.3559ZM99.6451 79.376V78.508H102.333V76.632H99.7431V75.736H102.333V73.244H103.397V82.134H102.333V79.376H99.6451ZM99.6451 74.266C99.4351 77.29 97.5171 79.488 94.1571 80.636L93.5131 79.796C96.0331 79.124 98.1191 77.276 98.4551 75.162H94.0871V74.266H99.6451ZM103.733 85.186H95.5431V81.336H96.6071V84.29H103.733V85.186ZM116.784 78.284H114.922V82.274H113.858V73.244H114.922V77.388H116.784V78.284ZM115.398 85.088H107.25V81.952H108.314V84.192H115.398V85.088ZM110.736 74.616H107.208V73.678H110.736V74.616ZM112.626 76.422H105.458V75.54H112.626V76.422ZM111.926 79.222C111.926 80.51 110.694 81.364 109.042 81.364C107.418 81.364 106.172 80.51 106.172 79.222C106.172 77.906 107.404 77.08 109.042 77.08C110.694 77.08 111.926 77.906 111.926 79.222ZM110.918 79.222C110.918 78.41 110.036 77.92 109.042 77.92C108.062 77.92 107.18 78.41 107.18 79.222C107.18 80.02 108.062 80.51 109.042 80.51C110.036 80.51 110.918 80.02 110.918 79.222ZM130.713 73.244V78.34H132.715V79.25H130.713V85.48H129.649V73.244H130.713ZM127.535 74.56C127.465 78.536 125.169 81.406 122.019 83.044L121.361 82.204C124.413 80.79 126.163 78.214 126.387 75.456H121.781V74.56H127.535ZM141.203 82.204L140.643 83.058C139.313 82.442 137.731 80.916 137.297 79.642C136.947 80.944 135.435 82.61 134.105 83.31L133.475 82.526C135.085 81.756 136.723 79.866 136.723 77.584V77.206H133.853V76.324H140.671V77.206H137.815V77.57C137.815 79.852 139.635 81.658 141.203 82.204ZM143.499 85.48H142.421V73.244H143.499V85.48ZM139.131 74.938H135.421V73.972H139.131V74.938ZM156.578 79.768H145.532V78.942H156.578V79.768ZM155.654 85.256H146.806V82.54H154.212V81.518H146.82V80.734H155.276V83.296H147.87V84.416H155.654V85.256ZM155.444 77.976H146.932V75.442H154.142V74.49H146.918V73.65H155.206V76.212H147.996V77.178H155.444V77.976ZM171.613 83.366C171.613 84.668 170.087 85.466 167.497 85.466C164.921 85.466 163.395 84.668 163.395 83.366C163.395 82.092 164.921 81.294 167.497 81.294C170.087 81.294 171.613 82.092 171.613 83.366ZM171.641 81.266H170.577V77.654H169.093V80.818H168.057V73.468H169.093V76.772H170.577V73.244H171.641V81.266ZM167.119 78.872C167.119 80.076 165.971 80.762 164.473 80.762C162.975 80.762 161.827 80.076 161.827 78.872C161.827 77.654 162.975 76.954 164.473 76.954C165.971 76.954 167.119 77.654 167.119 78.872ZM167.497 82.19C165.621 82.19 164.473 82.652 164.473 83.38C164.473 84.108 165.621 84.57 167.497 84.57C169.373 84.57 170.535 84.108 170.535 83.38C170.535 82.652 169.373 82.19 167.497 82.19ZM167.455 76.408H161.211V75.54H167.455V76.408ZM166.069 78.872C166.069 78.228 165.355 77.808 164.473 77.808C163.591 77.808 162.877 78.228 162.877 78.872C162.877 79.488 163.591 79.922 164.473 79.922C165.369 79.922 166.069 79.488 166.069 78.872ZM165.985 74.672H162.807V73.748H165.985V74.672ZM183.166 83.338C183.166 84.71 181.64 85.48 178.952 85.48C176.278 85.48 174.766 84.696 174.766 83.338C174.766 82.008 176.278 81.21 178.952 81.21C181.64 81.21 183.166 81.952 183.166 83.338ZM183.152 77.878H179.484V79.432H184.482V80.314H173.436V79.432H178.42V77.878H174.78V73.832H183.096V74.714H175.858V76.996H183.152V77.878ZM178.952 82.078C177.034 82.078 175.858 82.554 175.858 83.338C175.858 84.15 177.034 84.598 178.952 84.598C180.898 84.598 182.074 84.15 182.074 83.338C182.074 82.554 180.898 82.078 178.952 82.078ZM196.596 83.8H185.55V82.904H196.596V83.8ZM195.518 77.402C195.518 79.278 193.74 80.496 191.052 80.496C188.392 80.496 186.614 79.278 186.614 77.402C186.614 75.54 188.392 74.308 191.052 74.308C193.754 74.308 195.518 75.54 195.518 77.402ZM194.454 77.416C194.454 76.086 193.11 75.204 191.052 75.204C189.022 75.204 187.678 76.086 187.678 77.416C187.678 78.718 189.022 79.586 191.052 79.586C193.096 79.586 194.454 78.718 194.454 77.416ZM208.709 83.926H197.663V83.03H202.633V80.944H199.021V77.122H206.273V75.162H199.007V74.266H207.337V78.004H200.085V80.048H207.687V80.944H203.697V83.03H208.709V83.926ZM223.184 75.554C223.184 76.814 221.798 77.57 219.488 77.668V78.886H224.5V79.768H213.454V78.886H218.424V77.668C216.17 77.57 214.798 76.8 214.798 75.554C214.798 74.21 216.408 73.412 218.984 73.412C221.588 73.412 223.184 74.21 223.184 75.554ZM223.324 85.368H219.418V80.846H223.324V85.368ZM218.984 74.28C217.108 74.28 215.89 74.784 215.89 75.554C215.89 76.31 217.108 76.8 218.984 76.8C220.888 76.8 222.106 76.31 222.106 75.554C222.106 74.784 220.888 74.28 218.984 74.28ZM218.956 85.116C218.27 85.256 217.248 85.34 216.1 85.354H214.644V82.638H217.514V81.672H214.602V80.846H218.508V83.408H215.652V84.542C216.884 84.542 218.116 84.472 218.816 84.29L218.956 85.116ZM222.358 84.584V81.644H220.384V84.584H222.358ZM231.615 80.762V79.866H234.499V77.486H231.797V76.576H234.499V73.244H235.563V85.48H234.499V80.762H231.615ZM231.615 74.56C231.531 78.536 229.389 81.336 226.239 83.058L225.581 82.218C228.591 80.762 230.257 78.214 230.481 75.456H225.959V74.56H231.615ZM97.0354 99.284H95.1734V103.274H94.1094V94.244H95.1734V98.388H97.0354V99.284ZM95.6494 106.088H87.5014V102.952H88.5654V105.192H95.6494V106.088ZM90.9874 95.616H87.4594V94.678H90.9874V95.616ZM92.8774 97.422H85.7094V96.54H92.8774V97.422ZM92.1774 100.222C92.1774 101.51 90.9454 102.364 89.2934 102.364C87.6694 102.364 86.4234 101.51 86.4234 100.222C86.4234 98.906 87.6554 98.08 89.2934 98.08C90.9454 98.08 92.1774 98.906 92.1774 100.222ZM91.1694 100.222C91.1694 99.41 90.2874 98.92 89.2934 98.92C88.3134 98.92 87.4314 99.41 87.4314 100.222C87.4314 101.02 88.3134 101.51 89.2934 101.51C90.2874 101.51 91.1694 101.02 91.1694 100.222ZM112.812 98.682H110.95V103.12H109.886V94.244H110.95V97.786H112.812V98.682ZM111.426 106.06H103.348V102.322H104.426V105.178H111.426V106.06ZM103.04 100.25H103.642C105.336 100.25 107.492 100.082 108.668 99.844L108.766 100.712C107.408 100.95 105.084 101.132 102.97 101.132H101.976V95.336H107.59V96.232H103.04V100.25ZM121.664 105.864H120.628V101.622H118.542V100.74H120.628V98.5H118.822V97.604H120.628V94.538H121.664V105.864ZM123.988 106.48H122.938V94.244H123.988V106.48ZM118.682 95.77C118.598 99.508 117.114 102.056 114.286 103.862L113.586 103.064C116.134 101.678 117.45 99.214 117.618 96.666H114.048V95.77H118.682ZM138.393 97.94H135.761V97.058H138.393V94.244H139.457V101.846H138.393V97.94ZM139.583 104.156C139.583 105.584 138.113 106.466 135.481 106.466C132.863 106.466 131.393 105.584 131.393 104.156C131.393 102.728 132.863 101.846 135.481 101.846C138.113 101.846 139.583 102.728 139.583 104.156ZM135.481 102.714C133.605 102.714 132.471 103.246 132.471 104.156C132.471 105.08 133.605 105.598 135.481 105.598C137.385 105.598 138.505 105.08 138.505 104.156C138.505 103.246 137.385 102.714 135.481 102.714ZM136.419 100.068L135.789 100.894C134.613 100.334 133.395 99.27 132.919 98.052C132.541 99.312 131.379 100.6 129.965 101.314L129.307 100.488C131.071 99.676 132.345 98.108 132.345 96.162V94.944H133.423V96.134C133.423 98.094 135.033 99.564 136.419 100.068ZM151.15 104.142C151.15 105.584 149.596 106.466 147.034 106.466C144.472 106.466 142.932 105.584 142.932 104.142C142.932 102.672 144.472 101.79 147.034 101.79C149.596 101.79 151.15 102.672 151.15 104.142ZM141.644 96.022V95.126H148.322V96.022H145.536C145.536 96.33 145.536 96.568 145.55 96.694C145.648 98.262 147.104 99.606 148.504 100.068L147.916 100.922C146.74 100.446 145.494 99.34 144.99 98.234C144.654 99.382 143.226 100.698 141.91 101.258L141.294 100.432C142.834 99.844 144.388 98.304 144.444 96.68C144.444 96.568 144.458 96.33 144.458 96.022H141.644ZM150.058 104.142C150.058 103.19 148.882 102.686 147.034 102.686C145.186 102.686 144.038 103.19 144.038 104.142C144.038 105.052 145.186 105.584 147.034 105.584C148.882 105.584 150.058 105.052 150.058 104.142ZM152.872 98.528H150.982V101.762H149.918V94.244H150.982V97.632H152.872V98.528ZM164.005 106.48H162.955V100.138H161.485V105.864H160.449V94.538H161.485V99.242H162.955V94.244H164.005V106.48ZM159.525 101.258C159.525 102.728 158.433 103.694 156.851 103.694C155.283 103.694 154.177 102.658 154.177 101.258C154.177 99.774 155.283 98.808 156.851 98.808C158.433 98.808 159.525 99.788 159.525 101.258ZM158.503 101.258C158.503 100.32 157.817 99.704 156.851 99.704C155.885 99.704 155.213 100.32 155.213 101.258C155.213 102.21 155.885 102.812 156.851 102.812C157.817 102.812 158.503 102.182 158.503 101.258ZM159.749 98.108H153.659V97.226H159.749V98.108ZM158.433 96.106H155.087V95.182H158.433V96.106ZM175.503 101.566H171.835V104.058H176.847V104.954H165.801V104.058H170.771V101.566H167.131V95.084H168.209V97.338H174.439V95.084H175.503V101.566ZM174.439 100.684V98.22H168.209V100.684H174.439ZM188.274 106.48H187.224V94.244H188.274V106.48ZM185.852 105.864H184.816V99.55H182.646V98.654H184.816V94.538H185.852V105.864ZM184.074 102.616L183.416 103.4C182.478 102.728 181.19 101.272 180.798 99.886C180.532 101.286 179.524 102.882 178.306 103.764L177.648 102.966C179.034 102.084 180.266 99.998 180.266 97.604V95.378H181.316V97.576C181.316 99.956 182.744 101.734 184.074 102.616ZM199.953 98.234C199.953 100.124 198.189 101.384 195.529 101.384C192.897 101.384 191.133 100.124 191.133 98.234C191.133 96.344 192.897 95.056 195.529 95.056C198.203 95.056 199.953 96.344 199.953 98.234ZM198.931 98.234C198.931 96.862 197.587 95.938 195.529 95.938C193.499 95.938 192.155 96.862 192.155 98.234C192.155 99.606 193.499 100.53 195.529 100.53C197.573 100.53 198.931 99.606 198.931 98.234ZM201.073 104.926H190.027V104.03H192.757V101.748L193.821 101.72V104.03H197.237V101.72L198.301 101.748V104.03H201.073V104.926ZM202.196 105.262V104.016H203.414V105.262H202.196Z" fill="#C3C4CE"/>
<rect x="12" y="120.5" width="266" height="55" rx="10" fill="#36394F"/>
<path d="M103.386 143.038V136.394H101.131V135.657H106.499V136.394H104.244V143.038H103.386ZM107.643 143.038V137.593H108.479V143.038H107.643ZM107.632 136.493V135.613H108.49V136.493H107.632ZM110.102 144.666V137.593H110.916V138.033H110.96C111.301 137.725 111.873 137.483 112.577 137.483C113.776 137.483 114.81 138.143 114.81 140.167V140.31C114.81 142.301 113.853 143.137 112.346 143.137C111.719 143.137 111.257 142.95 110.949 142.774V144.666H110.102ZM112.269 142.444C113.303 142.444 113.93 141.894 113.93 140.431V140.211C113.93 138.671 113.358 138.198 112.357 138.198C111.719 138.198 111.202 138.418 110.949 138.594V142.059C111.202 142.268 111.697 142.444 112.269 142.444ZM115.755 143.313V142.334H116.712V143.313H115.755Z" fill="#23B877"/>
<path d="M125.614 137.472C125.614 138.803 124.756 139.782 123.414 139.782C122.072 139.782 121.192 138.803 121.192 137.472C121.192 136.152 122.072 135.184 123.403 135.184C124.745 135.184 125.614 136.141 125.614 137.472ZM129.189 140.321H128.353V137.813H127.198V140.233H126.395V134.832H127.198V137.12H128.353V134.656H129.189V140.321ZM124.789 137.483C124.789 136.57 124.294 135.899 123.403 135.899C122.523 135.899 122.017 136.57 122.017 137.472C122.017 138.385 122.523 139.078 123.403 139.078C124.294 139.078 124.789 138.385 124.789 137.483ZM129.189 144.27H128.342V141.509H122.699V140.816H129.189V144.27ZM135.847 138.825V138.121H137.618V136.812H135.847V136.108H137.618V134.656H138.454V141.608H137.618V138.825H135.847ZM136.21 139.606L135.715 140.266C134.725 139.793 133.779 138.913 133.372 137.934C133.075 138.946 132.052 140.035 131.007 140.574L130.49 139.925C131.777 139.353 132.932 138.022 132.932 136.482V135.217H133.779V136.449C133.779 138.055 135.066 139.188 136.21 139.606ZM138.663 143.973H132.272V141.036H133.108V143.28H138.663V143.973ZM148.796 139.518H140.117V138.814H148.796V139.518ZM147.828 136.46C147.828 137.516 146.552 138.121 144.462 138.121C142.394 138.121 141.118 137.516 141.118 136.46C141.118 135.404 142.394 134.788 144.462 134.788C146.552 134.788 147.828 135.404 147.828 136.46ZM144.462 135.47C142.955 135.47 141.976 135.855 141.976 136.46C141.976 137.054 142.955 137.428 144.462 137.428C145.991 137.428 146.981 137.054 146.981 136.46C146.981 135.855 145.991 135.47 144.462 135.47ZM148.026 144.182H141.129V141.894H146.871V141.047H141.107V140.376H147.707V142.532H141.965V143.5H148.026V144.182ZM158.519 140.42C157.826 140.497 156.616 140.629 155.472 140.695C154.394 140.761 153.173 140.805 152.491 140.805L152.359 140.068C153.03 140.079 153.965 140.068 154.911 140.024V139.056C153.701 138.902 152.898 138.143 152.898 137.087C152.898 135.943 153.91 135.085 155.351 135.085C156.803 135.085 157.793 135.943 157.793 137.098C157.793 138.165 156.979 138.913 155.747 139.056V139.991C156.781 139.936 157.87 139.826 158.453 139.749L158.519 140.42ZM161.39 138.649H159.938V141.916H159.091V134.656H159.938V137.945H161.39V138.649ZM156.99 137.087C156.99 136.35 156.363 135.8 155.351 135.8C154.339 135.8 153.734 136.372 153.734 137.087C153.734 137.879 154.339 138.374 155.351 138.374C156.363 138.374 156.99 137.835 156.99 137.087ZM160.191 144.061H153.833V141.432H154.669V143.368H160.191V144.061ZM169.907 140.475H168.356V142.345H170.721V143.049H162.042V142.345H164.462V140.475H163.098V137.549H168.796V136.075H163.131V135.371H169.632V138.242H163.945V139.782H169.907V140.475ZM165.298 140.475V142.345H167.531V140.475H165.298ZM180.514 139.419H178.952V144.27H178.116V134.656H178.952V138.715H180.514V139.419ZM175.773 136.031H172.946V135.316H175.773V136.031ZM177.192 137.659H171.516V136.966H177.192V137.659ZM176.62 140.266C176.62 141.377 175.718 142.246 174.376 142.246C173.034 142.246 172.132 141.388 172.132 140.266C172.132 139.144 173.034 138.275 174.376 138.275C175.718 138.275 176.62 139.133 176.62 140.266ZM175.784 140.266C175.784 139.507 175.19 138.979 174.376 138.979C173.573 138.979 172.968 139.507 172.968 140.266C172.968 141.014 173.573 141.553 174.376 141.553C175.201 141.553 175.784 141.014 175.784 140.266ZM188.095 137.021H186.302V136.328H188.095V134.656H188.931V141.641H188.095V139.144H186.302V138.451H188.095V137.021ZM189.14 143.951H182.738V141.003H183.574V143.247H189.14V143.951ZM185.895 140.002H181.506V135.514H185.895V140.002ZM185.048 139.32V136.207H182.342V139.32H185.048ZM80.4531 154.56H78.3851V153.867H80.4531V151.656H81.2891V157.629H80.4531V154.56ZM81.3881 159.444C81.3881 160.566 80.2331 161.259 78.1651 161.259C76.1081 161.259 74.9531 160.566 74.9531 159.444C74.9531 158.322 76.1081 157.629 78.1651 157.629C80.2331 157.629 81.3881 158.322 81.3881 159.444ZM78.1651 158.311C76.6911 158.311 75.8001 158.729 75.8001 159.444C75.8001 160.17 76.6911 160.577 78.1651 160.577C79.6611 160.577 80.5411 160.17 80.5411 159.444C80.5411 158.729 79.6611 158.311 78.1651 158.311ZM78.9021 156.232L78.4071 156.881C77.4831 156.441 76.5261 155.605 76.1521 154.648C75.8551 155.638 74.9421 156.65 73.8311 157.211L73.3141 156.562C74.7001 155.924 75.7011 154.692 75.7011 153.163V152.206H76.5481V153.141C76.5481 154.681 77.8131 155.836 78.9021 156.232ZM90.4767 159.433C90.4767 160.566 89.2557 161.259 87.2427 161.259C85.2297 161.259 84.0197 160.566 84.0197 159.433C84.0197 158.278 85.2297 157.585 87.2427 157.585C89.2557 157.585 90.4767 158.278 90.4767 159.433ZM83.0077 153.053V152.349H88.2547V153.053H86.0657C86.0657 153.295 86.0657 153.482 86.0767 153.581C86.1537 154.813 87.2977 155.869 88.3977 156.232L87.9357 156.903C87.0117 156.529 86.0327 155.66 85.6367 154.791C85.3727 155.693 84.2507 156.727 83.2167 157.167L82.7327 156.518C83.9427 156.056 85.1637 154.846 85.2077 153.57C85.2077 153.482 85.2187 153.295 85.2187 153.053H83.0077ZM89.6187 159.433C89.6187 158.685 88.6947 158.289 87.2427 158.289C85.7907 158.289 84.8887 158.685 84.8887 159.433C84.8887 160.148 85.7907 160.566 87.2427 160.566C88.6947 160.566 89.6187 160.148 89.6187 159.433ZM91.8297 155.022H90.3447V157.563H89.5087V151.656H90.3447V154.318H91.8297V155.022ZM99.5322 151.656H100.368V161.27H99.5322V151.656ZM98.0142 154.692C98.0142 156.056 96.9032 156.925 95.5172 156.925C94.0982 156.925 93.0092 155.979 93.0092 154.692C93.0092 153.339 94.1202 152.404 95.5172 152.404C96.9362 152.404 98.0142 153.284 98.0142 154.692ZM97.2002 154.692C97.2002 153.724 96.4522 153.119 95.5172 153.119C94.5932 153.119 93.8232 153.79 93.8232 154.692C93.8232 155.583 94.5822 156.221 95.5172 156.221C96.4302 156.221 97.2002 155.594 97.2002 154.692ZM98.9712 158.828C98.1462 158.927 96.7712 159.015 95.5502 159.07C94.4172 159.125 93.3612 159.158 92.6352 159.169L92.4812 158.432C93.3062 158.443 94.4392 158.421 95.6052 158.355C96.9472 158.311 98.1902 158.234 98.8942 158.146L98.9712 158.828ZM112.5 157.409H109.618V159.367H113.556V160.071H104.877V159.367H108.782V157.409H105.922V152.316H106.769V154.087H111.664V152.316H112.5V157.409ZM111.664 156.716V154.78H106.769V156.716H111.664ZM119.829 156.089L119.334 156.76C118.41 156.309 117.464 155.484 117.079 154.516C116.782 155.539 115.803 156.496 114.681 157.079L114.219 156.43C115.594 155.781 116.628 154.571 116.628 153.042V152.118H117.475V153.009C117.475 154.538 118.74 155.715 119.829 156.089ZM121.919 159.422C121.919 160.566 120.709 161.259 118.685 161.259C116.672 161.259 115.473 160.566 115.473 159.422C115.473 158.278 116.672 157.574 118.685 157.574C120.709 157.574 121.919 158.278 121.919 159.422ZM118.685 158.267C117.233 158.267 116.331 158.685 116.331 159.422C116.331 160.159 117.233 160.566 118.685 160.566C120.148 160.566 121.061 160.159 121.061 159.422C121.061 158.685 120.148 158.267 118.685 158.267ZM123.25 154.967H121.787V157.585H120.951V151.656H121.787V154.263H123.25V154.967ZM127.968 153.009V154.065H126.89V153.009C126.89 152.338 127.33 151.766 127.957 151.634V152.063C127.55 152.162 127.33 152.514 127.33 153.009H127.968ZM129.866 158.157H132.781V156.804H128.876V156.1H137.555V156.804H133.617V158.157H136.444V161.336H135.608V158.861H129.866V158.157ZM137.324 154.593L136.84 155.209C136.169 154.934 135.487 154.296 135.234 153.68C135.025 154.296 134.321 155.055 133.54 155.396L133.056 154.813C134.035 154.417 134.816 153.504 134.816 152.437V151.788H135.619V152.415C135.619 153.482 136.4 154.274 137.324 154.593ZM133.166 154.285L132.682 154.879C132.154 154.637 131.582 154.164 131.362 153.68C131.131 154.296 130.449 155.022 129.613 155.374L129.118 154.769C130.207 154.373 130.955 153.405 130.955 152.393V151.876H131.758V152.415C131.758 153.383 132.407 154.021 133.166 154.285ZM138.701 154.307L138.602 152.393H139.526L139.438 154.307H138.701ZM149.306 156.518H140.627V155.814H149.306V156.518ZM148.338 153.46C148.338 154.516 147.062 155.121 144.972 155.121C142.904 155.121 141.628 154.516 141.628 153.46C141.628 152.404 142.904 151.788 144.972 151.788C147.062 151.788 148.338 152.404 148.338 153.46ZM144.972 152.47C143.465 152.47 142.486 152.855 142.486 153.46C142.486 154.054 143.465 154.428 144.972 154.428C146.501 154.428 147.491 154.054 147.491 153.46C147.491 152.855 146.501 152.47 144.972 152.47ZM148.536 161.182H141.639V158.894H147.381V158.047H141.617V157.376H148.217V159.532H142.475V160.5H148.536V161.182ZM160.053 154.769H158.458V154.076H160.053V151.656H160.889V157.112H160.053V154.769ZM161.01 161.138H154.707V157.64H160.911V158.344H155.543V160.445H161.01V161.138ZM155.62 152.184C156.973 152.184 158.084 153.075 158.084 154.45C158.084 155.825 156.973 156.694 155.62 156.694C154.267 156.694 153.145 155.825 153.145 154.461C153.145 153.097 154.256 152.184 155.62 152.184ZM155.62 152.91C154.674 152.91 153.981 153.515 153.981 154.45C153.981 155.396 154.674 156.001 155.62 156.001C156.599 156.001 157.248 155.396 157.248 154.461C157.248 153.526 156.61 152.91 155.62 152.91ZM171.231 156.518H162.552V155.814H171.231V156.518ZM170.263 153.46C170.263 154.516 168.987 155.121 166.897 155.121C164.829 155.121 163.553 154.516 163.553 153.46C163.553 152.404 164.829 151.788 166.897 151.788C168.987 151.788 170.263 152.404 170.263 153.46ZM166.897 152.47C165.39 152.47 164.411 152.855 164.411 153.46C164.411 154.054 165.39 154.428 166.897 154.428C168.426 154.428 169.416 154.054 169.416 153.46C169.416 152.855 168.426 152.47 166.897 152.47ZM170.461 161.182H163.564V158.894H169.306V158.047H163.542V157.376H170.142V159.532H164.4V160.5H170.461V161.182ZM179.701 161.281H178.865V157.794H174.96V157.09H183.639V157.794H179.701V161.281ZM183.287 155.352L182.891 156.067C181.45 155.77 179.877 154.868 179.294 153.746C178.832 154.868 177.193 155.803 175.73 156.089L175.323 155.374C177.171 155.132 178.865 153.911 178.865 152.602V151.986H179.745V152.602C179.745 153.911 181.593 155.143 183.287 155.352ZM195.221 157.244H194.385V151.656H195.221V157.244ZM195.639 161.292H195.628C194.968 160.973 194.099 160.137 193.868 159.444C193.626 160.17 192.823 161.039 192.042 161.424L191.514 160.863C192.548 160.357 193.439 159.312 193.439 158.146V157.563H194.275V158.113C194.275 159.301 195.232 160.357 196.145 160.698L195.639 161.292ZM192.064 159.972L191.492 160.544C191.008 160.291 190.491 159.796 190.271 159.268C190.04 159.994 189.193 160.918 188.368 161.314L187.862 160.72C188.841 160.291 189.809 159.235 189.809 158.069V157.596H190.645V157.992C190.645 159.015 191.327 159.686 192.064 159.972ZM190.095 152.195C191.459 152.195 192.581 153.119 192.581 154.505C192.581 155.913 191.459 156.793 190.095 156.793C188.731 156.793 187.598 155.913 187.598 154.516C187.598 153.119 188.731 152.195 190.095 152.195ZM190.095 152.877C189.127 152.877 188.412 153.559 188.412 154.505C188.412 155.462 189.127 156.111 190.095 156.111C191.096 156.111 191.778 155.462 191.778 154.516C191.778 153.559 191.107 152.877 190.095 152.877ZM197.005 155.726C197.005 153.691 197.885 152.327 199.436 152.327C200.888 152.327 201.735 153.526 201.845 155.352H203.902V151.656H204.738V161.27H203.902V156.067H201.845C201.757 157.915 200.899 159.125 199.436 159.125C197.885 159.125 197.005 157.772 197.005 155.726ZM201.031 155.737C201.031 154.153 200.382 153.053 199.436 153.053C198.479 153.053 197.841 154.153 197.841 155.737C197.841 157.299 198.479 158.399 199.436 158.399C200.382 158.399 201.031 157.299 201.031 155.737ZM214.201 154.791C214.201 156.276 212.815 157.266 210.725 157.266C208.657 157.266 207.271 156.276 207.271 154.791C207.271 153.306 208.657 152.294 210.725 152.294C212.826 152.294 214.201 153.306 214.201 154.791ZM213.398 154.791C213.398 153.713 212.342 152.987 210.725 152.987C209.13 152.987 208.074 153.713 208.074 154.791C208.074 155.869 209.13 156.595 210.725 156.595C212.331 156.595 213.398 155.869 213.398 154.791ZM215.081 160.049H206.402V159.345H208.547V157.552L209.383 157.53V159.345H212.067V157.53L212.903 157.552V159.345H215.081V160.049ZM215.963 160.313V159.334H216.92V160.313H215.963Z" fill="#9093A8"/>
<mask id="path-6-inside-1_208_2685" fill="white">
<path d="M0 193.5H290V243.5H0V193.5Z"/>
</mask>
<path d="M0 194H290V193H0V194Z" fill="#6B6E82" mask="url(#path-6-inside-1_208_2685)"/>
<path d="M140.3 216.428C140.3 217.42 139.324 218.076 137.868 218.268V218.764C139.084 218.7 140.492 218.588 141.292 218.46C141.324 218.924 141.388 219.388 141.436 219.868C139.004 220.172 134.796 220.364 132.78 220.364L132.524 218.86C133.644 218.86 134.844 218.844 135.996 218.828V218.284C134.54 218.092 133.564 217.42 133.564 216.428C133.564 215.212 134.972 214.476 136.924 214.476C138.892 214.476 140.3 215.212 140.3 216.428ZM143.932 210.508V215.004H145.692V216.556H143.932V220.364H142.06V210.508H143.932ZM134.124 221.004H143.932V224.78H142.06V222.476H134.124V221.004ZM140.988 214.092H132.972V212.716H140.988V214.092ZM135.132 212.204V210.828H139.004V212.204H135.132ZM138.476 216.428C138.476 216.028 137.932 215.74 136.924 215.74C135.948 215.74 135.388 216.028 135.388 216.428C135.388 216.828 135.948 217.084 136.924 217.084C137.932 217.084 138.476 216.828 138.476 216.428ZM158.256 220.844H156.4V210.508H158.256V220.844ZM158.576 224.38H148.688V219.82H150.576V222.908H158.576V224.38ZM146.928 215.084C146.928 213.068 148.448 211.564 150.784 211.564C153.136 211.564 154.64 213.068 154.64 215.084C154.64 217.132 153.136 218.588 150.784 218.588C148.448 218.588 146.928 217.132 146.928 215.084ZM148.848 215.084C148.848 216.22 149.584 217.052 150.784 217.052C152.016 217.052 152.736 216.22 152.736 215.084C152.736 213.996 152.016 213.164 150.784 213.164C149.584 213.164 148.848 213.996 148.848 215.084Z" fill="#23B877"/>
</svg>
