<svg width="20" height="16" viewBox="0 0 20 16" fill="none" xmlns="http://www.w3.org/2000/svg">
<path d="M18 2.375H10L8.59 1.05313C8.21 0.696875 7.7 0.5 7.17 0.5H2C0.9 0.5 0 1.34375 0 2.375V13.625C0 14.6562 0.9 15.5 2 15.5H18C19.1 15.5 20 14.6562 20 13.625V4.25C20 3.21875 19.1 2.375 18 2.375ZM10 11.5531V9.875H7C6.45 9.875 6 9.45312 6 8.9375C6 8.42188 6.45 8 7 8H10V6.32188C10 5.9 10.54 5.69375 10.85 5.99375L13.64 8.60938C13.84 8.79688 13.84 9.0875 13.64 9.275L10.85 11.8906C10.7795 11.9554 10.6901 11.9992 10.5931 12.0164C10.4962 12.0337 10.3959 12.0236 10.305 11.9875C10.2141 11.9514 10.1366 11.8909 10.0823 11.8136C10.0281 11.7363 9.99942 11.6457 10 11.5531Z" fill="white"/>
</svg>
