<svg width="375" height="491" viewBox="0 0 375 491" fill="none" xmlns="http://www.w3.org/2000/svg">
<g clip-path="url(#clip0_5399_63101)">
<path d="M0.25 209.5C0.25 105.947 84.1966 22 187.75 22C291.303 22 375.25 105.947 375.25 209.5V491H0.25V209.5Z" fill="#1D1F29"/>
<path fill-rule="evenodd" clip-rule="evenodd" d="M0 208C0 206.663 0.0143538 205.33 0.0429141 204C2.20925 103.122 86.1117 22 187.5 22C288.888 22 372.791 103.122 374.957 204C374.986 205.33 375 206.663 375 208H0ZM4.04389 204H370.956C368.79 105.371 286.72 26 187.5 26C88.2801 26 6.21009 105.371 4.04389 204Z" fill="url(#paint0_linear_5399_63101)"/>
<mask id="path-3-inside-1_5399_63101" fill="white">
<path fill-rule="evenodd" clip-rule="evenodd" d="M296.186 37.5291C291.012 33.1606 290.076 21.9874 296.571 13.3337C302.63 5.26109 321.414 -2.24087 325.234 0.621643C329.054 3.48416 326.228 24.7742 321.044 31.6812C314.604 40.2615 303.587 41.4255 297.957 38.6746C298.645 37.4449 300.997 33.4639 306.986 25.0999C310.624 20.0193 314.197 15.7633 316.896 12.7425C317.002 12.6241 316.767 12.3907 316.656 12.5034C310.715 18.4894 302.72 27.4986 296.186 37.5291Z"/>
</mask>
<path fill-rule="evenodd" clip-rule="evenodd" d="M296.186 37.5291C291.012 33.1606 290.076 21.9874 296.571 13.3337C302.63 5.26109 321.414 -2.24087 325.234 0.621643C329.054 3.48416 326.228 24.7742 321.044 31.6812C314.604 40.2615 303.587 41.4255 297.957 38.6746C298.645 37.4449 300.997 33.4639 306.986 25.0999C310.624 20.0193 314.197 15.7633 316.896 12.7425C317.002 12.6241 316.767 12.3907 316.656 12.5034C310.715 18.4894 302.72 27.4986 296.186 37.5291Z" fill="#23B877"/>
<path d="M296.571 13.3337L296.183 13.0427L296.571 13.3337ZM296.186 37.5291L295.873 37.8995L296.292 38.2536L296.592 37.7937L296.186 37.5291ZM321.044 31.6812L321.432 31.9722L321.044 31.6812ZM297.957 38.6746L297.534 38.4381L297.284 38.8853L297.745 39.1102L297.957 38.6746ZM306.986 25.0999L306.592 24.8176L306.986 25.0999ZM316.896 12.7425L316.534 12.4194L316.896 12.7425ZM316.656 12.5034L316.311 12.1619L316.311 12.1619L316.656 12.5034ZM296.183 13.0427C292.869 17.4583 291.447 22.5208 291.518 27.0459C291.588 31.5581 293.146 35.5974 295.873 37.8995L296.498 37.1586C294.051 35.0922 292.555 31.3607 292.487 27.0308C292.42 22.7137 293.778 17.8628 296.959 13.6248L296.183 13.0427ZM325.525 0.233647C324.937 -0.206536 324.115 -0.413575 323.183 -0.469077C322.241 -0.525162 321.129 -0.429691 319.911 -0.212236C317.471 0.222917 314.54 1.15797 311.552 2.43095C305.594 4.96912 299.289 8.9042 296.183 13.0427L296.959 13.6248C299.911 9.69061 306.028 5.83839 311.932 3.32305C314.875 2.06928 317.734 1.16102 320.081 0.742371C321.255 0.532924 322.285 0.448867 323.125 0.498889C323.975 0.549492 324.576 0.734193 324.943 1.00964L325.525 0.233647ZM321.432 31.9722C322.777 30.1798 323.946 27.4922 324.886 24.4604C325.829 21.4195 326.554 17.9944 326.996 14.6991C327.437 11.4063 327.598 8.22495 327.403 5.67413C327.306 4.39966 327.119 3.26549 326.825 2.34706C326.535 1.44024 326.121 0.680494 325.525 0.233647L324.943 1.00964C325.302 1.27842 325.635 1.81017 325.901 2.64253C326.164 3.46328 326.342 4.51598 326.436 5.74792C326.624 8.20991 326.471 11.3195 326.035 14.5703C325.6 17.8188 324.885 21.1902 323.96 24.1731C323.032 27.1653 321.903 29.7291 320.656 31.3901L321.432 31.9722ZM297.745 39.1102C300.681 40.5452 304.962 40.9386 309.31 39.8986C313.669 38.856 318.136 36.3635 321.432 31.9722L320.656 31.3901C317.512 35.5792 313.251 37.9589 309.084 38.9556C304.906 39.955 300.863 39.5549 298.17 38.239L297.745 39.1102ZM298.381 38.9111C299.056 37.7022 301.397 33.737 307.38 25.3822L306.592 24.8176C300.596 33.1908 298.233 37.1876 297.534 38.4381L298.381 38.9111ZM307.38 25.3822C311.006 20.3189 314.567 16.0767 317.257 13.0655L316.534 12.4194C313.827 15.45 310.242 19.7197 306.592 24.8176L307.38 25.3822ZM317.257 13.0655C317.413 12.8918 317.427 12.681 317.39 12.5261C317.356 12.3832 317.277 12.2703 317.199 12.1927C317.122 12.1156 317.007 12.0353 316.859 12.0029C316.694 11.967 316.479 11.9935 316.311 12.1619L317 12.845C316.889 12.957 316.744 12.9704 316.652 12.9502C316.576 12.9336 316.533 12.8979 316.515 12.8799C316.497 12.8613 316.464 12.8219 316.447 12.7525C316.428 12.6712 316.432 12.5339 316.534 12.4194L317.257 13.0655ZM316.311 12.1619C310.356 18.1629 302.337 27.1978 295.779 37.2644L296.592 37.7937C303.103 27.7994 311.074 18.816 317 12.845L316.311 12.1619Z" fill="#23B877" mask="url(#path-3-inside-1_5399_63101)"/>
<mask id="path-5-inside-2_5399_63101" fill="white">
<path fill-rule="evenodd" clip-rule="evenodd" d="M192.081 90.9954C191.797 90.7754 191.185 90.6654 190.245 90.6654H186.868L186.868 86.617C186.868 86.265 186.66 85.913 186.245 85.561C185.829 85.187 185.228 85 184.441 85C183.632 85 183.009 85.187 182.572 85.561C182.157 85.913 181.949 86.265 181.949 86.617L181.949 100.368C181.949 100.94 181.971 101.655 182.015 102.513C182.08 103.371 182.288 104.229 182.638 105.087C183.534 106.869 184.485 108.002 185.491 108.486C186.496 108.97 187.513 109.212 188.54 109.212C189.589 109.212 191.391 109.212 192.13 108.024C192.545 107.232 192.643 106.473 192.425 105.747C192.315 105.769 192.195 105.78 192.064 105.78H191.736C190.14 105.78 187.978 105.747 187.294 104.163C187.075 103.657 186.944 103.096 186.901 102.48C186.879 101.842 186.868 101.138 186.868 100.368V94.5265H189.819C190.65 94.5265 191.305 94.2295 191.786 93.6355C192.267 93.0415 192.508 92.4475 192.508 91.8535C192.508 91.4795 192.366 91.1934 192.081 90.9954ZM194.566 107.628V86.6438C194.566 86.3138 194.763 85.9618 195.157 85.5878C195.572 85.2138 196.184 85.0267 196.993 85.0267C197.824 85.0267 198.436 85.2138 198.829 85.5878C199.223 85.9618 199.419 86.3138 199.419 86.6438V92.5132C199.856 92.0952 200.501 91.6772 201.354 91.2592C202.228 90.8412 203.376 90.6322 204.797 90.6322C206.874 90.6322 208.513 91.2702 209.715 92.5462C210.918 93.8223 211.519 95.7473 211.519 98.3214V107.628C211.519 107.958 211.322 108.299 210.929 108.651C210.535 109.003 209.912 109.179 209.059 109.179C208.185 109.179 207.551 109.003 207.158 108.651C206.786 108.299 206.6 107.958 206.6 107.628V98.2224C206.6 97.0783 206.349 96.2313 205.846 95.6813C205.343 95.1093 204.709 94.8233 203.944 94.8233C202.458 94.8233 201.332 95.3403 200.567 96.3743C199.802 97.4084 199.419 98.9924 199.419 101.126V107.628C199.419 107.98 199.212 108.332 198.796 108.684C198.381 109.014 197.78 109.179 196.993 109.179C196.184 109.179 195.572 109.014 195.157 108.684C194.763 108.332 194.566 107.98 194.566 107.628ZM270.887 105.351C271.258 105.835 271.531 106.275 271.706 106.671C271.903 107.045 272.001 107.353 272.001 107.595C272.001 108.079 271.728 108.475 271.182 108.783C270.635 109.091 269.979 109.245 269.214 109.245C268.777 109.245 268.318 109.124 267.837 108.882C267.378 108.618 266.985 108.288 266.657 107.892L262.033 101.655L259.935 103.602V107.628C259.935 107.98 259.727 108.332 259.312 108.684C258.896 109.036 258.284 109.212 257.476 109.212C256.71 109.212 256.12 109.036 255.705 108.684C255.29 108.332 255.082 107.98 255.082 107.628V86.6769C255.082 86.3469 255.29 85.9949 255.705 85.6209C256.12 85.2469 256.71 85.0599 257.476 85.0599C258.328 85.0599 258.951 85.2469 259.345 85.6209C259.738 85.9949 259.935 86.3469 259.935 86.6769V96.9025L265.542 91.6224C265.935 91.2704 266.373 91.0283 266.853 90.8963C267.334 90.7423 267.761 90.6653 268.132 90.6653C268.766 90.6653 269.367 90.9073 269.936 91.3914C270.526 91.8754 270.821 92.3484 270.821 92.8104C270.755 93.0524 270.591 93.3494 270.329 93.7014C270.089 94.0314 269.75 94.3944 269.313 94.7904L265.607 98.2885L270.887 105.351ZM243.425 90.6654C246.224 90.6654 248.519 91.5125 250.311 93.2065C252.104 94.8785 253 97.1776 253 100.104C253 102.876 252.137 105.131 250.41 106.869C248.683 108.585 246.355 109.443 243.425 109.443C240.474 109.443 238.157 108.563 236.474 106.803C234.791 105.043 233.949 102.81 233.949 100.104C233.949 97.1556 234.835 94.8455 236.605 93.1735C238.398 91.5015 240.671 90.6654 243.425 90.6654ZM243.425 105.318C244.781 105.318 245.896 104.867 246.77 103.965C247.644 103.041 248.082 101.754 248.082 100.104C248.082 98.4536 247.644 97.1666 246.77 96.2426C245.896 95.3186 244.781 94.8565 243.425 94.8565C242.092 94.8565 240.988 95.3186 240.114 96.2426C239.261 97.1666 238.835 98.4536 238.835 100.104C238.835 101.754 239.261 103.041 240.114 103.965C240.988 104.867 242.092 105.318 243.425 105.318ZM229.936 93.2065C228.144 91.5125 225.849 90.6654 223.05 90.6654C220.296 90.6654 218.023 91.5015 216.23 93.1735C214.46 94.8455 213.574 97.1556 213.574 100.104C213.574 102.81 214.416 105.043 216.099 106.803C217.782 108.563 220.099 109.443 223.05 109.443C225.98 109.443 228.308 108.585 230.035 106.869C231.762 105.131 232.625 102.876 232.625 100.104C232.625 97.1776 231.729 94.8785 229.936 93.2065ZM226.395 103.965C225.521 104.867 224.406 105.318 223.05 105.318C221.717 105.318 220.613 104.867 219.739 103.965C218.886 103.041 218.46 101.754 218.46 100.104C218.46 98.4536 218.886 97.1666 219.739 96.2426C220.613 95.3186 221.717 94.8565 223.05 94.8565C224.406 94.8565 225.521 95.3186 226.395 96.2426C227.269 97.1666 227.707 98.4536 227.707 100.104C227.707 101.754 227.269 103.041 226.395 103.965ZM177.388 90.6654C178.131 90.6654 178.656 90.8414 178.962 91.1935C179.29 91.5235 179.421 91.8425 179.355 92.1505L176.011 107.001C175.836 107.749 175.453 108.31 174.863 108.684C174.273 109.058 173.628 109.245 172.929 109.245C172.229 109.245 171.573 109.058 170.961 108.684C170.349 108.31 169.934 107.749 169.715 107.001L167.912 100.896L166.076 107.001C165.857 107.749 165.442 108.31 164.83 108.684C164.217 109.058 163.562 109.245 162.862 109.245C162.163 109.245 161.507 109.058 160.895 108.684C160.305 108.31 159.933 107.749 159.78 107.001L156.435 92.1505C156.37 91.8425 156.49 91.5235 156.796 91.1935C157.124 90.8414 157.659 90.6654 158.403 90.6654C159.19 90.6654 159.802 90.8414 160.239 91.1935C160.698 91.5235 160.96 91.8425 161.026 92.1505L163.026 101.49L165.485 93.1735C165.769 92.2055 166.054 91.5455 166.338 91.1935C166.644 90.8414 167.147 90.6654 167.846 90.6654C168.633 90.6654 169.169 90.8524 169.453 91.2265C169.759 91.5785 170.054 92.2275 170.338 93.1735L172.765 101.49L174.765 92.1505C174.852 91.8425 175.115 91.5235 175.552 91.1935C176.011 90.8414 176.623 90.6654 177.388 90.6654ZM151.971 93.2064C150.179 91.5123 147.884 90.6653 145.086 90.6653C142.331 90.6653 140.058 91.5013 138.265 93.1734C136.495 94.8454 135.609 97.1555 135.609 100.104C135.609 102.81 136.451 105.043 138.134 106.803C139.817 108.563 142.135 109.443 145.086 109.443C148.015 109.443 150.343 108.585 152.07 106.869C153.797 105.131 154.66 102.876 154.66 100.104C154.66 97.1775 153.764 94.8784 151.971 93.2064ZM148.43 103.965C147.556 104.867 146.441 105.318 145.086 105.318C143.752 105.318 142.648 104.867 141.774 103.965C140.921 103.041 140.495 101.754 140.495 100.104C140.495 98.4535 140.921 97.1665 141.774 96.2424C142.648 95.3184 143.752 94.8564 145.086 94.8564C146.441 94.8564 147.556 95.3184 148.43 96.2424C149.305 97.1665 149.742 98.4535 149.742 100.104C149.742 101.754 149.305 103.041 148.43 103.965ZM120.674 98.8825V106.836C120.674 108.596 120.466 110.114 120.051 111.39C119.657 112.688 119.089 113.755 118.346 114.591C117.581 115.405 116.651 116.01 115.558 116.406C114.465 116.802 113.219 117 111.82 117C109.591 117 108.05 116.681 107.197 116.043C106.345 115.427 105.918 114.778 105.918 114.096C105.918 113.524 106.181 112.996 106.705 112.512C107.252 112.05 108.071 111.951 109.164 112.215C109.667 112.325 110.115 112.402 110.509 112.446C110.924 112.49 111.383 112.512 111.886 112.512C113.307 112.512 114.312 112.16 114.903 111.456C115.493 110.752 115.788 109.586 115.788 107.958V107.331C115.263 107.705 114.597 107.991 113.788 108.189C113.001 108.387 112.105 108.486 111.099 108.486C108.826 108.486 106.902 107.738 105.328 106.242C103.776 104.724 103 102.59 103 99.8396C103 97.1995 103.863 94.9994 105.59 93.2394C107.317 91.4793 109.558 90.5993 112.312 90.5993C114.564 90.5993 116.52 91.3033 118.182 92.7114C119.843 94.1194 120.674 96.1765 120.674 98.8825ZM111.558 104.328C112.848 104.328 113.864 103.8 114.608 102.744C115.373 101.666 115.755 100.368 115.755 98.8495C115.755 97.5295 115.504 96.5505 115.001 95.9125C114.498 95.2524 113.668 94.8784 112.509 94.7904C111.307 94.7024 110.29 95.0434 109.46 95.8135C108.629 96.5835 108.104 97.7055 107.886 99.1795C107.689 100.676 107.908 101.908 108.541 102.876C109.197 103.844 110.203 104.328 111.558 104.328ZM134.478 91.8533C134.041 91.0832 133.112 90.6982 131.691 90.6982C129.746 90.6982 128.062 91.4462 126.642 92.9423C125.242 94.4383 124.543 96.5394 124.543 99.2454V107.661C124.543 108.013 124.751 108.365 125.166 108.717C125.603 109.069 126.215 109.245 127.002 109.245C127.811 109.245 128.423 109.069 128.838 108.717C129.254 108.365 129.461 108.013 129.461 107.661V100.268C129.461 97.7164 129.888 96.0554 130.74 95.2853C131.593 94.4933 132.959 94.1083 134.839 94.1303C135.058 93.3823 134.937 92.6233 134.478 91.8533Z"/>
</mask>
<path fill-rule="evenodd" clip-rule="evenodd" d="M192.081 90.9954C191.797 90.7754 191.185 90.6654 190.245 90.6654H186.868L186.868 86.617C186.868 86.265 186.66 85.913 186.245 85.561C185.829 85.187 185.228 85 184.441 85C183.632 85 183.009 85.187 182.572 85.561C182.157 85.913 181.949 86.265 181.949 86.617L181.949 100.368C181.949 100.94 181.971 101.655 182.015 102.513C182.08 103.371 182.288 104.229 182.638 105.087C183.534 106.869 184.485 108.002 185.491 108.486C186.496 108.97 187.513 109.212 188.54 109.212C189.589 109.212 191.391 109.212 192.13 108.024C192.545 107.232 192.643 106.473 192.425 105.747C192.315 105.769 192.195 105.78 192.064 105.78H191.736C190.14 105.78 187.978 105.747 187.294 104.163C187.075 103.657 186.944 103.096 186.901 102.48C186.879 101.842 186.868 101.138 186.868 100.368V94.5265H189.819C190.65 94.5265 191.305 94.2295 191.786 93.6355C192.267 93.0415 192.508 92.4475 192.508 91.8535C192.508 91.4795 192.366 91.1934 192.081 90.9954ZM194.566 107.628V86.6438C194.566 86.3138 194.763 85.9618 195.157 85.5878C195.572 85.2138 196.184 85.0267 196.993 85.0267C197.824 85.0267 198.436 85.2138 198.829 85.5878C199.223 85.9618 199.419 86.3138 199.419 86.6438V92.5132C199.856 92.0952 200.501 91.6772 201.354 91.2592C202.228 90.8412 203.376 90.6322 204.797 90.6322C206.874 90.6322 208.513 91.2702 209.715 92.5462C210.918 93.8223 211.519 95.7473 211.519 98.3214V107.628C211.519 107.958 211.322 108.299 210.929 108.651C210.535 109.003 209.912 109.179 209.059 109.179C208.185 109.179 207.551 109.003 207.158 108.651C206.786 108.299 206.6 107.958 206.6 107.628V98.2224C206.6 97.0783 206.349 96.2313 205.846 95.6813C205.343 95.1093 204.709 94.8233 203.944 94.8233C202.458 94.8233 201.332 95.3403 200.567 96.3743C199.802 97.4084 199.419 98.9924 199.419 101.126V107.628C199.419 107.98 199.212 108.332 198.796 108.684C198.381 109.014 197.78 109.179 196.993 109.179C196.184 109.179 195.572 109.014 195.157 108.684C194.763 108.332 194.566 107.98 194.566 107.628ZM270.887 105.351C271.258 105.835 271.531 106.275 271.706 106.671C271.903 107.045 272.001 107.353 272.001 107.595C272.001 108.079 271.728 108.475 271.182 108.783C270.635 109.091 269.979 109.245 269.214 109.245C268.777 109.245 268.318 109.124 267.837 108.882C267.378 108.618 266.985 108.288 266.657 107.892L262.033 101.655L259.935 103.602V107.628C259.935 107.98 259.727 108.332 259.312 108.684C258.896 109.036 258.284 109.212 257.476 109.212C256.71 109.212 256.12 109.036 255.705 108.684C255.29 108.332 255.082 107.98 255.082 107.628V86.6769C255.082 86.3469 255.29 85.9949 255.705 85.6209C256.12 85.2469 256.71 85.0599 257.476 85.0599C258.328 85.0599 258.951 85.2469 259.345 85.6209C259.738 85.9949 259.935 86.3469 259.935 86.6769V96.9025L265.542 91.6224C265.935 91.2704 266.373 91.0283 266.853 90.8963C267.334 90.7423 267.761 90.6653 268.132 90.6653C268.766 90.6653 269.367 90.9073 269.936 91.3914C270.526 91.8754 270.821 92.3484 270.821 92.8104C270.755 93.0524 270.591 93.3494 270.329 93.7014C270.089 94.0314 269.75 94.3944 269.313 94.7904L265.607 98.2885L270.887 105.351ZM243.425 90.6654C246.224 90.6654 248.519 91.5125 250.311 93.2065C252.104 94.8785 253 97.1776 253 100.104C253 102.876 252.137 105.131 250.41 106.869C248.683 108.585 246.355 109.443 243.425 109.443C240.474 109.443 238.157 108.563 236.474 106.803C234.791 105.043 233.949 102.81 233.949 100.104C233.949 97.1556 234.835 94.8455 236.605 93.1735C238.398 91.5015 240.671 90.6654 243.425 90.6654ZM243.425 105.318C244.781 105.318 245.896 104.867 246.77 103.965C247.644 103.041 248.082 101.754 248.082 100.104C248.082 98.4536 247.644 97.1666 246.77 96.2426C245.896 95.3186 244.781 94.8565 243.425 94.8565C242.092 94.8565 240.988 95.3186 240.114 96.2426C239.261 97.1666 238.835 98.4536 238.835 100.104C238.835 101.754 239.261 103.041 240.114 103.965C240.988 104.867 242.092 105.318 243.425 105.318ZM229.936 93.2065C228.144 91.5125 225.849 90.6654 223.05 90.6654C220.296 90.6654 218.023 91.5015 216.23 93.1735C214.46 94.8455 213.574 97.1556 213.574 100.104C213.574 102.81 214.416 105.043 216.099 106.803C217.782 108.563 220.099 109.443 223.05 109.443C225.98 109.443 228.308 108.585 230.035 106.869C231.762 105.131 232.625 102.876 232.625 100.104C232.625 97.1776 231.729 94.8785 229.936 93.2065ZM226.395 103.965C225.521 104.867 224.406 105.318 223.05 105.318C221.717 105.318 220.613 104.867 219.739 103.965C218.886 103.041 218.46 101.754 218.46 100.104C218.46 98.4536 218.886 97.1666 219.739 96.2426C220.613 95.3186 221.717 94.8565 223.05 94.8565C224.406 94.8565 225.521 95.3186 226.395 96.2426C227.269 97.1666 227.707 98.4536 227.707 100.104C227.707 101.754 227.269 103.041 226.395 103.965ZM177.388 90.6654C178.131 90.6654 178.656 90.8414 178.962 91.1935C179.29 91.5235 179.421 91.8425 179.355 92.1505L176.011 107.001C175.836 107.749 175.453 108.31 174.863 108.684C174.273 109.058 173.628 109.245 172.929 109.245C172.229 109.245 171.573 109.058 170.961 108.684C170.349 108.31 169.934 107.749 169.715 107.001L167.912 100.896L166.076 107.001C165.857 107.749 165.442 108.31 164.83 108.684C164.217 109.058 163.562 109.245 162.862 109.245C162.163 109.245 161.507 109.058 160.895 108.684C160.305 108.31 159.933 107.749 159.78 107.001L156.435 92.1505C156.37 91.8425 156.49 91.5235 156.796 91.1935C157.124 90.8414 157.659 90.6654 158.403 90.6654C159.19 90.6654 159.802 90.8414 160.239 91.1935C160.698 91.5235 160.96 91.8425 161.026 92.1505L163.026 101.49L165.485 93.1735C165.769 92.2055 166.054 91.5455 166.338 91.1935C166.644 90.8414 167.147 90.6654 167.846 90.6654C168.633 90.6654 169.169 90.8524 169.453 91.2265C169.759 91.5785 170.054 92.2275 170.338 93.1735L172.765 101.49L174.765 92.1505C174.852 91.8425 175.115 91.5235 175.552 91.1935C176.011 90.8414 176.623 90.6654 177.388 90.6654ZM151.971 93.2064C150.179 91.5123 147.884 90.6653 145.086 90.6653C142.331 90.6653 140.058 91.5013 138.265 93.1734C136.495 94.8454 135.609 97.1555 135.609 100.104C135.609 102.81 136.451 105.043 138.134 106.803C139.817 108.563 142.135 109.443 145.086 109.443C148.015 109.443 150.343 108.585 152.07 106.869C153.797 105.131 154.66 102.876 154.66 100.104C154.66 97.1775 153.764 94.8784 151.971 93.2064ZM148.43 103.965C147.556 104.867 146.441 105.318 145.086 105.318C143.752 105.318 142.648 104.867 141.774 103.965C140.921 103.041 140.495 101.754 140.495 100.104C140.495 98.4535 140.921 97.1665 141.774 96.2424C142.648 95.3184 143.752 94.8564 145.086 94.8564C146.441 94.8564 147.556 95.3184 148.43 96.2424C149.305 97.1665 149.742 98.4535 149.742 100.104C149.742 101.754 149.305 103.041 148.43 103.965ZM120.674 98.8825V106.836C120.674 108.596 120.466 110.114 120.051 111.39C119.657 112.688 119.089 113.755 118.346 114.591C117.581 115.405 116.651 116.01 115.558 116.406C114.465 116.802 113.219 117 111.82 117C109.591 117 108.05 116.681 107.197 116.043C106.345 115.427 105.918 114.778 105.918 114.096C105.918 113.524 106.181 112.996 106.705 112.512C107.252 112.05 108.071 111.951 109.164 112.215C109.667 112.325 110.115 112.402 110.509 112.446C110.924 112.49 111.383 112.512 111.886 112.512C113.307 112.512 114.312 112.16 114.903 111.456C115.493 110.752 115.788 109.586 115.788 107.958V107.331C115.263 107.705 114.597 107.991 113.788 108.189C113.001 108.387 112.105 108.486 111.099 108.486C108.826 108.486 106.902 107.738 105.328 106.242C103.776 104.724 103 102.59 103 99.8396C103 97.1995 103.863 94.9994 105.59 93.2394C107.317 91.4793 109.558 90.5993 112.312 90.5993C114.564 90.5993 116.52 91.3033 118.182 92.7114C119.843 94.1194 120.674 96.1765 120.674 98.8825ZM111.558 104.328C112.848 104.328 113.864 103.8 114.608 102.744C115.373 101.666 115.755 100.368 115.755 98.8495C115.755 97.5295 115.504 96.5505 115.001 95.9125C114.498 95.2524 113.668 94.8784 112.509 94.7904C111.307 94.7024 110.29 95.0434 109.46 95.8135C108.629 96.5835 108.104 97.7055 107.886 99.1795C107.689 100.676 107.908 101.908 108.541 102.876C109.197 103.844 110.203 104.328 111.558 104.328ZM134.478 91.8533C134.041 91.0832 133.112 90.6982 131.691 90.6982C129.746 90.6982 128.062 91.4462 126.642 92.9423C125.242 94.4383 124.543 96.5394 124.543 99.2454V107.661C124.543 108.013 124.751 108.365 125.166 108.717C125.603 109.069 126.215 109.245 127.002 109.245C127.811 109.245 128.423 109.069 128.838 108.717C129.254 108.365 129.461 108.013 129.461 107.661V100.268C129.461 97.7164 129.888 96.0554 130.74 95.2853C131.593 94.4933 132.959 94.1083 134.839 94.1303C135.058 93.3823 134.937 92.6233 134.478 91.8533Z" fill="white"/>
<path d="M192.081 90.9954L191.898 91.2327L191.904 91.2373L191.91 91.2416L192.081 90.9954ZM186.868 90.6654L186.568 90.6654L186.568 90.9654H186.868V90.6654ZM186.868 86.617H186.568V86.617L186.868 86.617ZM186.245 85.561L186.044 85.784L186.051 85.7899L186.245 85.561ZM182.572 85.561L182.766 85.7899L182.767 85.789L182.572 85.561ZM181.949 86.617H181.649V86.617L181.949 86.617ZM181.949 100.368H182.249V100.368L181.949 100.368ZM182.015 102.513L181.715 102.528L181.716 102.536L182.015 102.513ZM182.638 105.087L182.36 105.2L182.365 105.211L182.37 105.222L182.638 105.087ZM192.13 108.024L192.384 108.182L192.39 108.173L192.395 108.163L192.13 108.024ZM192.425 105.747L192.712 105.66L192.633 105.399L192.365 105.453L192.425 105.747ZM187.294 104.163L187.019 104.282V104.282L187.294 104.163ZM186.901 102.48L186.601 102.49L186.601 102.501L186.901 102.48ZM186.868 94.5265V94.2265H186.568V94.5265H186.868ZM191.786 93.6355L192.019 93.8243V93.8243L191.786 93.6355ZM195.157 85.5878L194.956 85.3647L194.95 85.3703L195.157 85.5878ZM198.829 85.5878L198.622 85.8052L198.829 85.5878ZM199.419 92.5132H199.119V93.2151L199.627 92.7301L199.419 92.5132ZM201.354 91.2592L201.224 90.9885L201.222 90.9898L201.354 91.2592ZM207.158 108.651L206.951 108.869L206.958 108.874L207.158 108.651ZM205.846 95.6813L205.621 95.8794L205.625 95.8837L205.846 95.6813ZM200.567 96.3743L200.326 96.1959V96.1959L200.567 96.3743ZM198.796 108.684L198.983 108.919L198.99 108.913L198.796 108.684ZM195.157 108.684L194.957 108.907L194.963 108.913L194.97 108.919L195.157 108.684ZM271.706 106.671L271.432 106.792L271.436 106.801L271.441 106.81L271.706 106.671ZM270.887 105.351L270.646 105.53L270.649 105.533L270.887 105.351ZM271.182 108.783L271.034 108.521V108.521L271.182 108.783ZM267.837 108.882L267.688 109.142L267.695 109.146L267.702 109.15L267.837 108.882ZM266.657 107.892L266.416 108.07L266.42 108.077L266.426 108.083L266.657 107.892ZM262.033 101.655L262.274 101.476L262.075 101.207L261.829 101.435L262.033 101.655ZM259.935 103.602L259.731 103.382L259.635 103.471V103.602H259.935ZM259.312 108.684L259.506 108.913V108.913L259.312 108.684ZM255.705 108.684L255.511 108.913V108.913L255.705 108.684ZM255.705 85.6209L255.504 85.398L255.504 85.398L255.705 85.6209ZM259.345 85.6209L259.138 85.8384L259.138 85.8384L259.345 85.6209ZM259.935 96.9025H259.635V97.5971L260.14 97.1209L259.935 96.9025ZM265.542 91.6224L265.342 91.3987L265.336 91.404L265.542 91.6224ZM266.853 90.8963L266.933 91.1859L266.945 91.182L266.853 90.8963ZM269.936 91.3914L269.741 91.6198L269.745 91.6233L269.936 91.3914ZM270.821 92.8104L271.111 92.8888L271.121 92.8503V92.8104H270.821ZM270.329 93.7014L270.089 93.5221L270.087 93.5247L270.329 93.7014ZM269.313 94.7904L269.111 94.568L269.107 94.5723L269.313 94.7904ZM265.607 98.2885L265.401 98.0704L265.207 98.254L265.367 98.4682L265.607 98.2885ZM250.311 93.2065L250.105 93.4245L250.107 93.4259L250.311 93.2065ZM250.41 106.869L250.621 107.082L250.622 107.08L250.41 106.869ZM236.474 106.803L236.257 107.01V107.01L236.474 106.803ZM236.605 93.1735L236.401 92.9541L236.399 92.9554L236.605 93.1735ZM246.77 103.965L246.985 104.174L246.988 104.171L246.77 103.965ZM246.77 96.2426L246.552 96.4488L246.552 96.4488L246.77 96.2426ZM240.114 96.2426L239.896 96.0364L239.893 96.0392L240.114 96.2426ZM240.114 103.965L239.893 104.168L239.898 104.174L240.114 103.965ZM229.936 93.2065L229.73 93.4245L229.732 93.4259L229.936 93.2065ZM216.23 93.1735L216.026 92.9541L216.024 92.9554L216.23 93.1735ZM216.099 106.803L215.882 107.01V107.01L216.099 106.803ZM230.035 106.869L230.246 107.082L230.248 107.08L230.035 106.869ZM226.395 103.965L226.61 104.174L226.613 104.171L226.395 103.965ZM219.739 103.965L219.518 104.168L219.523 104.174L219.739 103.965ZM219.739 96.2426L219.521 96.0364L219.518 96.0392L219.739 96.2426ZM226.395 96.2426L226.613 96.0364V96.0364L226.395 96.2426ZM178.962 91.1935L178.736 91.3903L178.742 91.3978L178.749 91.4049L178.962 91.1935ZM179.355 92.1505L179.648 92.2164L179.649 92.213L179.355 92.1505ZM176.011 107.001L176.303 107.069L176.303 107.067L176.011 107.001ZM174.863 108.684L174.703 108.43L174.703 108.43L174.863 108.684ZM170.961 108.684L170.805 108.94V108.94L170.961 108.684ZM169.715 107.001L170.003 106.917L170.003 106.916L169.715 107.001ZM167.912 100.896L168.199 100.811L167.914 99.8455L167.624 100.809L167.912 100.896ZM166.076 107.001L165.788 106.914L165.788 106.917L166.076 107.001ZM160.895 108.684L160.734 108.937L160.738 108.94L160.895 108.684ZM159.78 107.001L160.074 106.941L160.073 106.935L159.78 107.001ZM156.435 92.1505L156.142 92.213L156.143 92.2164L156.435 92.1505ZM156.796 91.1935L156.576 90.989L156.576 90.9895L156.796 91.1935ZM160.239 91.1935L160.051 91.4271L160.057 91.4323L160.064 91.437L160.239 91.1935ZM161.026 92.1505L160.732 92.213L160.733 92.2133L161.026 92.1505ZM163.026 101.49L162.733 101.553L163.314 101.575L163.026 101.49ZM165.485 93.1735L165.773 93.2586L165.773 93.258L165.485 93.1735ZM166.338 91.1935L166.111 90.9965L166.104 91.005L166.338 91.1935ZM169.453 91.2265L169.214 91.408L169.22 91.4158L169.226 91.4233L169.453 91.2265ZM170.338 93.1735L170.626 93.0895L170.626 93.0872L170.338 93.1735ZM172.765 101.49L172.477 101.574L173.058 101.553L172.765 101.49ZM174.765 92.1505L174.476 92.0685L174.474 92.078L174.471 92.0877L174.765 92.1505ZM175.552 91.1935L175.733 91.4329L175.734 91.4315L175.552 91.1935ZM151.971 93.2064L151.765 93.4244L151.767 93.4257L151.971 93.2064ZM138.265 93.1734L138.061 92.954L138.059 92.9552L138.265 93.1734ZM138.134 106.803L137.917 107.01L138.134 106.803ZM152.07 106.869L152.281 107.082L152.283 107.08L152.07 106.869ZM148.43 103.965L148.646 104.173L148.648 104.171L148.43 103.965ZM141.774 103.965L141.553 104.168L141.558 104.173L141.774 103.965ZM141.774 96.2424L141.556 96.0362L141.553 96.039L141.774 96.2424ZM120.051 111.39L119.765 111.297L119.764 111.303L120.051 111.39ZM118.346 114.591L118.564 114.796L118.57 114.79L118.346 114.591ZM115.558 116.406L115.661 116.688H115.661L115.558 116.406ZM107.197 116.043L107.377 115.803L107.373 115.8L107.197 116.043ZM106.705 112.512L106.511 112.283L106.502 112.291L106.705 112.512ZM109.164 112.215L109.094 112.507L109.1 112.508L109.164 112.215ZM110.509 112.446L110.476 112.744L110.477 112.744L110.509 112.446ZM114.903 111.456L115.133 111.649L114.903 111.456ZM115.788 107.331H116.088V106.748L115.614 107.086L115.788 107.331ZM113.788 108.189L113.717 107.897L113.715 107.898L113.788 108.189ZM105.328 106.242L105.118 106.456L105.121 106.459L105.328 106.242ZM105.59 93.2394L105.376 93.0293L105.59 93.2394ZM118.182 92.7114L118.376 92.4825L118.182 92.7114ZM114.608 102.744L114.363 102.57L114.362 102.571L114.608 102.744ZM115.001 95.9125L114.762 96.0943L114.765 96.0981L115.001 95.9125ZM112.509 94.7904L112.532 94.4913L112.531 94.4912L112.509 94.7904ZM109.46 95.8135L109.256 95.5934L109.46 95.8135ZM107.886 99.1795L107.589 99.1355L107.588 99.1404L107.886 99.1795ZM108.541 102.876L108.29 103.04L108.293 103.044L108.541 102.876ZM134.478 91.8533L134.217 92.0014L134.221 92.0069L134.478 91.8533ZM126.642 92.9423L126.424 92.7357L126.422 92.7374L126.642 92.9423ZM125.166 108.717L124.972 108.946L124.978 108.95L125.166 108.717ZM130.74 95.2853L130.941 95.508L130.944 95.5051L130.74 95.2853ZM134.839 94.1303L134.835 94.4303L135.063 94.433L135.127 94.2145L134.839 94.1303ZM190.245 90.9654C190.705 90.9654 191.074 90.9925 191.356 91.0432C191.645 91.0951 191.812 91.1665 191.898 91.2327L192.265 90.7582C192.066 90.6043 191.786 90.5108 191.462 90.4527C191.132 90.3934 190.725 90.3654 190.245 90.3654V90.9654ZM186.868 90.9654H190.245V90.3654H186.868V90.9654ZM186.568 86.617L186.568 90.6654L187.168 90.6654L187.168 86.617L186.568 86.617ZM186.051 85.7899C186.436 86.1161 186.568 86.3922 186.568 86.617H187.168C187.168 86.1379 186.884 85.7099 186.439 85.3322L186.051 85.7899ZM184.441 85.3C185.184 85.3 185.703 85.4766 186.044 85.7839L186.445 85.3381C185.956 84.8974 185.272 84.7 184.441 84.7V85.3ZM182.767 85.789C183.132 85.4772 183.675 85.3 184.441 85.3V84.7C183.59 84.7 182.887 84.8968 182.377 85.333L182.767 85.789ZM182.249 86.617C182.249 86.3922 182.381 86.1161 182.766 85.7899L182.378 85.3322C181.933 85.7099 181.649 86.1379 181.649 86.617H182.249ZM182.249 100.368L182.249 86.617L181.649 86.617L181.649 100.368L182.249 100.368ZM182.315 102.497C182.271 101.642 182.249 100.933 182.249 100.368H181.649C181.649 100.947 181.671 101.667 181.715 102.528L182.315 102.497ZM182.916 104.974C182.577 104.142 182.377 103.315 182.314 102.49L181.716 102.536C181.784 103.427 181.999 104.315 182.36 105.2L182.916 104.974ZM185.621 108.216C184.706 107.775 183.793 106.716 182.906 104.952L182.37 105.222C183.275 107.022 184.264 108.228 185.361 108.756L185.621 108.216ZM188.54 108.912C187.561 108.912 186.589 108.682 185.621 108.216L185.361 108.756C186.403 109.258 187.464 109.512 188.54 109.512V108.912ZM191.875 107.865C191.567 108.361 191.025 108.63 190.387 108.77C189.75 108.911 189.069 108.912 188.54 108.912V109.512C189.061 109.512 189.805 109.513 190.516 109.356C191.225 109.2 191.953 108.875 192.384 108.182L191.875 107.865ZM192.137 105.833C192.329 106.471 192.25 107.149 191.864 107.885L192.395 108.163C192.84 107.315 192.957 106.475 192.712 105.66L192.137 105.833ZM192.064 106.08C192.212 106.08 192.352 106.067 192.484 106.041L192.365 105.453C192.279 105.47 192.179 105.48 192.064 105.48V106.08ZM191.736 106.08H192.064V105.48H191.736V106.08ZM187.019 104.282C187.413 105.195 188.229 105.639 189.101 105.856C189.967 106.073 190.943 106.08 191.736 106.08V105.48C190.933 105.48 190.03 105.47 189.246 105.274C188.466 105.079 187.859 104.715 187.569 104.044L187.019 104.282ZM186.601 102.501C186.647 103.147 186.785 103.741 187.019 104.282L187.569 104.044C187.366 103.572 187.241 103.045 187.2 102.458L186.601 102.501ZM186.568 100.368C186.568 101.14 186.579 101.848 186.601 102.49L187.2 102.469C187.179 101.835 187.168 101.135 187.168 100.368H186.568ZM186.568 94.5265V100.368H187.168V94.5265H186.568ZM189.819 94.2265H186.868V94.8265H189.819V94.2265ZM191.553 93.4467C191.135 93.9637 190.568 94.2265 189.819 94.2265V94.8265C190.731 94.8265 191.476 94.4953 192.019 93.8243L191.553 93.4467ZM192.208 91.8535C192.208 92.3611 192.003 92.8906 191.553 93.4467L192.019 93.8243C192.531 93.1924 192.808 92.5338 192.808 91.8535H192.208ZM191.91 91.2416C192.106 91.3784 192.208 91.5684 192.208 91.8535H192.808C192.808 91.3905 192.625 91.0085 192.253 90.7493L191.91 91.2416ZM194.266 86.6438V107.628H194.866V86.6438H194.266ZM194.95 85.3703C194.534 85.766 194.266 86.1918 194.266 86.6438H194.866C194.866 86.4358 194.993 86.1576 195.363 85.8052L194.95 85.3703ZM196.993 84.7267C196.143 84.7267 195.447 84.923 194.956 85.3648L195.357 85.8107C195.697 85.5045 196.225 85.3267 196.993 85.3267V84.7267ZM199.036 85.3703C198.563 84.9211 197.861 84.7267 196.993 84.7267V85.3267C197.786 85.3267 198.308 85.5064 198.622 85.8052L199.036 85.3703ZM199.719 86.6438C199.719 86.1918 199.452 85.766 199.036 85.3703L198.622 85.8052C198.993 86.1576 199.119 86.4358 199.119 86.6438H199.719ZM199.719 92.5132V86.6438H199.119V92.5132H199.719ZM201.222 90.9898C200.355 91.4146 199.68 91.8486 199.212 92.2964L199.627 92.7301C200.033 92.3418 200.647 91.9398 201.486 91.5286L201.222 90.9898ZM204.797 90.3322C203.35 90.3322 202.154 90.5443 201.224 90.9885L201.483 91.5299C202.303 91.138 203.401 90.9322 204.797 90.9322V90.3322ZM209.934 92.3405C208.664 90.9932 206.94 90.3322 204.797 90.3322V90.9322C206.807 90.9322 208.362 91.5472 209.497 92.752L209.934 92.3405ZM211.819 98.3214C211.819 95.7062 211.208 93.6935 209.934 92.3405L209.497 92.752C210.627 93.951 211.219 95.7884 211.219 98.3214H211.819ZM211.819 107.628V98.3214H211.219V107.628H211.819ZM211.129 108.874C211.548 108.499 211.819 108.083 211.819 107.628H211.219C211.219 107.832 211.096 108.099 210.728 108.427L211.129 108.874ZM209.059 109.479C209.943 109.479 210.655 109.298 211.129 108.874L210.728 108.427C210.415 108.707 209.881 108.879 209.059 108.879V109.479ZM206.958 108.874C207.432 109.299 208.156 109.479 209.059 109.479V108.879C208.214 108.879 207.67 108.706 207.358 108.427L206.958 108.874ZM206.3 107.628C206.3 108.076 206.552 108.49 206.951 108.868L207.364 108.433C207.02 108.107 206.9 107.839 206.9 107.628H206.3ZM206.3 98.2224V107.628H206.9V98.2224H206.3ZM205.625 95.8837C206.056 96.3553 206.3 97.1145 206.3 98.2224H206.9C206.9 97.0422 206.642 96.1073 206.068 95.4789L205.625 95.8837ZM203.944 95.1233C204.624 95.1233 205.175 95.3725 205.621 95.8794L206.071 95.4833C205.511 94.8461 204.795 94.5233 203.944 94.5233V95.1233ZM200.808 96.5528C201.507 95.6078 202.536 95.1233 203.944 95.1233V94.5233C202.38 94.5233 201.157 95.0728 200.326 96.1959L200.808 96.5528ZM199.719 101.126C199.719 99.0181 200.099 97.511 200.808 96.5528L200.326 96.1959C199.505 97.3057 199.119 98.9667 199.119 101.126H199.719ZM199.719 107.628V101.126H199.119V107.628H199.719ZM198.99 108.913C199.436 108.535 199.719 108.107 199.719 107.628H199.119C199.119 107.853 198.987 108.129 198.602 108.455L198.99 108.913ZM196.993 109.479C197.816 109.479 198.494 109.307 198.983 108.919L198.61 108.449C198.268 108.72 197.744 108.879 196.993 108.879V109.479ZM194.97 108.919C195.46 109.308 196.15 109.479 196.993 109.479V108.879C196.218 108.879 195.684 108.72 195.343 108.449L194.97 108.919ZM194.266 107.628C194.266 108.1 194.531 108.527 194.957 108.907L195.357 108.46C194.995 108.136 194.866 107.859 194.866 107.628H194.266ZM271.981 106.55C271.793 106.125 271.505 105.664 271.125 105.168L270.649 105.533C271.011 106.006 271.27 106.425 271.432 106.792L271.981 106.55ZM272.301 107.595C272.301 107.28 272.177 106.92 271.972 106.531L271.441 106.81C271.629 107.169 271.701 107.425 271.701 107.595H272.301ZM271.329 109.044C271.938 108.701 272.301 108.22 272.301 107.595H271.701C271.701 107.938 271.519 108.248 271.034 108.521L271.329 109.044ZM269.214 109.545C270.02 109.545 270.729 109.383 271.329 109.044L271.034 108.521C270.542 108.799 269.939 108.945 269.214 108.945V109.545ZM267.702 109.15C268.216 109.408 268.721 109.545 269.214 109.545V108.945C268.834 108.945 268.421 108.84 267.972 108.614L267.702 109.15ZM266.426 108.083C266.777 108.508 267.198 108.861 267.688 109.142L267.987 108.622C267.558 108.375 267.192 108.068 266.888 107.7L266.426 108.083ZM261.792 101.833L266.416 108.07L266.898 107.713L262.274 101.476L261.792 101.833ZM260.139 103.822L262.237 101.875L261.829 101.435L259.731 103.382L260.139 103.822ZM260.235 107.628V103.602H259.635V107.628H260.235ZM259.506 108.913C259.951 108.535 260.235 108.107 260.235 107.628H259.635C259.635 107.853 259.503 108.129 259.118 108.455L259.506 108.913ZM257.476 109.512C258.322 109.512 259.015 109.328 259.506 108.913L259.118 108.455C258.778 108.743 258.247 108.912 257.476 108.912V109.512ZM255.511 108.913C255.999 109.326 256.668 109.512 257.476 109.512V108.912C256.753 108.912 256.242 108.745 255.899 108.455L255.511 108.913ZM254.782 107.628C254.782 108.107 255.065 108.535 255.511 108.913L255.899 108.455C255.514 108.129 255.382 107.853 255.382 107.628H254.782ZM254.782 86.6769V107.628H255.382V86.6769H254.782ZM255.504 85.398C255.067 85.7912 254.782 86.2185 254.782 86.6769H255.382C255.382 86.4754 255.512 86.1986 255.906 85.8439L255.504 85.398ZM257.476 84.7599C256.664 84.7599 255.992 84.9586 255.504 85.398L255.906 85.8439C256.248 85.5352 256.757 85.3599 257.476 85.3599V84.7599ZM259.551 85.4035C259.078 84.9532 258.363 84.7599 257.476 84.7599V85.3599C258.293 85.3599 258.825 85.5407 259.138 85.8384L259.551 85.4035ZM260.235 86.6769C260.235 86.2249 259.967 85.7991 259.551 85.4035L259.138 85.8384C259.509 86.1908 259.635 86.4689 259.635 86.6769H260.235ZM260.235 96.9025V86.6769H259.635V96.9025H260.235ZM265.336 91.404L259.729 96.6841L260.14 97.1209L265.748 91.8408L265.336 91.404ZM266.774 90.607C266.246 90.752 265.768 91.0177 265.342 91.3988L265.742 91.8459C266.103 91.523 266.499 91.3046 266.933 91.1856L266.774 90.607ZM268.132 90.3653C267.721 90.3653 267.263 90.4503 266.762 90.6106L266.945 91.182C267.406 91.0344 267.801 90.9653 268.132 90.9653V90.3653ZM270.13 91.163C269.518 90.6414 268.85 90.3653 268.132 90.3653V90.9653C268.683 90.9653 269.217 91.1733 269.741 91.6198L270.13 91.163ZM271.121 92.8104C271.121 92.2136 270.741 91.664 270.126 91.1594L269.745 91.6233C270.311 92.0868 270.521 92.4831 270.521 92.8104H271.121ZM270.57 93.8807C270.84 93.5177 271.03 93.1848 271.111 92.8888L270.531 92.7319C270.48 92.92 270.343 93.1811 270.089 93.5222L270.57 93.8807ZM269.514 95.0128C269.96 94.6085 270.315 94.2302 270.572 93.8781L270.087 93.5247C269.862 93.8326 269.539 94.1804 269.111 94.5681L269.514 95.0128ZM265.813 98.5067L269.519 95.0086L269.107 94.5723L265.401 98.0704L265.813 98.5067ZM271.127 105.171L265.848 98.1089L265.367 98.4682L270.646 105.53L271.127 105.171ZM250.517 92.9885C248.662 91.2346 246.289 90.3654 243.425 90.3654V90.9654C246.158 90.9654 248.376 91.7903 250.105 93.4245L250.517 92.9885ZM253.3 100.104C253.3 97.1119 252.381 94.7268 250.516 92.9871L250.107 93.4259C251.827 95.0303 252.7 97.2433 252.7 100.104H253.3ZM250.622 107.08C252.413 105.278 253.3 102.944 253.3 100.104H252.7C252.7 102.808 251.86 104.983 250.197 106.657L250.622 107.08ZM243.425 109.743C246.417 109.743 248.827 108.865 250.621 107.082L250.198 106.656C248.539 108.305 246.293 109.143 243.425 109.143V109.743ZM236.257 107.01C238.009 108.842 240.411 109.743 243.425 109.743V109.143C240.538 109.143 238.306 108.284 236.691 106.596L236.257 107.01ZM233.649 100.104C233.649 102.878 234.514 105.188 236.257 107.01L236.691 106.596C235.067 104.898 234.249 102.742 234.249 100.104H233.649ZM236.399 92.9554C234.556 94.6958 233.649 97.0918 233.649 100.104H234.249C234.249 97.2194 235.113 94.9953 236.811 93.3916L236.399 92.9554ZM243.425 90.3654C240.605 90.3654 238.256 91.2237 236.401 92.9541L236.81 93.3929C238.54 91.7792 240.737 90.9654 243.425 90.9654V90.3654ZM246.555 103.756C245.741 104.595 244.707 105.018 243.425 105.018V105.618C244.855 105.618 246.05 105.139 246.985 104.174L246.555 103.756ZM247.782 100.104C247.782 101.701 247.36 102.905 246.552 103.759L246.988 104.171C247.929 103.176 248.382 101.807 248.382 100.104H247.782ZM246.552 96.4488C247.36 97.3021 247.782 98.5068 247.782 100.104H248.382C248.382 98.4005 247.929 97.0312 246.988 96.0364L246.552 96.4488ZM243.425 95.1565C244.704 95.1565 245.738 95.5889 246.552 96.4488L246.988 96.0364C246.053 95.0482 244.857 94.5565 243.425 94.5565V95.1565ZM240.332 96.4488C241.146 95.5878 242.17 95.1565 243.425 95.1565V94.5565C242.014 94.5565 240.83 95.0493 239.896 96.0364L240.332 96.4488ZM239.135 100.104C239.135 98.5049 239.547 97.2991 240.334 96.446L239.893 96.0392C238.975 97.0341 238.535 98.4024 238.535 100.104H239.135ZM240.334 103.761C239.547 102.908 239.135 101.703 239.135 100.104H238.535C238.535 101.805 238.975 103.173 239.893 104.168L240.334 103.761ZM243.425 105.018C242.168 105.018 241.143 104.596 240.329 103.756L239.898 104.174C240.833 105.138 242.016 105.618 243.425 105.618V105.018ZM223.05 90.9654C225.783 90.9654 228.001 91.7903 229.73 93.4245L230.142 92.9885C228.287 91.2346 225.914 90.3654 223.05 90.3654V90.9654ZM216.435 93.3929C218.165 91.7792 220.362 90.9654 223.05 90.9654V90.3654C220.23 90.3654 217.881 91.2237 216.026 92.9541L216.435 93.3929ZM213.874 100.104C213.874 97.2194 214.738 94.9953 216.436 93.3916L216.024 92.9554C214.181 94.6958 213.274 97.0918 213.274 100.104H213.874ZM216.316 106.596C214.692 104.898 213.874 102.742 213.874 100.104H213.274C213.274 102.878 214.139 105.188 215.882 107.01L216.316 106.596ZM223.05 109.143C220.163 109.143 217.931 108.284 216.316 106.596L215.882 107.01C217.634 108.842 220.036 109.743 223.05 109.743V109.143ZM229.823 106.656C228.164 108.305 225.918 109.143 223.05 109.143V109.743C226.042 109.743 228.452 108.865 230.246 107.082L229.823 106.656ZM232.325 100.104C232.325 102.808 231.485 104.983 229.822 106.657L230.248 107.08C232.038 105.278 232.925 102.944 232.925 100.104H232.325ZM229.732 93.4259C231.452 95.0303 232.325 97.2433 232.325 100.104H232.925C232.925 97.1119 232.006 94.7268 230.141 92.9871L229.732 93.4259ZM223.05 105.618C224.48 105.618 225.675 105.139 226.61 104.174L226.18 103.756C225.366 104.595 224.332 105.018 223.05 105.018V105.618ZM219.523 104.174C220.458 105.138 221.641 105.618 223.05 105.618V105.018C221.793 105.018 220.768 104.596 219.954 103.756L219.523 104.174ZM218.16 100.104C218.16 101.805 218.6 103.173 219.518 104.168L219.959 103.761C219.172 102.908 218.76 101.703 218.76 100.104H218.16ZM219.518 96.0392C218.6 97.0341 218.16 98.4024 218.16 100.104H218.76C218.76 98.5049 219.172 97.2991 219.959 96.446L219.518 96.0392ZM223.05 94.5565C221.639 94.5565 220.455 95.0493 219.521 96.0364L219.957 96.4488C220.771 95.5878 221.795 95.1565 223.05 95.1565V94.5565ZM226.613 96.0364C225.678 95.0482 224.482 94.5565 223.05 94.5565V95.1565C224.329 95.1565 225.363 95.5889 226.177 96.4488L226.613 96.0364ZM228.007 100.104C228.007 98.4005 227.554 97.0312 226.613 96.0364L226.177 96.4488C226.985 97.3021 227.407 98.5068 227.407 100.104H228.007ZM226.613 104.171C227.554 103.176 228.007 101.807 228.007 100.104H227.407C227.407 101.701 226.985 102.905 226.177 103.759L226.613 104.171ZM179.188 90.9966C178.799 90.5486 178.167 90.3654 177.388 90.3654V90.9654C178.095 90.9654 178.513 91.1343 178.736 91.3903L179.188 90.9966ZM179.649 92.213C179.744 91.7642 179.538 91.3472 179.175 90.982L178.749 91.4049C179.042 91.6997 179.098 91.9208 179.062 92.088L179.649 92.213ZM176.303 107.067L179.648 92.2164L179.063 92.0846L175.718 106.935L176.303 107.067ZM175.024 108.937C175.687 108.517 176.112 107.885 176.303 107.069L175.719 106.933C175.56 107.612 175.22 108.103 174.703 108.43L175.024 108.937ZM172.929 109.545C173.685 109.545 174.385 109.342 175.024 108.937L174.703 108.43C174.16 108.774 173.571 108.945 172.929 108.945V109.545ZM170.805 108.94C171.463 109.342 172.172 109.545 172.929 109.545V108.945C172.286 108.945 171.684 108.774 171.118 108.428L170.805 108.94ZM169.427 107.085C169.665 107.898 170.123 108.523 170.805 108.94L171.118 108.428C170.575 108.096 170.203 107.6 170.003 106.917L169.427 107.085ZM167.624 100.981L169.427 107.086L170.003 106.916L168.199 100.811L167.624 100.981ZM166.363 107.087L168.199 100.982L167.624 100.809L165.788 106.914L166.363 107.087ZM164.986 108.94C165.667 108.523 166.126 107.898 166.363 107.085L165.788 106.917C165.588 107.6 165.216 108.096 164.673 108.428L164.986 108.94ZM162.862 109.545C163.618 109.545 164.328 109.342 164.986 108.94L164.673 108.428C164.107 108.774 163.505 108.945 162.862 108.945V109.545ZM160.738 108.94C161.396 109.342 162.106 109.545 162.862 109.545V108.945C162.219 108.945 161.617 108.774 161.051 108.428L160.738 108.94ZM159.486 107.061C159.654 107.881 160.068 108.515 160.734 108.937L161.055 108.43C160.541 108.104 160.212 107.617 160.074 106.941L159.486 107.061ZM156.143 92.2164L159.487 107.067L160.073 106.935L156.728 92.0846L156.143 92.2164ZM156.576 90.9895C156.234 91.3582 156.048 91.7728 156.142 92.213L156.729 92.088C156.691 91.9122 156.746 91.6887 157.016 91.3974L156.576 90.9895ZM158.403 90.3654C157.621 90.3654 156.986 90.5496 156.576 90.989L157.016 91.3979C157.262 91.1333 157.698 90.9654 158.403 90.9654V90.3654ZM160.427 90.9598C159.919 90.5505 159.231 90.3654 158.403 90.3654V90.9654C159.148 90.9654 159.685 91.1324 160.051 91.4271L160.427 90.9598ZM161.319 92.088C161.23 91.6677 160.89 91.2922 160.414 90.9499L160.064 91.437C160.506 91.7547 160.691 92.0173 160.732 92.213L161.319 92.088ZM163.319 101.427L161.319 92.0877L160.733 92.2133L162.733 101.553L163.319 101.427ZM165.198 93.0884L162.738 101.405L163.314 101.575L165.773 93.2586L165.198 93.0884ZM166.104 91.005C165.78 91.4072 165.482 92.1183 165.197 93.089L165.773 93.258C166.057 92.2926 166.328 91.6837 166.571 91.3819L166.104 91.005ZM167.846 90.3654C167.104 90.3654 166.498 90.552 166.111 90.9966L166.564 91.3903C166.79 91.1309 167.19 90.9654 167.846 90.9654V90.3654ZM169.692 91.045C169.321 90.5577 168.664 90.3654 167.846 90.3654V90.9654C168.602 90.9654 169.016 91.1472 169.214 91.408L169.692 91.045ZM170.626 93.0872C170.34 92.136 170.03 91.4332 169.679 91.0296L169.226 91.4233C169.488 91.7237 169.768 92.319 170.051 93.2598L170.626 93.0872ZM173.053 101.406L170.626 93.0895L170.05 93.2575L172.477 101.574L173.053 101.406ZM174.471 92.0877L172.471 101.427L173.058 101.553L175.058 92.2133L174.471 92.0877ZM175.371 90.954C174.915 91.2982 174.59 91.6668 174.476 92.0685L175.053 92.2324C175.114 92.0182 175.314 91.7487 175.733 91.4329L175.371 90.954ZM177.388 90.3654C176.578 90.3654 175.895 90.552 175.369 90.9554L175.734 91.4315C176.126 91.1309 176.668 90.9654 177.388 90.9654V90.3654ZM145.086 90.9653C147.818 90.9653 150.036 91.7902 151.765 93.4244L152.178 92.9883C150.322 91.2345 147.949 90.3653 145.086 90.3653V90.9653ZM138.47 93.3927C140.2 91.779 142.397 90.9653 145.086 90.9653V90.3653C142.265 90.3653 139.916 91.2236 138.061 92.954L138.47 93.3927ZM135.909 100.104C135.909 97.2193 136.773 94.9952 138.471 93.3915L138.059 92.9552C136.216 94.6956 135.309 97.0916 135.309 100.104H135.909ZM138.351 106.595C136.727 104.898 135.909 102.742 135.909 100.104H135.309C135.309 102.878 136.175 105.188 137.917 107.01L138.351 106.595ZM145.086 109.143C142.198 109.143 139.966 108.284 138.351 106.595L137.917 107.01C139.669 108.842 142.071 109.743 145.086 109.743V109.143ZM151.858 106.656C150.199 108.305 147.953 109.143 145.086 109.143V109.743C148.077 109.743 150.487 108.864 152.281 107.082L151.858 106.656ZM154.36 100.104C154.36 102.808 153.521 104.983 151.857 106.657L152.283 107.08C154.073 105.278 154.96 102.944 154.96 100.104H154.36ZM151.767 93.4257C153.487 95.0301 154.36 97.2432 154.36 100.104H154.96C154.96 97.1117 154.041 94.7267 152.176 92.987L151.767 93.4257ZM145.086 105.618C146.515 105.618 147.71 105.139 148.646 104.173L148.215 103.756C147.402 104.595 146.367 105.018 145.086 105.018V105.618ZM141.558 104.173C142.493 105.138 143.677 105.618 145.086 105.618V105.018C143.828 105.018 142.803 104.596 141.989 103.756L141.558 104.173ZM140.195 100.104C140.195 101.805 140.635 103.173 141.553 104.168L141.994 103.761C141.207 102.908 140.795 101.702 140.795 100.104H140.195ZM141.553 96.039C140.635 97.034 140.195 98.4023 140.195 100.104H140.795C140.795 98.5047 141.207 97.299 141.994 96.4459L141.553 96.039ZM145.086 94.5564C143.674 94.5564 142.49 95.0492 141.556 96.0362L141.992 96.4486C142.806 95.5876 143.83 95.1564 145.086 95.1564V94.5564ZM148.648 96.0362C147.713 95.0481 146.517 94.5564 145.086 94.5564V95.1564C146.365 95.1564 147.399 95.5887 148.212 96.4486L148.648 96.0362ZM150.042 100.104C150.042 98.4004 149.589 97.031 148.648 96.0362L148.212 96.4486C149.02 97.3019 149.442 98.5066 149.442 100.104H150.042ZM148.648 104.171C149.589 103.176 150.042 101.807 150.042 100.104H149.442C149.442 101.7 149.02 102.905 148.212 103.758L148.648 104.171ZM120.974 106.836V98.8825H120.374V106.836H120.974ZM120.336 111.483C120.764 110.169 120.974 108.618 120.974 106.836H120.374C120.374 108.573 120.168 110.059 119.765 111.297L120.336 111.483ZM118.57 114.79C119.347 113.916 119.934 112.808 120.338 111.477L119.764 111.303C119.38 112.568 118.83 113.594 118.121 114.392L118.57 114.79ZM115.661 116.688C116.796 116.277 117.766 115.646 118.564 114.796L118.127 114.385C117.396 115.164 116.507 115.743 115.456 116.124L115.661 116.688ZM111.82 117.3C113.247 117.3 114.529 117.098 115.661 116.688L115.456 116.124C114.402 116.506 113.192 116.7 111.82 116.7V117.3ZM107.017 116.283C107.954 116.984 109.584 117.3 111.82 117.3V116.7C109.598 116.7 108.145 116.378 107.377 115.803L107.017 116.283ZM105.618 114.096C105.618 114.918 106.134 115.645 107.021 116.286L107.373 115.8C106.555 115.209 106.218 114.638 106.218 114.096H105.618ZM106.502 112.291C105.932 112.817 105.618 113.42 105.618 114.096H106.218C106.218 113.628 106.429 113.175 106.909 112.732L106.502 112.291ZM109.235 111.923C108.103 111.65 107.165 111.73 106.512 112.283L106.899 112.741C107.338 112.37 108.04 112.252 109.094 112.506L109.235 111.923ZM110.542 112.148C110.162 112.105 109.724 112.03 109.229 111.922L109.1 112.508C109.61 112.62 110.069 112.699 110.476 112.744L110.542 112.148ZM111.886 112.212C111.392 112.212 110.943 112.19 110.54 112.148L110.477 112.744C110.905 112.79 111.375 112.812 111.886 112.812V112.212ZM114.673 111.263C114.165 111.869 113.267 112.212 111.886 112.212V112.812C113.347 112.812 114.46 112.451 115.133 111.649L114.673 111.263ZM115.488 107.958C115.488 109.564 115.194 110.641 114.673 111.263L115.133 111.649C115.792 110.862 116.088 109.607 116.088 107.958H115.488ZM115.488 107.331V107.958H116.088V107.331H115.488ZM113.859 108.48C114.695 108.276 115.399 107.977 115.962 107.575L115.614 107.086C115.128 107.433 114.499 107.706 113.717 107.897L113.859 108.48ZM111.099 108.786C112.124 108.786 113.045 108.685 113.861 108.48L113.715 107.898C112.957 108.089 112.086 108.186 111.099 108.186V108.786ZM105.121 106.459C106.754 108.011 108.753 108.786 111.099 108.786V108.186C108.899 108.186 107.05 107.465 105.535 106.024L105.121 106.459ZM102.7 99.8396C102.7 102.648 103.494 104.868 105.118 106.456L105.538 106.027C104.058 104.58 103.3 102.532 103.3 99.8396H102.7ZM105.376 93.0293C103.59 94.8496 102.7 97.127 102.7 99.8396H103.3C103.3 97.2719 104.137 95.1492 105.805 93.4495L105.376 93.0293ZM112.312 90.2993C109.488 90.2993 107.166 91.2048 105.376 93.0293L105.805 93.4495C107.468 91.7539 109.628 90.8993 112.312 90.8993V90.2993ZM118.376 92.4825C116.658 91.0269 114.632 90.2993 112.312 90.2993V90.8993C114.495 90.8993 116.383 91.5798 117.988 92.9402L118.376 92.4825ZM120.974 98.8825C120.974 96.1116 120.12 93.961 118.376 92.4825L117.988 92.9402C119.566 94.2778 120.374 96.2414 120.374 98.8825H120.974ZM114.362 102.571C113.675 103.547 112.75 104.028 111.558 104.028V104.628C112.946 104.628 114.054 104.052 114.853 102.916L114.362 102.571ZM115.455 98.8495C115.455 100.315 115.087 101.55 114.363 102.57L114.852 102.917C115.658 101.781 116.055 100.42 116.055 98.8495H115.455ZM114.765 96.0981C115.208 96.6591 115.455 97.5579 115.455 98.8495H116.055C116.055 97.5011 115.8 96.4418 115.237 95.7268L114.765 96.0981ZM112.486 95.0896C113.595 95.1738 114.33 95.5263 114.762 96.0942L115.24 95.7307C114.667 94.9786 113.74 94.5831 112.532 94.4913L112.486 95.0896ZM109.664 96.0335C110.429 95.324 111.362 95.0073 112.487 95.0896L112.531 94.4912C111.252 94.3976 110.152 94.7629 109.256 95.5934L109.664 96.0335ZM108.182 99.2235C108.394 97.7956 108.897 96.7442 109.664 96.0335L109.256 95.5934C108.361 96.4227 107.814 97.6154 107.589 99.1355L108.182 99.2235ZM108.792 102.711C108.209 101.82 107.993 100.666 108.183 99.2187L107.588 99.1404C107.385 100.686 107.607 101.996 108.291 103.04L108.792 102.711ZM111.558 104.028C110.284 104.028 109.38 103.579 108.79 102.707L108.293 103.044C109.014 104.108 110.122 104.628 111.558 104.628V104.028ZM131.691 90.9982C133.073 90.9982 133.861 91.3729 134.217 92.0014L134.739 91.7051C134.222 90.7936 133.151 90.3982 131.691 90.3982V90.9982ZM126.859 93.1489C128.227 91.7084 129.833 90.9982 131.691 90.9982V90.3982C129.658 90.3982 127.898 91.184 126.424 92.7357L126.859 93.1489ZM124.843 99.2454C124.843 96.5904 125.528 94.5717 126.861 93.1472L126.422 92.7374C124.956 94.3049 124.243 96.4884 124.243 99.2454H124.843ZM124.843 107.661V99.2454H124.243V107.661H124.843ZM125.36 108.488C124.975 108.162 124.843 107.886 124.843 107.661H124.243C124.243 108.14 124.526 108.568 124.972 108.946L125.36 108.488ZM127.002 108.945C126.257 108.945 125.72 108.778 125.354 108.483L124.978 108.95C125.486 109.36 126.174 109.545 127.002 109.545V108.945ZM128.644 108.488C128.304 108.776 127.773 108.945 127.002 108.945V109.545C127.849 109.545 128.542 109.361 129.032 108.946L128.644 108.488ZM129.161 107.661C129.161 107.886 129.029 108.162 128.644 108.488L129.032 108.946C129.478 108.568 129.761 108.14 129.761 107.661H129.161ZM129.161 100.268V107.661H129.761V100.268H129.161ZM130.539 95.0627C130.053 95.5022 129.712 96.1729 129.491 97.0341C129.269 97.8977 129.161 98.9782 129.161 100.268H129.761C129.761 99.0066 129.867 97.9806 130.072 97.1832C130.277 96.3833 130.575 95.8385 130.941 95.508L130.539 95.0627ZM134.842 93.8303C132.931 93.808 131.471 94.1969 130.536 95.0656L130.944 95.5051C131.714 94.7897 132.987 94.4087 134.835 94.4303L134.842 93.8303ZM134.221 92.0069C134.644 92.7171 134.743 93.3905 134.551 94.0462L135.127 94.2145C135.372 93.3741 135.231 92.5294 134.736 91.6996L134.221 92.0069Z" fill="#1D1F29" mask="url(#path-5-inside-2_5399_63101)"/>
</g>
<defs>
<linearGradient id="paint0_linear_5399_63101" x1="261" y1="36.5" x2="227.897" y2="169.951" gradientUnits="userSpaceOnUse">
<stop stop-color="#9197C6"/>
<stop offset="1" stop-color="#575B75" stop-opacity="0"/>
</linearGradient>
<clipPath id="clip0_5399_63101">
<rect width="375" height="491" fill="white" transform="translate(0.25)"/>
</clipPath>
</defs>
</svg>
