<svg width="68" height="66" viewBox="0 0 68 66" fill="none" xmlns="http://www.w3.org/2000/svg">
<rect x="9.86719" y="35.6172" width="51.2407" height="22.1916" fill="url(#paint0_linear_4890_85908)"/>
<path opacity="0.4" d="M25.3313 52.7653C24.2216 51.7355 19.0597 51.346 16.9146 51.7751C15.3545 52.043 10.281 55.6368 10.776 58.4093C11.2711 61.1819 16.2221 58.6074 19.4897 58.4093C22.7573 58.2113 28.5995 58.5877 32.0651 58.4887C35.5308 58.3897 35.8278 54.924 32.0651 54.2309C28.3024 53.5378 26.7183 54.0525 25.3313 52.7653Z" fill="white"/>
<path opacity="0.4" d="M47.7057 43.1949C50.9798 40.1565 52.9255 42.1228 55.0705 42.5519C56.6307 42.8199 66.3205 42.6652 65.8254 45.4377C65.3303 48.2103 61.5215 48.3468 58.2539 48.1487C54.9863 47.9507 49.119 47.7992 45.6785 48.2281C41.0429 48.8061 38.9933 46.1309 42.756 45.4377C46.5187 44.7446 46.3186 44.4821 47.7057 43.1949Z" fill="white"/>
<rect x="10.8516" y="57.0872" width="46.3137" height="8.51277" rx="3" fill="url(#paint1_linear_4890_85908)"/>
<mask id="path-5-inside-1_4890_85908" fill="white">
<path fill-rule="evenodd" clip-rule="evenodd" d="M34.3722 10C15.9524 10 1 24.9322 1 43.352V60.6308C1 63.3752 3.22478 65.6 5.96918 65.6H62.0308C64.7752 65.6 67 63.3752 67 60.6308V42.608C67 24.5991 52.3811 10 34.3722 10ZM34.3996 37.6381C23.4644 37.6381 14.5996 46.5028 14.5996 57.4381V65.1C14.5996 65.3761 14.8235 65.6 15.0996 65.6H53.6996C53.9758 65.6 54.1996 65.3761 54.1996 65.1V57.4381C54.1996 46.5028 45.3348 37.6381 34.3996 37.6381Z"/>
</mask>
<path fill-rule="evenodd" clip-rule="evenodd" d="M34.3722 10C15.9524 10 1 24.9322 1 43.352V60.6308C1 63.3752 3.22478 65.6 5.96918 65.6H62.0308C64.7752 65.6 67 63.3752 67 60.6308V42.608C67 24.5991 52.3811 10 34.3722 10ZM34.3996 37.6381C23.4644 37.6381 14.5996 46.5028 14.5996 57.4381V65.1C14.5996 65.3761 14.8235 65.6 15.0996 65.6H53.6996C53.9758 65.6 54.1996 65.3761 54.1996 65.1V57.4381C54.1996 46.5028 45.3348 37.6381 34.3996 37.6381Z" fill="url(#paint2_linear_4890_85908)"/>
<path d="M1.5 43.352C1.5 25.2088 16.2282 10.5 34.3722 10.5V9.5C15.6767 9.5 0.5 24.6557 0.5 43.352H1.5ZM1.5 60.6308V43.352H0.5V60.6308H1.5ZM5.96918 65.1C3.50092 65.1 1.5 63.0991 1.5 60.6308H0.5C0.5 63.6514 2.94864 66.1 5.96918 66.1V65.1ZM62.0308 65.1H5.96918V66.1H62.0308V65.1ZM66.5 60.6308C66.5 63.0991 64.4991 65.1 62.0308 65.1V66.1C65.0514 66.1 67.5 63.6514 67.5 60.6308H66.5ZM66.5 42.608V60.6308H67.5V42.608H66.5ZM34.3722 10.5C52.1054 10.5 66.5 24.8756 66.5 42.608H67.5C67.5 24.3226 52.6569 9.5 34.3722 9.5V10.5ZM15.0996 57.4381C15.0996 46.779 23.7405 38.1381 34.3996 38.1381V37.1381C23.1882 37.1381 14.0996 46.2267 14.0996 57.4381H15.0996ZM15.0996 65.1V57.4381H14.0996V65.1H15.0996ZM53.6996 65.1H15.0996V66.1H53.6996V65.1ZM53.6996 57.4381V65.1H54.6996V57.4381H53.6996ZM34.3996 38.1381C45.0587 38.1381 53.6996 46.779 53.6996 57.4381H54.6996C54.6996 46.2267 45.611 37.1381 34.3996 37.1381V38.1381ZM53.6996 66.1C54.2519 66.1 54.6996 65.6523 54.6996 65.1H53.6996V66.1ZM14.0996 65.1C14.0996 65.6523 14.5473 66.1 15.0996 66.1V65.1H15.0996H14.0996Z" fill="url(#paint3_linear_4890_85908)" mask="url(#path-5-inside-1_4890_85908)"/>
<path d="M13.1359 57.4172C13.1359 45.6725 22.6569 36.1516 34.4016 36.1516C46.1462 36.1516 55.6672 45.6725 55.6672 57.4172V65.0657H13.1359V57.4172Z" stroke="url(#paint4_linear_4890_85908)" stroke-width="1.06873"/>
<path d="M33.9576 14.4722C10.0943 14.4722 2.04282 34.653 1 43.2C1 24.8641 16.1597 10 34.4956 10C52.2889 10 67 24.4243 67 42.2176V43.2C65.9289 34.653 57.8209 14.4722 33.9576 14.4722Z" fill="url(#paint5_linear_4890_85908)"/>
<defs>
<linearGradient id="paint0_linear_4890_85908" x1="38.4437" y1="33.9734" x2="41.6872" y2="57.9713" gradientUnits="userSpaceOnUse">
<stop stop-color="#FFE897"/>
<stop offset="1" stop-color="#FF9FB6"/>
</linearGradient>
<linearGradient id="paint1_linear_4890_85908" x1="47.7043" y1="56.8713" x2="15.6996" y2="70.7876" gradientUnits="userSpaceOnUse">
<stop stop-color="#9EC8F8"/>
<stop offset="1" stop-color="#99DCE0"/>
</linearGradient>
<linearGradient id="paint2_linear_4890_85908" x1="34" y1="10" x2="34" y2="65.6" gradientUnits="userSpaceOnUse">
<stop stop-color="#36394F"/>
<stop offset="1" stop-color="#1D1F29"/>
</linearGradient>
<linearGradient id="paint3_linear_4890_85908" x1="34" y1="10" x2="34" y2="65.6" gradientUnits="userSpaceOnUse">
<stop stop-color="#36394F"/>
<stop offset="0.701067" stop-color="#36394F" stop-opacity="0"/>
<stop offset="1" stop-color="#16171F"/>
</linearGradient>
<linearGradient id="paint4_linear_4890_85908" x1="42.1486" y1="35.6172" x2="36.1361" y2="58.227" gradientUnits="userSpaceOnUse">
<stop stop-color="#9197C6"/>
<stop offset="1" stop-color="#575B75" stop-opacity="0"/>
</linearGradient>
<linearGradient id="paint5_linear_4890_85908" x1="34" y1="10" x2="21.2346" y2="33.3387" gradientUnits="userSpaceOnUse">
<stop stop-color="#565A78"/>
<stop offset="1" stop-color="#565A78" stop-opacity="0"/>
</linearGradient>
</defs>
</svg>
