<svg width="168" height="151" viewBox="0 0 168 151" fill="none" xmlns="http://www.w3.org/2000/svg">
<path d="M13.0133 138.18H10.8683V145.05H9.72826V131.94H10.8683V137.22H13.0133V138.18ZM0.968262 137.55C0.968262 134.79 2.19826 132.93 4.32826 132.93C6.45826 132.93 7.67326 134.79 7.67326 137.565C7.67326 140.34 6.45826 142.2 4.32826 142.2C2.19826 142.2 0.968262 140.34 0.968262 137.55ZM6.56326 137.565C6.56326 135.405 5.69326 133.92 4.32826 133.92C2.96326 133.92 2.07826 135.405 2.07826 137.565C2.07826 139.71 2.96326 141.21 4.32826 141.21C5.69326 141.21 6.56326 139.71 6.56326 137.565ZM14.2768 133.875V132.915H21.4918V133.875H18.4168C18.4168 134.115 18.4168 134.4 18.4318 134.565C18.5218 136.245 20.1268 137.685 21.6118 138.18L20.9818 139.095C19.7218 138.585 18.3568 137.4 17.8168 136.215C17.4718 137.445 15.9418 138.9 14.5318 139.5L13.8718 138.615C15.5218 137.985 17.1718 136.29 17.2468 134.55C17.2618 134.4 17.2618 134.1 17.2618 133.875H14.2768ZM15.7168 140.415H24.4768V145.05H23.3368V141.36H15.7168V140.415ZM24.4768 139.725H23.3368V131.955H24.4768V139.725ZM37.3457 139.17H31.1357V133.095H37.3457V139.17ZM36.2057 138.225V134.04H32.2757V138.225H36.2057ZM42.7607 136.815H40.7657V141.465H39.6257V131.94H40.7657V135.855H42.7607V136.815ZM41.2757 144.6H32.5607V140.565H33.7007V143.655H41.2757V144.6ZM55.4992 138.48H43.6642V137.565H55.4992V138.48ZM54.3742 144.825H45.0592V141.72H52.8292V140.505H45.0442V139.605H53.9692V142.56H46.1992V143.925H54.3742V144.825ZM54.1642 136.47H45.1042V132.525H54.0142V133.455H46.2592V135.555H54.1642V136.47ZM56.8078 137.49C56.8078 134.715 58.0078 132.855 60.1228 132.855C62.1028 132.855 63.2578 134.49 63.4078 136.98H66.2128V131.94H67.3528V145.05H66.2128V137.955H63.4078C63.2878 140.475 62.1178 142.125 60.1228 142.125C58.0078 142.125 56.8078 140.28 56.8078 137.49ZM62.2978 137.505C62.2978 135.345 61.4128 133.845 60.1228 133.845C58.8178 133.845 57.9478 135.345 57.9478 137.505C57.9478 139.635 58.8178 141.135 60.1228 141.135C61.4128 141.135 62.2978 139.635 62.2978 137.505ZM70.1763 134.115V133.155H77.3163V134.115H74.3163C74.3163 134.67 74.3163 134.925 74.3313 135.12C74.4213 136.8 76.0713 138.27 77.5713 138.765L76.9263 139.68C75.6813 139.17 74.2563 137.94 73.7163 136.755C73.3713 137.985 71.8413 139.41 70.4313 140.025L69.7713 139.14C71.4213 138.495 73.0413 136.83 73.1463 135.105C73.1613 134.925 73.1613 134.67 73.1613 134.115H70.1763ZM80.6163 144.705H71.8713V140.625H73.0113V143.76H80.6163V144.705ZM80.3313 141.465H79.1913V131.94H80.3313V141.465ZM96.9652 142.755C96.9652 144.225 95.3302 145.05 92.4502 145.05C89.5852 145.05 87.9652 144.21 87.9652 142.755C87.9652 141.33 89.5852 140.475 92.4502 140.475C95.3302 140.475 96.9652 141.27 96.9652 142.755ZM96.9502 136.905H93.0202V138.57H98.3752V139.515H86.5402V138.57H91.8802V136.905H87.9802V132.57H96.8902V133.515H89.1352V135.96H96.9502V136.905ZM92.4502 141.405C90.3952 141.405 89.1352 141.915 89.1352 142.755C89.1352 143.625 90.3952 144.105 92.4502 144.105C94.5352 144.105 95.7952 143.625 95.7952 142.755C95.7952 141.915 94.5352 141.405 92.4502 141.405ZM109.764 132.57C109.764 134.4 109.659 135.585 109.404 136.74H111.354V137.67H105.999V139.455H109.794V142.59H102.129V143.94H110.304V144.87H100.989V141.72H108.654V140.385H100.899V139.455H104.859V137.67H99.5187V136.74H108.264C108.489 135.825 108.594 134.88 108.594 133.515H101.079V132.57H109.764ZM123.282 145.05H122.142V131.94H123.282V145.05ZM112.932 137.55C112.932 134.79 114.162 132.93 116.307 132.93C118.482 132.93 119.697 134.79 119.697 137.565C119.697 140.34 118.482 142.2 116.307 142.2C114.162 142.2 112.932 140.34 112.932 137.55ZM118.617 137.565C118.617 135.405 117.702 133.92 116.307 133.92C114.927 133.92 114.012 135.405 114.012 137.565C114.012 139.71 114.927 141.21 116.307 141.21C117.702 141.21 118.617 139.71 118.617 137.565ZM140.126 138.99H138.986V136.005H136.781V135.06H138.986V131.94H140.126V138.99ZM141.416 144.195L140.741 145.035C139.781 144.48 138.821 143.475 138.536 142.59C138.296 143.46 137.411 144.54 136.376 145.095L135.746 144.255C137.231 143.58 137.996 142.14 137.996 140.745V139.635H139.106V140.745C139.106 142.17 140.006 143.52 141.416 144.195ZM135.431 144.87H130.961V139.785H132.041V141.42H134.351V139.785H135.431V144.87ZM134.351 143.97V142.29H132.041V143.97H134.351ZM132.896 132.585C134.741 132.585 136.256 133.785 136.256 135.645C136.256 137.52 134.741 138.69 132.896 138.69C131.066 138.69 129.521 137.52 129.521 135.66C129.521 133.815 131.051 132.585 132.896 132.585ZM132.896 133.575C131.606 133.575 130.661 134.415 130.661 135.645C130.661 136.905 131.606 137.745 132.896 137.745C134.231 137.745 135.116 136.905 135.116 135.66C135.116 134.43 134.246 133.575 132.896 133.575ZM142.56 137.49C142.56 134.715 143.76 132.855 145.875 132.855C147.855 132.855 149.01 134.49 149.16 136.98H151.965V131.94H153.105V145.05H151.965V137.955H149.16C149.04 140.475 147.87 142.125 145.875 142.125C143.76 142.125 142.56 140.28 142.56 137.49ZM148.05 137.505C148.05 135.345 147.165 133.845 145.875 133.845C144.57 133.845 143.7 135.345 143.7 137.505C143.7 139.635 144.57 141.135 145.875 141.135C147.165 141.135 148.05 139.635 148.05 137.505ZM166.008 136.215C166.008 138.24 164.118 139.59 161.268 139.59C158.448 139.59 156.558 138.24 156.558 136.215C156.558 134.19 158.448 132.81 161.268 132.81C164.133 132.81 166.008 134.19 166.008 136.215ZM164.913 136.215C164.913 134.745 163.473 133.755 161.268 133.755C159.093 133.755 157.653 134.745 157.653 136.215C157.653 137.685 159.093 138.675 161.268 138.675C163.458 138.675 164.913 137.685 164.913 136.215ZM167.208 143.385H155.373V142.425H158.298V139.98L159.438 139.95V142.425H163.098V139.95L164.238 139.98V142.425H167.208V143.385Z" fill="#9093A8"/>
<path d="M138.652 77.2316V109.278C138.652 113.903 134.903 117.652 130.278 117.652H31.7216C27.0972 117.652 23.3484 113.903 23.3484 109.278V78.5374C23.3484 46.4014 49.5164 20.3484 81.6542 20.3484C113.071 20.3484 138.652 45.8168 138.652 77.2316Z" fill="#36394F" stroke="url(#paint0_linear_210_2632)" stroke-width="0.696767"/>
<path d="M80.9255 27.8826C38.9839 27.8826 24.8328 63.453 23 78.518C23 46.1994 49.635 20 81.9536 20C113.227 20 139 45.3518 139 76.6248V78.518C137.117 63.453 122.867 27.8826 80.9255 27.8826Z" fill="url(#paint1_linear_210_2632)"/>
<path d="M46.9062 109.792C46.9062 90.5727 62.4867 74.9922 81.7062 74.9922V74.9922C100.926 74.9922 116.506 90.5727 116.506 109.792V117.999H46.9062V109.792Z" fill="url(#paint2_linear_210_2632)"/>
<path d="M119.08 109.783V117.062H44.3255V109.783C44.3255 89.14 61.0599 72.4057 81.7028 72.4057C102.346 72.4057 119.08 89.14 119.08 109.783Z" stroke="url(#paint3_linear_210_2632)" stroke-width="1.87577"/>
<circle cx="62" cy="2" r="2" fill="#6B6E82"/>
<circle cx="82" cy="2" r="2" fill="#6B6E82"/>
<circle cx="102" cy="2" r="2" fill="#6B6E82"/>
<defs>
<linearGradient id="paint0_linear_210_2632" x1="81" y1="20" x2="81" y2="118" gradientUnits="userSpaceOnUse">
<stop stop-color="#36394F"/>
<stop offset="0.853351" stop-color="#36394F" stop-opacity="0"/>
<stop offset="1" stop-color="#16171F"/>
</linearGradient>
<linearGradient id="paint1_linear_210_2632" x1="81" y1="20" x2="58.4653" y2="61.0825" gradientUnits="userSpaceOnUse">
<stop stop-color="#3E425A"/>
<stop offset="1" stop-color="#43465B" stop-opacity="0"/>
</linearGradient>
<linearGradient id="paint2_linear_210_2632" x1="81.7057" y1="74.9922" x2="81.3746" y2="117.997" gradientUnits="userSpaceOnUse">
<stop stop-color="#2E3144"/>
<stop offset="0.661458" stop-color="#303344"/>
<stop offset="1" stop-color="#2A2C38"/>
</linearGradient>
<linearGradient id="paint3_linear_210_2632" x1="95.3187" y1="71.4678" x2="86.9576" y2="107.075" gradientUnits="userSpaceOnUse">
<stop stop-color="#4F5478"/>
<stop offset="1" stop-color="#282A37" stop-opacity="0"/>
</linearGradient>
</defs>
</svg>
