<svg width="68" height="66" viewBox="0 0 68 66" fill="none" xmlns="http://www.w3.org/2000/svg">
<rect x="2.96875" y="36.6729" width="57.1531" height="20.136" rx="10.068" fill="url(#paint0_linear_4890_85897)"/>
<ellipse opacity="0.3" cx="47.8189" cy="54.9801" rx="10.6587" ry="10.7804" fill="#FF916E"/>
<ellipse opacity="0.4" cx="47.8194" cy="54.9802" rx="9.59287" ry="9.70236" fill="#FF916E"/>
<ellipse cx="47.8205" cy="54.9799" rx="7.46112" ry="7.54628" fill="#FF916E"/>
<rect x="7.89844" y="56.8086" width="50.2553" height="8.9698" fill="url(#paint1_linear_4890_85897)"/>
<mask id="path-6-inside-1_4890_85897" fill="white">
<path fill-rule="evenodd" clip-rule="evenodd" d="M34.3722 10.1785C15.9524 10.1785 1 25.1107 1 43.5305V60.8093C1 63.5537 3.22478 65.7785 5.96918 65.7785H62.0308C64.7752 65.7785 67 63.5537 67 60.8093V42.7865C67 24.7776 52.3811 10.1785 34.3722 10.1785ZM34.3996 37.8165C23.4644 37.8165 14.5996 46.6813 14.5996 57.6165V65.2784C14.5996 65.5546 14.8235 65.7784 15.0996 65.7784H53.6996C53.9758 65.7784 54.1996 65.5546 54.1996 65.2784V57.6165C54.1996 46.6813 45.3348 37.8165 34.3996 37.8165Z"/>
</mask>
<path fill-rule="evenodd" clip-rule="evenodd" d="M34.3722 10.1785C15.9524 10.1785 1 25.1107 1 43.5305V60.8093C1 63.5537 3.22478 65.7785 5.96918 65.7785H62.0308C64.7752 65.7785 67 63.5537 67 60.8093V42.7865C67 24.7776 52.3811 10.1785 34.3722 10.1785ZM34.3996 37.8165C23.4644 37.8165 14.5996 46.6813 14.5996 57.6165V65.2784C14.5996 65.5546 14.8235 65.7784 15.0996 65.7784H53.6996C53.9758 65.7784 54.1996 65.5546 54.1996 65.2784V57.6165C54.1996 46.6813 45.3348 37.8165 34.3996 37.8165Z" fill="url(#paint2_linear_4890_85897)"/>
<path d="M1.5 43.5305C1.5 25.3872 16.2282 10.6785 34.3722 10.6785V9.67847C15.6767 9.67847 0.5 24.8341 0.5 43.5305H1.5ZM1.5 60.8093V43.5305H0.5V60.8093H1.5ZM5.96918 65.2785C3.50092 65.2785 1.5 63.2775 1.5 60.8093H0.5C0.5 63.8298 2.94864 66.2785 5.96918 66.2785V65.2785ZM62.0308 65.2785H5.96918V66.2785H62.0308V65.2785ZM66.5 60.8093C66.5 63.2775 64.4991 65.2785 62.0308 65.2785V66.2785C65.0514 66.2785 67.5 63.8298 67.5 60.8093H66.5ZM66.5 42.7865V60.8093H67.5V42.7865H66.5ZM34.3722 10.6785C52.1054 10.6785 66.5 25.0541 66.5 42.7865H67.5C67.5 24.501 52.6569 9.67847 34.3722 9.67847V10.6785ZM15.0996 57.6165C15.0996 46.9574 23.7405 38.3165 34.3996 38.3165V37.3165C23.1882 37.3165 14.0996 46.4051 14.0996 57.6165H15.0996ZM15.0996 65.2784V57.6165H14.0996V65.2784H15.0996ZM53.6996 65.2784H15.0996V66.2784H53.6996V65.2784ZM53.6996 57.6165V65.2784H54.6996V57.6165H53.6996ZM34.3996 38.3165C45.0587 38.3165 53.6996 46.9574 53.6996 57.6165H54.6996C54.6996 46.4051 45.611 37.3165 34.3996 37.3165V38.3165ZM53.6996 66.2784C54.2519 66.2784 54.6996 65.8307 54.6996 65.2784H53.6996V66.2784ZM14.0996 65.2784C14.0996 65.8307 14.5473 66.2784 15.0996 66.2784V65.2784H15.0996H14.0996Z" fill="url(#paint3_linear_4890_85897)" mask="url(#path-6-inside-1_4890_85897)"/>
<path d="M13.1359 57.5956C13.1359 45.851 22.6569 36.33 34.4016 36.33C46.1462 36.33 55.6672 45.851 55.6672 57.5956V65.2442H13.1359V57.5956Z" stroke="url(#paint4_linear_4890_85897)" stroke-width="1.06873"/>
<path d="M33.9576 14.6507C10.0943 14.6507 2.04282 34.8314 1 43.3785C1 25.0426 16.1597 10.1785 34.4956 10.1785C52.2889 10.1785 67 24.6028 67 42.396V43.3785C65.9289 34.8314 57.8209 14.6507 33.9576 14.6507Z" fill="url(#paint5_linear_4890_85897)"/>
<defs>
<linearGradient id="paint0_linear_4890_85897" x1="38.5307" y1="39.4187" x2="39.1911" y2="56.8319" gradientUnits="userSpaceOnUse">
<stop stop-color="#FDA777"/>
<stop offset="1" stop-color="#E8FFC2"/>
</linearGradient>
<linearGradient id="paint1_linear_4890_85897" x1="17.7714" y1="62.1095" x2="44.7184" y2="52.393" gradientUnits="userSpaceOnUse">
<stop stop-color="#71EFD1"/>
<stop offset="1" stop-color="#1DBFD6"/>
</linearGradient>
<linearGradient id="paint2_linear_4890_85897" x1="34" y1="10.1785" x2="34" y2="65.7785" gradientUnits="userSpaceOnUse">
<stop stop-color="#36394F"/>
<stop offset="1" stop-color="#1D1F29"/>
</linearGradient>
<linearGradient id="paint3_linear_4890_85897" x1="34" y1="10.1785" x2="34" y2="65.7785" gradientUnits="userSpaceOnUse">
<stop stop-color="#36394F"/>
<stop offset="0.701067" stop-color="#36394F" stop-opacity="0"/>
<stop offset="1" stop-color="#16171F"/>
</linearGradient>
<linearGradient id="paint4_linear_4890_85897" x1="42.1486" y1="35.7957" x2="36.1361" y2="58.4054" gradientUnits="userSpaceOnUse">
<stop stop-color="#9197C6"/>
<stop offset="1" stop-color="#575B75" stop-opacity="0"/>
</linearGradient>
<linearGradient id="paint5_linear_4890_85897" x1="34" y1="10.1785" x2="21.2346" y2="33.5172" gradientUnits="userSpaceOnUse">
<stop stop-color="#565A78"/>
<stop offset="1" stop-color="#565A78" stop-opacity="0"/>
</linearGradient>
</defs>
</svg>
