<svg width="82" height="82" viewBox="0 0 82 82" fill="none" xmlns="http://www.w3.org/2000/svg">
<rect width="82" height="82" fill="#15171E"/>
<path d="M56.3996 18C58.9671 18.0002 61.4733 18.7285 63.5827 20.0876C65.6921 21.4466 67.304 23.3715 68.2027 25.6045C69.1015 27.8375 69.2441 30.2722 68.6116 32.5825C67.979 34.8929 66.6015 36.9687 64.6633 38.5322C65.6833 41.1165 66.2038 43.8477 66.2006 46.6C66.2006 49.6729 65.5488 52.7158 64.2822 55.5548C63.0157 58.3938 61.1593 60.9734 58.819 63.1463C56.4787 65.3192 53.7004 67.0428 50.6427 68.2188C47.5849 69.3947 44.3077 70 40.998 70C37.6884 70 34.4111 69.3947 31.3534 68.2188C28.2957 67.0428 25.5174 65.3192 23.1771 63.1463C20.8368 60.9734 18.9804 58.3938 17.7139 55.5548C16.4473 52.7158 15.7954 49.6729 15.7954 46.6C15.7954 43.766 16.3387 41.0464 17.3356 38.5322C15.9637 37.4253 14.8659 36.0559 14.1176 34.518C13.3693 32.9802 12.9881 31.3102 13.0003 29.6227C13.0124 27.9352 13.4176 26.2701 14.188 24.7417C14.9584 23.2133 16.0757 21.8576 17.4634 20.7678C18.8511 19.678 20.4763 18.8798 22.2275 18.428C23.9787 17.9762 25.8144 17.8815 27.6087 18.1503C29.403 18.4191 31.1135 19.0452 32.6227 19.9855C34.132 20.9258 35.4043 22.158 36.3524 23.5978C39.4248 23.0655 42.5769 23.0655 45.6493 23.5978C46.7737 21.8871 48.3532 20.4736 50.2358 19.4933C52.1185 18.5129 54.2411 17.9987 56.3996 18Z" fill="#23B877"/>
<path d="M32 49C32.8571 50 34.8286 52 41 52C47.1714 52 49 50 50 49" stroke="#1D1F29" stroke-width="1.5" stroke-linecap="round"/>
<path d="M37.3668 46.6402L38.6953 48.2344C39.8947 49.6737 42.1053 49.6737 43.3047 48.2344L44.6332 46.6402C45.176 45.9889 44.7128 45 43.865 45H38.135C37.2872 45 36.824 45.9889 37.3668 46.6402Z" fill="#1D1F29"/>
<path d="M41 49V52" stroke="#1D1F29" stroke-width="1.5"/>
<ellipse cx="35.5" cy="41" rx="1.5" ry="2" fill="#1D1F29"/>
<ellipse cx="45.5" cy="41" rx="1.5" ry="2" fill="#1D1F29"/>
</svg>
