<svg width="68" height="66" viewBox="0 0 68 66" fill="none" xmlns="http://www.w3.org/2000/svg">
<g filter="url(#filter0_d_4890_85885)">
<rect x="11.6562" y="31.1851" width="47.9644" height="26.951" fill="url(#paint0_linear_4890_85885)"/>
<ellipse opacity="0.3" cx="19.9177" cy="55.3835" rx="10.1013" ry="10.2166" fill="#FDFFF4"/>
<ellipse opacity="0.4" cx="19.9154" cy="55.3834" rx="9.09114" ry="9.1949" fill="#FDFFF4"/>
<ellipse cx="19.9185" cy="55.3833" rx="7.07088" ry="7.15159" fill="#FDFFF4"/>
<rect x="8.88281" y="57.2385" width="51.8027" height="8.36134" fill="url(#paint1_linear_4890_85885)"/>
<mask id="path-6-inside-1_4890_85885" fill="white">
<path fill-rule="evenodd" clip-rule="evenodd" d="M34.3722 10C15.9524 10 1 24.9322 1 43.352V60.6308C1 63.3752 3.22478 65.6 5.96918 65.6H62.0308C64.7752 65.6 67 63.3752 67 60.6308V42.608C67 24.5991 52.3811 10 34.3722 10ZM34.3996 37.6381C23.4644 37.6381 14.5996 46.5028 14.5996 57.4381V65.1C14.5996 65.3761 14.8235 65.6 15.0996 65.6H53.6996C53.9758 65.6 54.1996 65.3761 54.1996 65.1V57.4381C54.1996 46.5028 45.3348 37.6381 34.3996 37.6381Z"/>
</mask>
<path fill-rule="evenodd" clip-rule="evenodd" d="M34.3722 10C15.9524 10 1 24.9322 1 43.352V60.6308C1 63.3752 3.22478 65.6 5.96918 65.6H62.0308C64.7752 65.6 67 63.3752 67 60.6308V42.608C67 24.5991 52.3811 10 34.3722 10ZM34.3996 37.6381C23.4644 37.6381 14.5996 46.5028 14.5996 57.4381V65.1C14.5996 65.3761 14.8235 65.6 15.0996 65.6H53.6996C53.9758 65.6 54.1996 65.3761 54.1996 65.1V57.4381C54.1996 46.5028 45.3348 37.6381 34.3996 37.6381Z" fill="url(#paint2_linear_4890_85885)"/>
<path d="M1.5 43.352C1.5 25.2088 16.2282 10.5 34.3722 10.5V9.5C15.6767 9.5 0.5 24.6557 0.5 43.352H1.5ZM1.5 60.6308V43.352H0.5V60.6308H1.5ZM5.96918 65.1C3.50092 65.1 1.5 63.0991 1.5 60.6308H0.5C0.5 63.6514 2.94864 66.1 5.96918 66.1V65.1ZM62.0308 65.1H5.96918V66.1H62.0308V65.1ZM66.5 60.6308C66.5 63.0991 64.4991 65.1 62.0308 65.1V66.1C65.0514 66.1 67.5 63.6514 67.5 60.6308H66.5ZM66.5 42.608V60.6308H67.5V42.608H66.5ZM34.3722 10.5C52.1054 10.5 66.5 24.8756 66.5 42.608H67.5C67.5 24.3226 52.6569 9.5 34.3722 9.5V10.5ZM15.0996 57.4381C15.0996 46.779 23.7405 38.1381 34.3996 38.1381V37.1381C23.1882 37.1381 14.0996 46.2267 14.0996 57.4381H15.0996ZM15.0996 65.1V57.4381H14.0996V65.1H15.0996ZM53.6996 65.1H15.0996V66.1H53.6996V65.1ZM53.6996 57.4381V65.1H54.6996V57.4381H53.6996ZM34.3996 38.1381C45.0587 38.1381 53.6996 46.779 53.6996 57.4381H54.6996C54.6996 46.2267 45.611 37.1381 34.3996 37.1381V38.1381ZM53.6996 66.1C54.2519 66.1 54.6996 65.6523 54.6996 65.1H53.6996V66.1ZM14.0996 65.1C14.0996 65.6523 14.5473 66.1 15.0996 66.1V65.1H15.0996H14.0996Z" fill="url(#paint3_linear_4890_85885)" mask="url(#path-6-inside-1_4890_85885)"/>
<path d="M13.1359 57.4172C13.1359 45.6725 22.6569 36.1516 34.4016 36.1516C46.1462 36.1516 55.6672 45.6725 55.6672 57.4172V65.0657H13.1359V57.4172Z" stroke="url(#paint4_linear_4890_85885)" stroke-width="1.06873"/>
<path d="M33.9576 14.4722C10.0943 14.4722 2.04282 34.653 1 43.2C1 24.8641 16.1597 10 34.4956 10C52.2889 10 67 24.4243 67 42.2176V43.2C65.9289 34.653 57.8209 14.4722 33.9576 14.4722Z" fill="url(#paint5_linear_4890_85885)"/>
</g>
<defs>
<filter id="filter0_d_4890_85885" x="0" y="-1" width="68" height="67" filterUnits="userSpaceOnUse" color-interpolation-filters="sRGB">
<feFlood flood-opacity="0" result="BackgroundImageFix"/>
<feColorMatrix in="SourceAlpha" type="matrix" values="0 0 0 0 0 0 0 0 0 0 0 0 0 0 0 0 0 0 127 0" result="hardAlpha"/>
<feOffset dy="-1"/>
<feComposite in2="hardAlpha" operator="out"/>
<feColorMatrix type="matrix" values="0 0 0 0 1 0 0 0 0 1 0 0 0 0 1 0 0 0 1 0"/>
<feBlend mode="normal" in2="BackgroundImageFix" result="effect1_dropShadow_4890_85885"/>
<feBlend mode="normal" in="SourceGraphic" in2="effect1_dropShadow_4890_85885" result="shape"/>
</filter>
<linearGradient id="paint0_linear_4890_85885" x1="41.5007" y1="34.8602" x2="42.9075" y2="58.1154" gradientUnits="userSpaceOnUse">
<stop stop-color="#61AFF8"/>
<stop offset="1" stop-color="#B5E9FF"/>
</linearGradient>
<linearGradient id="paint1_linear_4890_85885" x1="8.88281" y1="63.3195" x2="39.4421" y2="51.9523" gradientUnits="userSpaceOnUse">
<stop stop-color="#71ABEF"/>
<stop offset="1" stop-color="#1D72D6"/>
</linearGradient>
<linearGradient id="paint2_linear_4890_85885" x1="34" y1="10" x2="34" y2="65.6" gradientUnits="userSpaceOnUse">
<stop stop-color="#36394F"/>
<stop offset="1" stop-color="#1D1F29"/>
</linearGradient>
<linearGradient id="paint3_linear_4890_85885" x1="34" y1="10" x2="34" y2="65.6" gradientUnits="userSpaceOnUse">
<stop stop-color="#36394F"/>
<stop offset="0.701067" stop-color="#36394F" stop-opacity="0"/>
<stop offset="1" stop-color="#16171F"/>
</linearGradient>
<linearGradient id="paint4_linear_4890_85885" x1="42.1486" y1="35.6172" x2="36.1361" y2="58.227" gradientUnits="userSpaceOnUse">
<stop stop-color="#9197C6"/>
<stop offset="1" stop-color="#575B75" stop-opacity="0"/>
</linearGradient>
<linearGradient id="paint5_linear_4890_85885" x1="34" y1="10" x2="21.2346" y2="33.3387" gradientUnits="userSpaceOnUse">
<stop stop-color="#565A78"/>
<stop offset="1" stop-color="#565A78" stop-opacity="0"/>
</linearGradient>
</defs>
</svg>
