<svg width="12" height="13" viewBox="0 0 12 13" fill="none" xmlns="http://www.w3.org/2000/svg">
<mask id="mask0_6667_75782" style="mask-type:alpha" maskUnits="userSpaceOnUse" x="0" y="0" width="12" height="13">
<rect y="0.5" width="12" height="12" fill="#D9D9D9"/>
</mask>
<g mask="url(#mask0_6667_75782)">
<path fill-rule="evenodd" clip-rule="evenodd" d="M5.99252 7.44568C4.84257 7.48407 2.97859 6.82411 3.15718 3.81717C3.58298 3.73801 4.57608 3.74344 5.14217 4.39844C5.06742 3.96886 5.10488 2.88488 5.85265 1.98561C6.24965 2.10186 7.09489 2.62893 7.29991 3.80721C7.75125 3.15311 8.92863 1.90789 10.0274 2.15975C10.2558 2.75082 10.4163 4.17813 9.23054 5.15883C9.78866 5.11841 11.0099 5.20813 11.43 5.89027C11.2508 6.30372 10.6432 7.21493 9.64697 7.5522C10.076 7.85256 10.9232 8.60735 10.8797 9.22363C9.69824 9.81343 7.1756 10.2922 6.30121 7.64713L7.60674 5.72729C7.67284 5.6478 7.6631 5.52977 7.58499 5.46365C7.50688 5.39753 7.38998 5.40837 7.32388 5.48786L5.99252 7.44568Z" fill="white"/>
<path fill-rule="evenodd" clip-rule="evenodd" d="M3.43808 10.0741C4.09542 10.0928 5.157 9.71096 5.04937 7.99484C4.80592 7.95047 4.23844 7.95558 3.91621 8.331C3.9581 8.08538 3.93465 7.46604 3.50565 6.95369C3.27902 7.02092 2.79702 7.32381 2.6821 7.99752C2.42295 7.62467 1.74781 6.91549 1.12042 7.06164C0.991005 7.39985 0.902031 8.21578 1.58144 8.77377C1.26244 8.75181 0.564748 8.80554 0.32598 9.19618C0.429186 9.43208 0.778079 9.95154 1.34801 10.1422C1.10342 10.3147 0.620743 10.7478 0.646753 11.0998C1.32328 11.4346 2.76664 11.7032 3.26068 10.1878L2.51239 9.09534C2.47447 9.05005 2.47981 8.98258 2.52432 8.94464C2.56883 8.90671 2.63565 8.91266 2.67357 8.95795L3.43808 10.0741Z" fill="white"/>
</g>
</svg>
