<svg width="19" height="20" viewBox="0 0 19 20" fill="none" xmlns="http://www.w3.org/2000/svg">
<path fill-rule="evenodd" clip-rule="evenodd" d="M11.78 0.5C12.1998 0.500103 12.6088 0.625671 12.9493 0.858917C13.2898 1.09216 13.5444 1.42126 13.677 1.7996L14.22 3.35H17.5C17.7652 3.35 18.0196 3.45009 18.2071 3.62825C18.3946 3.80641 18.5 4.04804 18.5 4.3C18.5 4.55196 18.3946 4.79359 18.2071 4.97175C18.0196 5.14991 17.7652 5.25 17.5 5.25L17.497 5.31745L16.63 16.8533C16.5759 17.5721 16.2372 18.2447 15.682 18.7358C15.1269 19.2269 14.3965 19.4999 13.638 19.5H5.362C4.60346 19.4999 3.87311 19.2269 3.31797 18.7358C2.76283 18.2447 2.42411 17.5721 2.37 16.8533L1.503 5.3165C1.50119 5.29437 1.50019 5.27219 1.5 5.25C1.23478 5.25 0.98043 5.14991 0.792893 4.97175C0.605357 4.79359 0.5 4.55196 0.5 4.3C0.5 4.04804 0.605357 3.80641 0.792893 3.62825C0.98043 3.45009 1.23478 3.35 1.5 3.35H4.78L5.323 1.7996C5.4557 1.42111 5.71043 1.0919 6.0511 0.858639C6.39176 0.625379 6.80107 0.499904 7.221 0.5H11.78ZM6.5 8.1C6.25507 8.10003 6.01866 8.18546 5.83563 8.34008C5.65259 8.4947 5.53566 8.70776 5.507 8.93885L5.5 9.05V14.75C5.50028 14.9921 5.59788 15.225 5.77285 15.4011C5.94782 15.5772 6.18695 15.6831 6.44139 15.6973C6.69584 15.7115 6.94638 15.6329 7.14183 15.4774C7.33729 15.322 7.4629 15.1016 7.493 14.8611L7.5 14.75V9.05C7.5 8.79804 7.39464 8.55641 7.20711 8.37825C7.01957 8.20009 6.76522 8.1 6.5 8.1ZM12.5 8.1C12.2348 8.1 11.9804 8.20009 11.7929 8.37825C11.6054 8.55641 11.5 8.79804 11.5 9.05V14.75C11.5 15.002 11.6054 15.2436 11.7929 15.4218C11.9804 15.5999 12.2348 15.7 12.5 15.7C12.7652 15.7 13.0196 15.5999 13.2071 15.4218C13.3946 15.2436 13.5 15.002 13.5 14.75V9.05C13.5 8.79804 13.3946 8.55641 13.2071 8.37825C13.0196 8.20009 12.7652 8.1 12.5 8.1ZM11.78 2.4H7.22L6.887 3.35H12.113L11.78 2.4Z" fill="#FF7E55"/>
</svg>
