<svg width="337" height="69" viewBox="0 0 337 69" fill="none" xmlns="http://www.w3.org/2000/svg">
<path d="M18.404 8.32L17.792 7.228C19.4 7.06 21.176 6.1 21.416 4.828H18.224V3.712H26.144V4.828H22.952C23.204 6.1 24.992 7.012 26.588 7.18C26.396 7.552 26.192 7.912 26 8.272C24.608 8.116 22.772 7.144 22.184 6.124C21.62 7.216 19.868 8.128 18.404 8.32ZM22.868 13.936H21.452V10.216H17.36V9.1H27.02V10.216H22.868V13.936ZM29.6028 6.496C29.6028 7.288 30.1788 7.9 31.1388 7.9C32.1108 7.9 32.6868 7.288 32.6868 6.496C32.6868 5.74 32.1108 5.128 31.1388 5.128C30.1788 5.128 29.6028 5.74 29.6028 6.496ZM36.7668 3.256V13.948H35.3748V3.256H36.7668ZM28.1628 6.508C28.1628 5.008 29.3388 3.94 31.1388 3.94C32.9508 3.94 34.1028 5.008 34.1028 6.508C34.1028 7.996 32.9508 9.076 31.1388 9.076C29.3388 9.076 28.1628 7.996 28.1628 6.508ZM34.9308 11.212C33.9108 11.344 32.4588 11.464 31.3188 11.524C30.1308 11.572 28.8588 11.62 27.9588 11.608L27.7548 10.408C28.9908 10.408 30.0228 10.396 31.2348 10.348C32.5668 10.3 33.8628 10.204 34.8108 10.084L34.9308 11.212ZM38.8456 10.12L38.6536 3.964H40.2136L40.0456 10.12H38.8456ZM38.7256 12.676V11.272H40.1656V12.676H38.7256Z" fill="#FF7E55"/>
<path d="M25.525 30.77H24.7V25.787H23.545V30.286H22.731V21.387H23.545V25.083H24.7V21.156H25.525V30.77ZM22.005 26.667C22.005 27.822 21.147 28.581 19.904 28.581C18.672 28.581 17.803 27.767 17.803 26.667C17.803 25.501 18.672 24.742 19.904 24.742C21.147 24.742 22.005 25.512 22.005 26.667ZM21.202 26.667C21.202 25.93 20.663 25.446 19.904 25.446C19.145 25.446 18.617 25.93 18.617 26.667C18.617 27.415 19.145 27.888 19.904 27.888C20.663 27.888 21.202 27.393 21.202 26.667ZM22.181 24.192H17.396V23.499H22.181V24.192ZM21.147 22.619H18.518V21.893H21.147V22.619ZM35.7796 24.379H34.3166V26.909H33.4806V21.156H34.3166V23.686H35.7796V24.379ZM34.4376 28.9C34.4376 29.978 33.3266 30.726 31.2476 30.726C29.1576 30.726 28.0686 29.989 28.0686 28.9C28.0686 27.8 29.1576 27.063 31.2476 27.063C33.3266 27.063 34.4376 27.822 34.4376 28.9ZM33.5686 28.9C33.5686 28.207 32.6996 27.767 31.2476 27.767C29.7956 27.767 28.9376 28.218 28.9376 28.9C28.9376 29.582 29.7956 30.033 31.2476 30.033C32.6996 30.033 33.5686 29.593 33.5686 28.9ZM28.0906 25.556H28.5636C29.8946 25.556 31.5226 25.413 32.4576 25.237L32.5456 25.919C31.4786 26.106 29.6966 26.249 28.0356 26.249H27.2546V21.926H31.5886V22.63H28.0906V25.556ZM47.1968 30.77H46.3608V21.156H47.1968V30.77ZM44.3698 22.179C44.3258 25.303 42.4118 27.69 39.9258 28.867L39.4418 28.207C41.8728 27.14 43.3028 25.05 43.4788 22.883H39.7938V22.179H44.3698ZM57.7154 24.874H56.2524V28.35H55.4164V21.156H56.2524V24.17H57.7154V24.874ZM56.5494 30.528H50.2024V27.558H51.0384V29.835H56.5494V30.528ZM49.1904 22.003H53.5684C53.4584 24.621 51.6764 26.458 49.2234 27.239L48.7944 26.535C50.8624 26.007 52.4134 24.478 52.6554 22.707H49.1904V22.003ZM69.1766 30.77H68.3406V21.156H69.1766V30.77ZM61.5866 25.27C61.5866 23.246 62.4886 21.882 64.0616 21.882C65.6566 21.882 66.5476 23.246 66.5476 25.281C66.5476 27.316 65.6566 28.68 64.0616 28.68C62.4886 28.68 61.5866 27.316 61.5866 25.27ZM65.7556 25.281C65.7556 23.697 65.0846 22.608 64.0616 22.608C63.0496 22.608 62.3786 23.697 62.3786 25.281C62.3786 26.854 63.0496 27.954 64.0616 27.954C65.0846 27.954 65.7556 26.854 65.7556 25.281ZM78.0892 25.336C78.0892 26.326 76.8352 26.799 75.1302 26.799C73.4362 26.799 72.1712 26.326 72.1712 25.336C72.1712 24.324 73.4362 23.862 75.1302 23.862C76.8352 23.862 78.0892 24.324 78.0892 25.336ZM75.5372 30.781H74.7012V28.031H70.7852V27.327H79.4642V28.031H75.5372V30.781ZM79.0022 23.444H71.2802V22.74H79.0022V23.444ZM77.2202 25.336C77.2202 24.742 76.0982 24.555 75.1302 24.555C74.1842 24.555 73.0402 24.742 73.0402 25.336C73.0402 25.897 74.1842 26.106 75.1302 26.106C76.0982 26.106 77.2202 25.897 77.2202 25.336ZM76.7362 22.014H73.5242V21.299H76.7362V22.014ZM82.5688 21.992C83.8998 21.992 84.6148 23.213 84.6808 24.962H85.7148V21.343H86.5288V30.308H85.7148V25.655H84.6808C84.5928 27.393 83.8888 28.57 82.5688 28.57C81.1718 28.57 80.4568 27.217 80.4568 25.281C80.4568 23.356 81.1718 21.992 82.5688 21.992ZM83.8558 25.281C83.8558 23.73 83.3498 22.729 82.5688 22.729C81.7988 22.729 81.3038 23.73 81.3038 25.281C81.3038 26.843 81.7988 27.833 82.5688 27.833C83.3498 27.833 83.8558 26.843 83.8558 25.281ZM88.4098 30.77H87.5848V21.156H88.4098V30.77ZM98.4993 26.821H89.8203V26.117H98.4993V26.821ZM97.5753 30.561H90.9533V27.723H91.7893V29.868H97.5753V30.561ZM97.5313 24.918H90.9863V21.563H91.8223V24.225H97.5313V24.918ZM110.203 30.77H109.367V21.156H110.203V30.77ZM108.707 27.833L108.179 28.416C107.508 27.844 106.87 26.953 106.705 26.139C106.551 27.008 105.847 28.207 105.022 28.977L104.439 28.449C105.66 27.459 106.298 25.732 106.298 24.082V22.047H107.101V24.038C107.101 25.765 107.651 27.019 108.707 27.833ZM105.352 26.645L104.879 27.283C104.571 27.052 104.12 26.48 103.955 25.996C103.79 26.788 103.13 27.767 102.492 28.35L101.909 27.844C102.833 27.107 103.515 25.809 103.515 24.082V22.146H104.307V24.049C104.307 25.545 104.835 26.282 105.352 26.645ZM120.6 24.544H119.137V27.503H118.301V21.156H119.137V23.84H120.6V24.544ZM114.341 21.871C115.705 21.871 116.827 22.806 116.827 24.214C116.827 25.666 115.705 26.557 114.341 26.557C112.966 26.557 111.844 25.666 111.844 24.225C111.844 22.806 112.966 21.871 114.341 21.871ZM114.341 22.542C113.373 22.542 112.658 23.246 112.658 24.214C112.658 25.215 113.373 25.886 114.341 25.886C115.342 25.886 116.024 25.215 116.024 24.225C116.024 23.246 115.353 22.542 114.341 22.542ZM119.94 30.088L119.522 30.77C118.268 30.528 116.662 29.505 116.266 28.603C115.892 29.527 114.363 30.517 112.966 30.803L112.559 30.11C114.11 29.912 115.848 28.79 115.848 27.404V27.008H116.728V27.404C116.728 28.79 118.521 29.89 119.94 30.088ZM129.172 30.77H128.336V21.156H129.172V30.77ZM121.582 25.27C121.582 23.246 122.484 21.882 124.057 21.882C125.652 21.882 126.543 23.246 126.543 25.281C126.543 27.316 125.652 28.68 124.057 28.68C122.484 28.68 121.582 27.316 121.582 25.27ZM125.751 25.281C125.751 23.697 125.08 22.608 124.057 22.608C123.045 22.608 122.374 23.697 122.374 25.281C122.374 26.854 123.045 27.954 124.057 27.954C125.08 27.954 125.751 26.854 125.751 25.281ZM141.062 30.627H135.023V27.305H141.062V30.627ZM133.725 22.586V21.882H138.972V22.586H136.783C136.783 22.828 136.783 23.004 136.794 23.114C136.871 24.346 138.015 25.402 139.115 25.765L138.653 26.436C137.729 26.062 136.75 25.193 136.354 24.324C136.09 25.226 134.968 26.26 133.934 26.7L133.45 26.051C134.66 25.589 135.881 24.379 135.925 23.103C135.925 23.004 135.936 22.828 135.936 22.586H133.725ZM140.226 29.934V27.987H135.859V29.934H140.226ZM142.514 24.324H141.051V26.799H140.215V21.156H141.051V23.62H142.514V24.324ZM150.822 30.572H144.233V27.228H150.822V30.572ZM150.734 21.728C150.734 23.015 150.624 24.368 150.404 25.336H151.867V26.04H143.188V25.336H149.579C149.755 24.61 149.876 23.224 149.876 22.421H144.299V21.728H150.734ZM149.986 29.879V27.921H145.069V29.879H149.986ZM161.326 28.119L160.842 28.757C159.874 28.295 158.73 27.184 158.389 26.183C158.114 27.206 156.981 28.471 155.947 29.021L155.452 28.394C156.64 27.822 157.949 26.337 157.949 24.555V24.214H155.716V23.521H161.029V24.214H158.807V24.555C158.807 26.304 160.215 27.69 161.326 28.119ZM162.613 26.084H160.512V25.38H162.613V21.156H163.449V30.77H162.613V26.084ZM159.83 22.476H156.926V21.761H159.83V22.476ZM172.174 21.156H173.01V30.77H172.174V21.156ZM171.294 27.459L171.371 28.152C170.37 28.306 168.72 28.471 166.608 28.471H165.629V24.764H169.27V22.74H165.585V22.047H170.117V25.457H166.465V27.756H166.696C168.225 27.756 170.128 27.668 171.294 27.459ZM183.966 28.515C183.207 28.614 181.997 28.702 180.82 28.768C179.753 28.823 178.301 28.867 177.674 28.867L177.531 28.13C178.268 28.13 179.236 28.119 180.248 28.086V26.04H178.246V22.124H183.24V22.817H179.082V25.347H183.273V26.04H181.084V28.053C182.151 28.009 183.273 27.932 183.889 27.844L183.966 28.515ZM185.462 30.77H184.637V21.156H185.462V30.77ZM187.158 25.226C187.158 23.191 188.038 21.827 189.589 21.827C191.041 21.827 191.888 23.026 191.998 24.852H194.055V21.156H194.891V30.77H194.055V25.567H191.998C191.91 27.415 191.052 28.625 189.589 28.625C188.038 28.625 187.158 27.272 187.158 25.226ZM191.184 25.237C191.184 23.653 190.535 22.553 189.589 22.553C188.632 22.553 187.994 23.653 187.994 25.237C187.994 26.799 188.632 27.899 189.589 27.899C190.535 27.899 191.184 26.799 191.184 25.237ZM206.979 24.731H204.185V25.523H208.123V26.205H199.444V25.523H203.349V24.731H200.588V21.42H201.424V22.399H206.143V21.42H206.979V24.731ZM207.364 30.627H200.566V28.46H206.165V27.657H200.511V26.975H207.001V29.076H201.402V29.934H207.364V30.627ZM206.143 24.049V23.081H201.424V24.049H206.143ZM216.593 30.781H215.757V27.294H211.852V26.59H220.531V27.294H216.593V30.781ZM220.179 24.852L219.783 25.567C218.342 25.27 216.769 24.368 216.186 23.246C215.724 24.368 214.085 25.303 212.622 25.589L212.215 24.874C214.063 24.632 215.757 23.411 215.757 22.102V21.486H216.637V22.102C216.637 23.411 218.485 24.643 220.179 24.852ZM232.113 26.326H231.277V24.137H229.66V23.444H231.277V21.156H232.113V26.326ZM233.059 30.143L232.564 30.759C231.86 30.352 231.156 29.615 230.947 28.966C230.771 29.604 230.122 30.396 229.363 30.803L228.901 30.187C229.99 29.692 230.551 28.636 230.551 27.613V26.799H231.365V27.613C231.365 28.658 232.025 29.648 233.059 30.143ZM228.67 30.638H225.392V26.909H226.184V28.108H227.878V26.909H228.67V30.638ZM227.878 29.978V28.746H226.184V29.978H227.878ZM226.811 21.629C228.164 21.629 229.275 22.509 229.275 23.873C229.275 25.248 228.164 26.106 226.811 26.106C225.469 26.106 224.336 25.248 224.336 23.884C224.336 22.531 225.458 21.629 226.811 21.629ZM226.811 22.355C225.865 22.355 225.172 22.971 225.172 23.873C225.172 24.797 225.865 25.413 226.811 25.413C227.79 25.413 228.439 24.797 228.439 23.884C228.439 22.982 227.801 22.355 226.811 22.355ZM241.883 30.77H241.058V21.156H241.883V30.77ZM240.013 30.286H239.21V25.6H237.593V24.896H239.21V21.387H240.013V30.286ZM237.835 22.278C237.769 25.138 236.515 27.25 234.249 28.713L233.677 28.097C235.69 26.964 236.878 24.94 236.977 22.982H234.051V22.278H237.835ZM254.39 30.77H253.576V25.93H252.41V30.286H251.596V21.387H252.41V25.226H253.576V21.156H254.39V30.77ZM250.881 25.963H249.066V27.701C249.737 27.668 250.584 27.602 251.178 27.514L251.244 28.185C250.507 28.284 249.561 28.394 248.703 28.438C247.658 28.493 246.8 28.515 246.151 28.515L246.019 27.8C246.668 27.8 247.383 27.778 248.252 27.745V25.963H246.514V22.146H250.837V22.839H247.339V25.259H250.881V25.963ZM263.5 24.291C263.5 25.776 262.114 26.766 260.024 26.766C257.956 26.766 256.57 25.776 256.57 24.291C256.57 22.806 257.956 21.794 260.024 21.794C262.125 21.794 263.5 22.806 263.5 24.291ZM262.697 24.291C262.697 23.213 261.641 22.487 260.024 22.487C258.429 22.487 257.373 23.213 257.373 24.291C257.373 25.369 258.429 26.095 260.024 26.095C261.63 26.095 262.697 25.369 262.697 24.291ZM264.38 29.549H255.701V28.845H257.846V27.052L258.682 27.03V28.845H261.366V27.03L262.202 27.052V28.845H264.38V29.549ZM265.263 29.813V28.834H266.22V29.813H265.263ZM21.95 40.972C21.95 42.303 21.092 43.282 19.75 43.282C18.408 43.282 17.528 42.303 17.528 40.972C17.528 39.652 18.408 38.684 19.739 38.684C21.081 38.684 21.95 39.641 21.95 40.972ZM25.525 43.821H24.689V41.313H23.534V43.733H22.731V38.332H23.534V40.62H24.689V38.156H25.525V43.821ZM21.125 40.983C21.125 40.07 20.63 39.399 19.739 39.399C18.859 39.399 18.353 40.07 18.353 40.972C18.353 41.885 18.859 42.578 19.739 42.578C20.63 42.578 21.125 41.885 21.125 40.983ZM25.525 47.77H24.678V45.009H19.035V44.316H25.525V47.77ZM32.1826 42.325V41.621H33.9536V40.312H32.1826V39.608H33.9536V38.156H34.7896V45.108H33.9536V42.325H32.1826ZM32.5456 43.106L32.0506 43.766C31.0606 43.293 30.1146 42.413 29.7076 41.434C29.4106 42.446 28.3876 43.535 27.3426 44.074L26.8256 43.425C28.1126 42.853 29.2676 41.522 29.2676 39.982V38.717H30.1146V39.949C30.1146 41.555 31.4016 42.688 32.5456 43.106ZM34.9986 47.473H28.6076V44.536H29.4436V46.78H34.9986V47.473ZM47.3178 47.682H40.3988V45.449H46.1188V44.646H40.3658V43.964H46.9548V46.076H41.2458V46.989H47.3178V47.682ZM47.1638 41.808H40.1678V41.115H41.6968L41.4548 39.707L42.3238 39.597L42.4888 41.115H44.8318L45.0298 39.575L45.8988 39.685L45.6348 41.115H47.1638V41.808ZM48.0218 43.227H39.3428V42.523H48.0218V43.227ZM47.1638 39.223H40.1568V38.53H47.1638V39.223ZM56.9674 45.339H56.1314V41.709H54.9544V45.009H54.1514V38.332H54.9544V41.005H56.1314V38.156H56.9674V45.339ZM53.5244 42.985L53.6014 43.678C52.5564 43.854 51.2474 43.964 49.8944 43.964H49.2674V41.038H52.1934V39.663H49.2344V38.97H53.0294V41.72H50.1034V43.271C51.0934 43.271 52.5124 43.205 53.5244 42.985ZM57.2204 47.451H50.5544V44.602H51.3904V46.758H57.2204V47.451ZM70.1116 40.994H68.6486V43.062H67.8126V38.156H68.6486V40.29H70.1116V40.994ZM69.0116 47.671H62.5436V45.229H67.8126V44.25H62.5106V43.568H68.6486V45.867H63.3796V46.978H69.0116V47.671ZM62.3786 42.028H62.8516C64.1936 42.028 65.9096 41.918 66.8336 41.731L66.9216 42.413C65.8546 42.589 63.9846 42.721 62.3236 42.721H61.5426V38.783H65.9976V39.487H62.3786V42.028ZM77.8032 41.06H75.7352V40.367H77.8032V38.156H78.6392V44.129H77.8032V41.06ZM78.7382 45.944C78.7382 47.066 77.5832 47.759 75.5152 47.759C73.4582 47.759 72.3032 47.066 72.3032 45.944C72.3032 44.822 73.4582 44.129 75.5152 44.129C77.5832 44.129 78.7382 44.822 78.7382 45.944ZM75.5152 44.811C74.0412 44.811 73.1502 45.229 73.1502 45.944C73.1502 46.67 74.0412 47.077 75.5152 47.077C77.0112 47.077 77.8912 46.67 77.8912 45.944C77.8912 45.229 77.0112 44.811 75.5152 44.811ZM76.2522 42.732L75.7572 43.381C74.8332 42.941 73.8762 42.105 73.5022 41.148C73.2052 42.138 72.2922 43.15 71.1812 43.711L70.6642 43.062C72.0502 42.424 73.0512 41.192 73.0512 39.663V38.706H73.8982V39.641C73.8982 41.181 75.1632 42.336 76.2522 42.732ZM88.9818 43.018H80.3028V42.314H88.9818V43.018ZM88.0138 39.96C88.0138 41.016 86.7378 41.621 84.6478 41.621C82.5798 41.621 81.3038 41.016 81.3038 39.96C81.3038 38.904 82.5798 38.288 84.6478 38.288C86.7378 38.288 88.0138 38.904 88.0138 39.96ZM84.6478 38.97C83.1408 38.97 82.1618 39.355 82.1618 39.96C82.1618 40.554 83.1408 40.928 84.6478 40.928C86.1768 40.928 87.1668 40.554 87.1668 39.96C87.1668 39.355 86.1768 38.97 84.6478 38.97ZM88.2118 47.682H81.3148V45.394H87.0568V44.547H81.2928V43.876H87.8928V46.032H82.1508V47H88.2118V47.682ZM100.366 42.358H97.462V43.271H101.389V43.964H92.71V43.271H96.626V42.358H93.755V38.552H100.3V39.223H94.591V40.114H100.135V40.752H94.591V41.698H100.366V42.358ZM100.421 46.175C100.421 47.209 99.244 47.792 97.044 47.792C94.855 47.792 93.689 47.187 93.689 46.175C93.689 45.174 94.855 44.547 97.044 44.547C99.244 44.547 100.421 45.119 100.421 46.175ZM97.044 45.218C95.493 45.218 94.536 45.581 94.536 46.175C94.536 46.769 95.493 47.11 97.044 47.11C98.606 47.11 99.574 46.769 99.574 46.175C99.574 45.581 98.606 45.218 97.044 45.218ZM110.335 47.77H109.51V42.787H108.355V47.286H107.541V38.387H108.355V42.083H109.51V38.156H110.335V47.77ZM106.815 43.667C106.815 44.822 105.957 45.581 104.714 45.581C103.482 45.581 102.613 44.767 102.613 43.667C102.613 42.501 103.482 41.742 104.714 41.742C105.957 41.742 106.815 42.512 106.815 43.667ZM106.012 43.667C106.012 42.93 105.473 42.446 104.714 42.446C103.955 42.446 103.427 42.93 103.427 43.667C103.427 44.415 103.955 44.888 104.714 44.888C105.473 44.888 106.012 44.393 106.012 43.667ZM106.991 41.192H102.206V40.499H106.991V41.192ZM105.957 39.619H103.328V38.893H105.957V39.619ZM120.124 41.907C120.124 42.721 119.255 43.117 118.133 43.194V43.799C119.211 43.744 120.333 43.645 120.96 43.568L121.004 44.239C120.245 44.327 119.079 44.437 117.913 44.503C116.824 44.569 115.405 44.613 114.767 44.613L114.646 43.876C115.35 43.876 116.307 43.876 117.297 43.843V43.183C116.241 43.106 115.449 42.699 115.449 41.918C115.449 41.027 116.505 40.609 117.77 40.609C119.057 40.609 120.124 41.016 120.124 41.907ZM116.087 45.053H122.522V47.836H121.697V45.746H116.087V45.053ZM122.522 44.558H121.697V38.156H122.522V44.558ZM120.608 40.312H114.899V39.63H120.608V40.312ZM119.244 41.907C119.244 41.467 118.617 41.258 117.77 41.258C116.923 41.258 116.329 41.467 116.329 41.907C116.329 42.369 116.934 42.578 117.77 42.578C118.617 42.578 119.244 42.358 119.244 41.907ZM119.123 39.058H116.483V38.365H119.123V39.058ZM125.109 44.613H131.72V47.836H130.884V45.306H125.109V44.613ZM132.831 43.502H124.152V42.798H132.831V43.502ZM131.808 41.731H125.219V38.574H131.764V39.278H126.055V41.027H131.808V41.731ZM142.525 42.116H141.062V45.251H140.226V38.156H141.062V41.412H142.525V42.116ZM141.436 47.462H135.034V44.998H135.87V46.758H141.436V47.462ZM137.773 39.234H135.001V38.497H137.773V39.234ZM139.258 40.653H133.626V39.96H139.258V40.653ZM138.708 42.853C138.708 43.865 137.74 44.536 136.442 44.536C135.166 44.536 134.187 43.865 134.187 42.853C134.187 41.819 135.155 41.17 136.442 41.17C137.74 41.17 138.708 41.819 138.708 42.853ZM137.916 42.853C137.916 42.215 137.223 41.83 136.442 41.83C135.672 41.83 134.979 42.215 134.979 42.853C134.979 43.48 135.672 43.865 136.442 43.865C137.223 43.865 137.916 43.48 137.916 42.853ZM147.067 44.657H149.982V43.304H146.077V42.6H154.756V43.304H150.818V44.657H153.645V47.836H152.809V45.361H147.067V44.657ZM154.525 41.093L154.041 41.709C153.37 41.434 152.688 40.796 152.435 40.18C152.226 40.796 151.522 41.555 150.741 41.896L150.257 41.313C151.236 40.917 152.017 40.004 152.017 38.937V38.288H152.82V38.915C152.82 39.982 153.601 40.774 154.525 41.093ZM150.367 40.785L149.883 41.379C149.355 41.137 148.783 40.664 148.563 40.18C148.332 40.796 147.65 41.522 146.814 41.874L146.319 41.269C147.408 40.873 148.156 39.905 148.156 38.893V38.376H148.959V38.915C148.959 39.883 149.608 40.521 150.367 40.785ZM164.274 46.45H155.595V45.746H164.274V46.45ZM163.427 41.423C163.427 42.897 162.03 43.854 159.918 43.854C157.828 43.854 156.431 42.897 156.431 41.423C156.431 39.96 157.828 38.992 159.918 38.992C162.041 38.992 163.427 39.96 163.427 41.423ZM162.591 41.434C162.591 40.389 161.535 39.696 159.918 39.696C158.323 39.696 157.267 40.389 157.267 41.434C157.267 42.457 158.323 43.139 159.918 43.139C161.524 43.139 162.591 42.457 162.591 41.434ZM173.791 46.549H165.112V45.845H169.017V44.206H166.179V41.203H171.877V39.663H166.168V38.959H172.713V41.896H167.015V43.502H172.988V44.206H169.853V45.845H173.791V46.549ZM184.912 47.627H178.873V44.305H184.912V47.627ZM177.575 39.586V38.882H182.822V39.586H180.633C180.633 39.828 180.633 40.004 180.644 40.114C180.721 41.346 181.865 42.402 182.965 42.765L182.503 43.436C181.579 43.062 180.6 42.193 180.204 41.324C179.94 42.226 178.818 43.26 177.784 43.7L177.3 43.051C178.51 42.589 179.731 41.379 179.775 40.103C179.775 40.004 179.786 39.828 179.786 39.586H177.575ZM184.076 46.934V44.987H179.709V46.934H184.076ZM186.364 41.324H184.901V43.799H184.065V38.156H184.901V40.62H186.364V41.324ZM194.671 47.572H188.082V44.228H194.671V47.572ZM194.583 38.728C194.583 40.015 194.473 41.368 194.253 42.336H195.716V43.04H187.037V42.336H193.428C193.604 41.61 193.725 40.224 193.725 39.421H188.148V38.728H194.583ZM193.835 46.879V44.921H188.918V46.879H193.835ZM205.234 43.018H196.555V42.314H205.234V43.018ZM204.266 39.96C204.266 41.016 202.99 41.621 200.9 41.621C198.832 41.621 197.556 41.016 197.556 39.96C197.556 38.904 198.832 38.288 200.9 38.288C202.99 38.288 204.266 38.904 204.266 39.96ZM200.9 38.97C199.393 38.97 198.414 39.355 198.414 39.96C198.414 40.554 199.393 40.928 200.9 40.928C202.429 40.928 203.419 40.554 203.419 39.96C203.419 39.355 202.429 38.97 200.9 38.97ZM204.464 47.682H197.567V45.394H203.309V44.547H197.545V43.876H204.145V46.032H198.403V47H204.464V47.682ZM217.069 47.77H216.244V42.787H215.089V47.286H214.275V38.387H215.089V42.083H216.244V38.156H217.069V47.77ZM213.549 43.667C213.549 44.822 212.691 45.581 211.448 45.581C210.216 45.581 209.347 44.767 209.347 43.667C209.347 42.501 210.216 41.742 211.448 41.742C212.691 41.742 213.549 42.512 213.549 43.667ZM212.746 43.667C212.746 42.93 212.207 42.446 211.448 42.446C210.689 42.446 210.161 42.93 210.161 43.667C210.161 44.415 210.689 44.888 211.448 44.888C212.207 44.888 212.746 44.393 212.746 43.667ZM213.725 41.192H208.94V40.499H213.725V41.192ZM212.691 39.619H210.062V38.893H212.691V39.619ZM223.386 44.888L222.858 45.504C222.176 45.02 221.164 43.898 220.889 42.886C220.691 43.953 219.822 45.097 218.887 45.757L218.326 45.174C219.459 44.448 220.471 42.93 220.471 41.06V39.982H218.557V39.289H223.144V39.982H221.296V41.038C221.296 42.93 222.198 44.118 223.386 44.888ZM224.684 47.286H223.859V42.38H222.319V41.687H223.859V38.387H224.684V47.286ZM226.587 47.77H225.762V38.156H226.587V47.77ZM236.852 41.401H235.389V43.623H234.553V38.156H235.389V40.697H236.852V41.401ZM235.752 47.715H229.339V45.57H234.553V44.756H229.295V44.118H235.389V46.186H230.175V47.066H235.752V47.715ZM232.155 39.025H229.383V38.321H232.155V39.025ZM233.596 40.323H227.953V39.641H233.596V40.323ZM233.035 42.149C233.035 43.095 232.089 43.612 230.769 43.612C229.515 43.612 228.514 43.095 228.514 42.149C228.514 41.214 229.493 40.697 230.769 40.697C232.056 40.697 233.035 41.214 233.035 42.149ZM232.232 42.149C232.232 41.61 231.528 41.346 230.769 41.346C230.01 41.346 229.317 41.61 229.317 42.149C229.317 42.688 230.021 42.963 230.769 42.963C231.528 42.963 232.232 42.688 232.232 42.149ZM245.145 47.781H244.309V44.294H240.404V43.59H249.083V44.294H245.145V47.781ZM248.731 41.852L248.335 42.567C246.894 42.27 245.321 41.368 244.738 40.246C244.276 41.368 242.637 42.303 241.174 42.589L240.767 41.874C242.615 41.632 244.309 40.411 244.309 39.102V38.486H245.189V39.102C245.189 40.411 247.037 41.643 248.731 41.852ZM260.666 43.744H259.83V38.156H260.666V43.744ZM261.084 47.792H261.073C260.413 47.473 259.544 46.637 259.313 45.944C259.071 46.67 258.268 47.539 257.487 47.924L256.959 47.363C257.993 46.857 258.884 45.812 258.884 44.646V44.063H259.72V44.613C259.72 45.801 260.677 46.857 261.59 47.198L261.084 47.792ZM257.509 46.472L256.937 47.044C256.453 46.791 255.936 46.296 255.716 45.768C255.485 46.494 254.638 47.418 253.813 47.814L253.307 47.22C254.286 46.791 255.254 45.735 255.254 44.569V44.096H256.09V44.492C256.09 45.515 256.772 46.186 257.509 46.472ZM255.54 38.695C256.904 38.695 258.026 39.619 258.026 41.005C258.026 42.413 256.904 43.293 255.54 43.293C254.176 43.293 253.043 42.413 253.043 41.016C253.043 39.619 254.176 38.695 255.54 38.695ZM255.54 39.377C254.572 39.377 253.857 40.059 253.857 41.005C253.857 41.962 254.572 42.611 255.54 42.611C256.541 42.611 257.223 41.962 257.223 41.016C257.223 40.059 256.552 39.377 255.54 39.377ZM262.45 42.226C262.45 40.191 263.33 38.827 264.881 38.827C266.333 38.827 267.18 40.026 267.29 41.852H269.347V38.156H270.183V47.77H269.347V42.567H267.29C267.202 44.415 266.344 45.625 264.881 45.625C263.33 45.625 262.45 44.272 262.45 42.226ZM266.476 42.237C266.476 40.653 265.827 39.553 264.881 39.553C263.924 39.553 263.286 40.653 263.286 42.237C263.286 43.799 263.924 44.899 264.881 44.899C265.827 44.899 266.476 43.799 266.476 42.237ZM279.646 41.291C279.646 42.776 278.26 43.766 276.17 43.766C274.102 43.766 272.716 42.776 272.716 41.291C272.716 39.806 274.102 38.794 276.17 38.794C278.271 38.794 279.646 39.806 279.646 41.291ZM278.843 41.291C278.843 40.213 277.787 39.487 276.17 39.487C274.575 39.487 273.519 40.213 273.519 41.291C273.519 42.369 274.575 43.095 276.17 43.095C277.776 43.095 278.843 42.369 278.843 41.291ZM280.526 46.549H271.847V45.845H273.992V44.052L274.828 44.03V45.845H277.512V44.03L278.348 44.052V45.845H280.526V46.549ZM281.408 46.813V45.834H282.365V46.813H281.408Z" fill="#C3C4CE"/>
<path d="M2.18641 12.5C2.359 12.5 2.49891 12.3601 2.49891 12.1875V8.75C2.49891 7.42392 3.02569 6.15215 3.96337 5.21447C4.90105 4.27678 6.17282 3.75 7.49891 3.75C8.82499 3.75 10.0968 4.27678 11.0344 5.21447C11.9721 6.15215 12.4989 7.42392 12.4989 8.75V12.1875C12.4989 12.3601 12.6388 12.5 12.8114 12.5V12.5C12.984 12.5 13.1239 12.6399 13.1239 12.8125V13.125C13.1239 13.4702 12.8441 13.75 12.4989 13.75H2.49891C2.15373 13.75 1.87391 13.4702 1.87391 13.125V12.8125C1.87391 12.6399 2.01382 12.5 2.18641 12.5V12.5ZM3.80086 8.12786C3.74359 8.46826 4.02873 8.75 4.37391 8.75V8.75C4.71908 8.75 4.99121 8.46592 5.07662 8.13147C5.18676 7.70021 5.41107 7.3023 5.73114 6.98223C6.0512 6.66217 6.44912 6.43785 6.88038 6.32772C7.21482 6.24231 7.49891 5.97018 7.49891 5.625V5.625C7.49891 5.27982 7.21716 4.99469 6.87677 5.05195C6.11299 5.18045 5.40213 5.54347 4.84726 6.09835C4.29238 6.65322 3.92935 7.36408 3.80086 8.12786ZM6.87391 1.875C6.87391 1.52982 7.15373 1.25 7.49891 1.25V1.25C7.84408 1.25 8.12391 1.52982 8.12391 1.875V2.5C8.12391 2.84518 7.84408 3.125 7.49891 3.125V3.125C7.15373 3.125 6.87391 2.84518 6.87391 2.5V1.875ZM11.9182 3.44693C12.1623 3.20286 12.558 3.20286 12.8021 3.44693V3.44693C13.0461 3.69096 13.0462 4.08659 12.8022 4.33068L12.3607 4.77238C12.1167 5.0165 11.721 5.01658 11.4768 4.7726V4.7726C11.2326 4.52855 11.2325 4.13267 11.4766 3.88853L11.9182 3.44693ZM2.19606 4.33069C1.95217 4.08658 1.95236 3.69092 2.19635 3.44693V3.44693C2.44039 3.20289 2.83613 3.20275 3.08022 3.44673L3.52191 3.88821C3.76603 4.13221 3.7659 4.52815 3.52193 4.77229V4.77229C3.27779 5.0166 2.88154 5.01682 2.63743 4.77249L2.19606 4.33069Z" fill="#FF7E55"/>
</svg>
