<svg width="337" height="70" viewBox="0 0 337 70" fill="none" xmlns="http://www.w3.org/2000/svg">
<path d="M18.404 8.82L17.792 7.728C19.4 7.56 21.176 6.6 21.416 5.328H18.224V4.212H26.144V5.328H22.952C23.204 6.6 24.992 7.512 26.588 7.68C26.396 8.052 26.192 8.412 26 8.772C24.608 8.616 22.772 7.644 22.184 6.624C21.62 7.716 19.868 8.628 18.404 8.82ZM22.868 14.436H21.452V10.716H17.36V9.6H27.02V10.716H22.868V14.436ZM29.6028 6.996C29.6028 7.788 30.1788 8.4 31.1388 8.4C32.1108 8.4 32.6868 7.788 32.6868 6.996C32.6868 6.24 32.1108 5.628 31.1388 5.628C30.1788 5.628 29.6028 6.24 29.6028 6.996ZM36.7668 3.756V14.448H35.3748V3.756H36.7668ZM28.1628 7.008C28.1628 5.508 29.3388 4.44 31.1388 4.44C32.9508 4.44 34.1028 5.508 34.1028 7.008C34.1028 8.496 32.9508 9.576 31.1388 9.576C29.3388 9.576 28.1628 8.496 28.1628 7.008ZM34.9308 11.712C33.9108 11.844 32.4588 11.964 31.3188 12.024C30.1308 12.072 28.8588 12.12 27.9588 12.108L27.7548 10.908C28.9908 10.908 30.0228 10.896 31.2348 10.848C32.5668 10.8 33.8628 10.704 34.8108 10.584L34.9308 11.712ZM38.8456 10.62L38.6536 4.464H40.2136L40.0456 10.62H38.8456ZM38.7256 13.176V11.772H40.1656V13.176H38.7256Z" fill="#FF7E55"/>
<path d="M25.525 31.27H24.7V26.287H23.545V30.786H22.731V21.887H23.545V25.583H24.7V21.656H25.525V31.27ZM22.005 27.167C22.005 28.322 21.147 29.081 19.904 29.081C18.672 29.081 17.803 28.267 17.803 27.167C17.803 26.001 18.672 25.242 19.904 25.242C21.147 25.242 22.005 26.012 22.005 27.167ZM21.202 27.167C21.202 26.43 20.663 25.946 19.904 25.946C19.145 25.946 18.617 26.43 18.617 27.167C18.617 27.915 19.145 28.388 19.904 28.388C20.663 28.388 21.202 27.893 21.202 27.167ZM22.181 24.692H17.396V23.999H22.181V24.692ZM21.147 23.119H18.518V22.393H21.147V23.119ZM35.7796 24.879H34.3166V27.409H33.4806V21.656H34.3166V24.186H35.7796V24.879ZM34.4376 29.4C34.4376 30.478 33.3266 31.226 31.2476 31.226C29.1576 31.226 28.0686 30.489 28.0686 29.4C28.0686 28.3 29.1576 27.563 31.2476 27.563C33.3266 27.563 34.4376 28.322 34.4376 29.4ZM33.5686 29.4C33.5686 28.707 32.6996 28.267 31.2476 28.267C29.7956 28.267 28.9376 28.718 28.9376 29.4C28.9376 30.082 29.7956 30.533 31.2476 30.533C32.6996 30.533 33.5686 30.093 33.5686 29.4ZM28.0906 26.056H28.5636C29.8946 26.056 31.5226 25.913 32.4576 25.737L32.5456 26.419C31.4786 26.606 29.6966 26.749 28.0356 26.749H27.2546V22.426H31.5886V23.13H28.0906V26.056ZM47.1968 31.27H46.3608V21.656H47.1968V31.27ZM44.3698 22.679C44.3258 25.803 42.4118 28.19 39.9258 29.367L39.4418 28.707C41.8728 27.64 43.3028 25.55 43.4788 23.383H39.7938V22.679H44.3698ZM57.7154 25.374H56.2524V28.85H55.4164V21.656H56.2524V24.67H57.7154V25.374ZM56.5494 31.028H50.2024V28.058H51.0384V30.335H56.5494V31.028ZM49.1904 22.503H53.5684C53.4584 25.121 51.6764 26.958 49.2234 27.739L48.7944 27.035C50.8624 26.507 52.4134 24.978 52.6554 23.207H49.1904V22.503ZM69.1766 31.27H68.3406V21.656H69.1766V31.27ZM61.5866 25.77C61.5866 23.746 62.4886 22.382 64.0616 22.382C65.6566 22.382 66.5476 23.746 66.5476 25.781C66.5476 27.816 65.6566 29.18 64.0616 29.18C62.4886 29.18 61.5866 27.816 61.5866 25.77ZM65.7556 25.781C65.7556 24.197 65.0846 23.108 64.0616 23.108C63.0496 23.108 62.3786 24.197 62.3786 25.781C62.3786 27.354 63.0496 28.454 64.0616 28.454C65.0846 28.454 65.7556 27.354 65.7556 25.781ZM78.0892 25.836C78.0892 26.826 76.8352 27.299 75.1302 27.299C73.4362 27.299 72.1712 26.826 72.1712 25.836C72.1712 24.824 73.4362 24.362 75.1302 24.362C76.8352 24.362 78.0892 24.824 78.0892 25.836ZM75.5372 31.281H74.7012V28.531H70.7852V27.827H79.4642V28.531H75.5372V31.281ZM79.0022 23.944H71.2802V23.24H79.0022V23.944ZM77.2202 25.836C77.2202 25.242 76.0982 25.055 75.1302 25.055C74.1842 25.055 73.0402 25.242 73.0402 25.836C73.0402 26.397 74.1842 26.606 75.1302 26.606C76.0982 26.606 77.2202 26.397 77.2202 25.836ZM76.7362 22.514H73.5242V21.799H76.7362V22.514ZM82.5688 22.492C83.8998 22.492 84.6148 23.713 84.6808 25.462H85.7148V21.843H86.5288V30.808H85.7148V26.155H84.6808C84.5928 27.893 83.8888 29.07 82.5688 29.07C81.1718 29.07 80.4568 27.717 80.4568 25.781C80.4568 23.856 81.1718 22.492 82.5688 22.492ZM83.8558 25.781C83.8558 24.23 83.3498 23.229 82.5688 23.229C81.7988 23.229 81.3038 24.23 81.3038 25.781C81.3038 27.343 81.7988 28.333 82.5688 28.333C83.3498 28.333 83.8558 27.343 83.8558 25.781ZM88.4098 31.27H87.5848V21.656H88.4098V31.27ZM98.4993 27.321H89.8203V26.617H98.4993V27.321ZM97.5753 31.061H90.9533V28.223H91.7893V30.368H97.5753V31.061ZM97.5313 25.418H90.9863V22.063H91.8223V24.725H97.5313V25.418ZM110.203 31.27H109.367V21.656H110.203V31.27ZM108.707 28.333L108.179 28.916C107.508 28.344 106.87 27.453 106.705 26.639C106.551 27.508 105.847 28.707 105.022 29.477L104.439 28.949C105.66 27.959 106.298 26.232 106.298 24.582V22.547H107.101V24.538C107.101 26.265 107.651 27.519 108.707 28.333ZM105.352 27.145L104.879 27.783C104.571 27.552 104.12 26.98 103.955 26.496C103.79 27.288 103.13 28.267 102.492 28.85L101.909 28.344C102.833 27.607 103.515 26.309 103.515 24.582V22.646H104.307V24.549C104.307 26.045 104.835 26.782 105.352 27.145ZM120.6 25.044H119.137V28.003H118.301V21.656H119.137V24.34H120.6V25.044ZM114.341 22.371C115.705 22.371 116.827 23.306 116.827 24.714C116.827 26.166 115.705 27.057 114.341 27.057C112.966 27.057 111.844 26.166 111.844 24.725C111.844 23.306 112.966 22.371 114.341 22.371ZM114.341 23.042C113.373 23.042 112.658 23.746 112.658 24.714C112.658 25.715 113.373 26.386 114.341 26.386C115.342 26.386 116.024 25.715 116.024 24.725C116.024 23.746 115.353 23.042 114.341 23.042ZM119.94 30.588L119.522 31.27C118.268 31.028 116.662 30.005 116.266 29.103C115.892 30.027 114.363 31.017 112.966 31.303L112.559 30.61C114.11 30.412 115.848 29.29 115.848 27.904V27.508H116.728V27.904C116.728 29.29 118.521 30.39 119.94 30.588ZM129.172 31.27H128.336V21.656H129.172V31.27ZM121.582 25.77C121.582 23.746 122.484 22.382 124.057 22.382C125.652 22.382 126.543 23.746 126.543 25.781C126.543 27.816 125.652 29.18 124.057 29.18C122.484 29.18 121.582 27.816 121.582 25.77ZM125.751 25.781C125.751 24.197 125.08 23.108 124.057 23.108C123.045 23.108 122.374 24.197 122.374 25.781C122.374 27.354 123.045 28.454 124.057 28.454C125.08 28.454 125.751 27.354 125.751 25.781ZM141.062 31.127H135.023V27.805H141.062V31.127ZM133.725 23.086V22.382H138.972V23.086H136.783C136.783 23.328 136.783 23.504 136.794 23.614C136.871 24.846 138.015 25.902 139.115 26.265L138.653 26.936C137.729 26.562 136.75 25.693 136.354 24.824C136.09 25.726 134.968 26.76 133.934 27.2L133.45 26.551C134.66 26.089 135.881 24.879 135.925 23.603C135.925 23.504 135.936 23.328 135.936 23.086H133.725ZM140.226 30.434V28.487H135.859V30.434H140.226ZM142.514 24.824H141.051V27.299H140.215V21.656H141.051V24.12H142.514V24.824ZM150.822 31.072H144.233V27.728H150.822V31.072ZM150.734 22.228C150.734 23.515 150.624 24.868 150.404 25.836H151.867V26.54H143.188V25.836H149.579C149.755 25.11 149.876 23.724 149.876 22.921H144.299V22.228H150.734ZM149.986 30.379V28.421H145.069V30.379H149.986ZM161.326 28.619L160.842 29.257C159.874 28.795 158.73 27.684 158.389 26.683C158.114 27.706 156.981 28.971 155.947 29.521L155.452 28.894C156.64 28.322 157.949 26.837 157.949 25.055V24.714H155.716V24.021H161.029V24.714H158.807V25.055C158.807 26.804 160.215 28.19 161.326 28.619ZM162.613 26.584H160.512V25.88H162.613V21.656H163.449V31.27H162.613V26.584ZM159.83 22.976H156.926V22.261H159.83V22.976ZM172.174 21.656H173.01V31.27H172.174V21.656ZM171.294 27.959L171.371 28.652C170.37 28.806 168.72 28.971 166.608 28.971H165.629V25.264H169.27V23.24H165.585V22.547H170.117V25.957H166.465V28.256H166.696C168.225 28.256 170.128 28.168 171.294 27.959ZM183.966 29.015C183.207 29.114 181.997 29.202 180.82 29.268C179.753 29.323 178.301 29.367 177.674 29.367L177.531 28.63C178.268 28.63 179.236 28.619 180.248 28.586V26.54H178.246V22.624H183.24V23.317H179.082V25.847H183.273V26.54H181.084V28.553C182.151 28.509 183.273 28.432 183.889 28.344L183.966 29.015ZM185.462 31.27H184.637V21.656H185.462V31.27ZM187.158 25.726C187.158 23.691 188.038 22.327 189.589 22.327C191.041 22.327 191.888 23.526 191.998 25.352H194.055V21.656H194.891V31.27H194.055V26.067H191.998C191.91 27.915 191.052 29.125 189.589 29.125C188.038 29.125 187.158 27.772 187.158 25.726ZM191.184 25.737C191.184 24.153 190.535 23.053 189.589 23.053C188.632 23.053 187.994 24.153 187.994 25.737C187.994 27.299 188.632 28.399 189.589 28.399C190.535 28.399 191.184 27.299 191.184 25.737ZM206.979 25.231H204.185V26.023H208.123V26.705H199.444V26.023H203.349V25.231H200.588V21.92H201.424V22.899H206.143V21.92H206.979V25.231ZM207.364 31.127H200.566V28.96H206.165V28.157H200.511V27.475H207.001V29.576H201.402V30.434H207.364V31.127ZM206.143 24.549V23.581H201.424V24.549H206.143ZM216.593 31.281H215.757V27.794H211.852V27.09H220.531V27.794H216.593V31.281ZM220.179 25.352L219.783 26.067C218.342 25.77 216.769 24.868 216.186 23.746C215.724 24.868 214.085 25.803 212.622 26.089L212.215 25.374C214.063 25.132 215.757 23.911 215.757 22.602V21.986H216.637V22.602C216.637 23.911 218.485 25.143 220.179 25.352ZM232.113 26.826H231.277V24.637H229.66V23.944H231.277V21.656H232.113V26.826ZM233.059 30.643L232.564 31.259C231.86 30.852 231.156 30.115 230.947 29.466C230.771 30.104 230.122 30.896 229.363 31.303L228.901 30.687C229.99 30.192 230.551 29.136 230.551 28.113V27.299H231.365V28.113C231.365 29.158 232.025 30.148 233.059 30.643ZM228.67 31.138H225.392V27.409H226.184V28.608H227.878V27.409H228.67V31.138ZM227.878 30.478V29.246H226.184V30.478H227.878ZM226.811 22.129C228.164 22.129 229.275 23.009 229.275 24.373C229.275 25.748 228.164 26.606 226.811 26.606C225.469 26.606 224.336 25.748 224.336 24.384C224.336 23.031 225.458 22.129 226.811 22.129ZM226.811 22.855C225.865 22.855 225.172 23.471 225.172 24.373C225.172 25.297 225.865 25.913 226.811 25.913C227.79 25.913 228.439 25.297 228.439 24.384C228.439 23.482 227.801 22.855 226.811 22.855ZM241.883 31.27H241.058V21.656H241.883V31.27ZM240.013 30.786H239.21V26.1H237.593V25.396H239.21V21.887H240.013V30.786ZM237.835 22.778C237.769 25.638 236.515 27.75 234.249 29.213L233.677 28.597C235.69 27.464 236.878 25.44 236.977 23.482H234.051V22.778H237.835ZM254.39 31.27H253.576V26.43H252.41V30.786H251.596V21.887H252.41V25.726H253.576V21.656H254.39V31.27ZM250.881 26.463H249.066V28.201C249.737 28.168 250.584 28.102 251.178 28.014L251.244 28.685C250.507 28.784 249.561 28.894 248.703 28.938C247.658 28.993 246.8 29.015 246.151 29.015L246.019 28.3C246.668 28.3 247.383 28.278 248.252 28.245V26.463H246.514V22.646H250.837V23.339H247.339V25.759H250.881V26.463ZM263.5 24.791C263.5 26.276 262.114 27.266 260.024 27.266C257.956 27.266 256.57 26.276 256.57 24.791C256.57 23.306 257.956 22.294 260.024 22.294C262.125 22.294 263.5 23.306 263.5 24.791ZM262.697 24.791C262.697 23.713 261.641 22.987 260.024 22.987C258.429 22.987 257.373 23.713 257.373 24.791C257.373 25.869 258.429 26.595 260.024 26.595C261.63 26.595 262.697 25.869 262.697 24.791ZM264.38 30.049H255.701V29.345H257.846V27.552L258.682 27.53V29.345H261.366V27.53L262.202 27.552V29.345H264.38V30.049ZM265.263 30.313V29.334H266.22V30.313H265.263ZM24.81 48.127H18.771V44.805H24.81V48.127ZM17.473 40.086V39.382H22.72V40.086H20.531C20.531 40.328 20.531 40.504 20.542 40.614C20.619 41.846 21.763 42.902 22.863 43.265L22.401 43.936C21.477 43.562 20.498 42.693 20.102 41.824C19.838 42.726 18.716 43.76 17.682 44.2L17.198 43.551C18.408 43.089 19.629 41.879 19.673 40.603C19.673 40.504 19.684 40.328 19.684 40.086H17.473ZM23.974 47.434V45.487H19.607V47.434H23.974ZM26.262 41.824H24.799V44.299H23.963V38.656H24.799V41.12H26.262V41.824ZM34.7896 48.27H33.9536V38.656H34.7896V48.27ZM31.9626 39.679C31.9186 42.803 30.0046 45.19 27.5186 46.367L27.0346 45.707C29.4656 44.64 30.8956 42.55 31.0716 40.383H27.3866V39.679H31.9626ZM44.3072 48.27H43.4712V38.656H44.3072V48.27ZM41.4802 39.679C41.4362 42.803 39.5222 45.19 37.0362 46.367L36.5522 45.707C38.9832 44.64 40.4132 42.55 40.5892 40.383H36.9042V39.679H41.4802ZM49.1354 40.207V39.503H54.3054V40.207H52.1494C52.1494 40.647 52.1494 40.845 52.1604 40.988C52.2374 42.22 53.4254 43.32 54.5254 43.683L54.0524 44.354C53.1394 43.98 52.1164 43.067 51.7204 42.198C51.4564 43.089 50.3454 44.134 49.3114 44.585L48.8274 43.936C50.0374 43.463 51.2474 42.242 51.2914 40.977C51.3024 40.845 51.3024 40.636 51.3024 40.207H49.1354ZM56.7144 45.696H55.8784V42.033H53.9644V41.329H55.8784V38.656H56.7144V45.696ZM56.9234 47.951H50.4444V44.992H51.2804V47.247H56.9234V47.951ZM60.644 39.492C61.975 39.492 62.69 40.713 62.756 42.462H63.79V38.843H64.604V47.808H63.79V43.155H62.756C62.668 44.893 61.964 46.07 60.644 46.07C59.247 46.07 58.532 44.717 58.532 42.781C58.532 40.856 59.247 39.492 60.644 39.492ZM61.931 42.781C61.931 41.23 61.425 40.229 60.644 40.229C59.874 40.229 59.379 41.23 59.379 42.781C59.379 44.343 59.874 45.333 60.644 45.333C61.425 45.333 61.931 44.343 61.931 42.781ZM66.485 48.27H65.66V38.656H66.485V48.27ZM75.3172 41.472C75.3172 42.803 74.4592 43.782 73.1172 43.782C71.7752 43.782 70.8952 42.803 70.8952 41.472C70.8952 40.152 71.7752 39.184 73.1062 39.184C74.4482 39.184 75.3172 40.141 75.3172 41.472ZM78.8922 44.321H78.0562V41.813H76.9012V44.233H76.0982V38.832H76.9012V41.12H78.0562V38.656H78.8922V44.321ZM74.4922 41.483C74.4922 40.57 73.9972 39.899 73.1062 39.899C72.2262 39.899 71.7202 40.57 71.7202 41.472C71.7202 42.385 72.2262 43.078 73.1062 43.078C73.9972 43.078 74.4922 42.385 74.4922 41.483ZM78.8922 48.27H78.0452V45.509H72.4022V44.816H78.8922V48.27ZM85.5498 42.825V42.121H87.3208V40.812H85.5498V40.108H87.3208V38.656H88.1568V45.608H87.3208V42.825H85.5498ZM85.9128 43.606L85.4178 44.266C84.4278 43.793 83.4818 42.913 83.0748 41.934C82.7778 42.946 81.7548 44.035 80.7098 44.574L80.1928 43.925C81.4798 43.353 82.6348 42.022 82.6348 40.482V39.217H83.4818V40.449C83.4818 42.055 84.7688 43.188 85.9128 43.606ZM88.3658 47.973H81.9748V45.036H82.8108V47.28H88.3658V47.973ZM97.7953 48.182H90.8763V45.949H96.5963V45.146H90.8433V44.464H97.4323V46.576H91.7233V47.489H97.7953V48.182ZM97.6413 42.308H90.6453V41.615H92.1743L91.9323 40.207L92.8013 40.097L92.9663 41.615H95.3093L95.5073 40.075L96.3763 40.185L96.1123 41.615H97.6413V42.308ZM98.4993 43.727H89.8203V43.023H98.4993V43.727ZM97.6413 39.723H90.6343V39.03H97.6413V39.723ZM107.445 45.839H106.609V42.209H105.432V45.509H104.629V38.832H105.432V41.505H106.609V38.656H107.445V45.839ZM104.002 43.485L104.079 44.178C103.034 44.354 101.725 44.464 100.372 44.464H99.7449V41.538H102.671V40.163H99.7119V39.47H103.507V42.22H100.581V43.771C101.571 43.771 102.99 43.705 104.002 43.485ZM107.698 47.951H101.032V45.102H101.868V47.258H107.698V47.951ZM117.535 46.95H108.856V46.246H117.535V46.95ZM116.688 41.923C116.688 43.397 115.291 44.354 113.179 44.354C111.089 44.354 109.692 43.397 109.692 41.923C109.692 40.46 111.089 39.492 113.179 39.492C115.302 39.492 116.688 40.46 116.688 41.923ZM115.852 41.934C115.852 40.889 114.796 40.196 113.179 40.196C111.584 40.196 110.528 40.889 110.528 41.934C110.528 42.957 111.584 43.639 113.179 43.639C114.785 43.639 115.852 42.957 115.852 41.934ZM127.052 47.049H118.373V46.345H122.278V44.706H119.44V41.703H125.138V40.163H119.429V39.459H125.974V42.396H120.276V44.002H126.249V44.706H123.114V46.345H127.052V47.049ZM137.798 41.274H135.829V40.57H137.798V38.656H138.634V43.617H137.798V41.274ZM136.357 42.693L135.884 43.342C134.96 42.968 134.025 42.22 133.563 41.208C133.277 42.198 132.364 43.067 131.22 43.606L130.703 42.979C131.968 42.484 133.134 41.351 133.134 39.811V38.986H133.981V39.778C133.981 41.34 135.334 42.352 136.357 42.693ZM138.997 48.204H132.43V45.828H137.809V44.838H132.375V44.145H138.645V46.466H133.266V47.511H138.997V48.204ZM148.229 46.444C148.229 47.566 147.063 48.27 144.995 48.27C142.938 48.27 141.783 47.566 141.783 46.444C141.783 45.311 142.938 44.607 144.995 44.607C147.063 44.607 148.229 45.311 148.229 46.444ZM140.551 40.163V39.459H145.754V40.163H143.587C143.587 40.35 143.587 40.57 143.598 40.68C143.675 41.989 144.907 43.034 146.084 43.386L145.589 44.057C144.588 43.661 143.554 42.759 143.158 41.89C142.894 42.792 141.739 43.947 140.705 44.398L140.254 43.727C141.464 43.265 142.685 42.044 142.729 40.68C142.74 40.57 142.74 40.339 142.74 40.163H140.551ZM144.995 45.311C143.521 45.311 142.63 45.718 142.63 46.444C142.63 47.159 143.521 47.566 144.995 47.566C146.502 47.566 147.371 47.159 147.371 46.444C147.371 45.718 146.502 45.311 144.995 45.311ZM147.316 41.857H145.38V41.153H147.316V38.656H148.152V44.629H147.316V41.857ZM158.769 43.419H157.207V48.27H156.371V38.656H157.207V42.715H158.769V43.419ZM154.028 40.031H151.201V39.316H154.028V40.031ZM155.447 41.659H149.771V40.966H155.447V41.659ZM154.875 44.266C154.875 45.377 153.973 46.246 152.631 46.246C151.289 46.246 150.387 45.388 150.387 44.266C150.387 43.144 151.289 42.275 152.631 42.275C153.973 42.275 154.875 43.133 154.875 44.266ZM154.039 44.266C154.039 43.507 153.445 42.979 152.631 42.979C151.828 42.979 151.223 43.507 151.223 44.266C151.223 45.014 151.828 45.553 152.631 45.553C153.456 45.553 154.039 45.014 154.039 44.266ZM166.351 43.21H164.173V42.495H166.351V38.656H167.187V48.27H166.351V43.21ZM164.206 39.679C164.162 42.803 162.281 45.19 159.806 46.367L159.322 45.707C161.753 44.64 163.139 42.55 163.304 40.383H159.674V39.679H164.206ZM174.582 44.695L174.703 45.399C173.526 45.674 171.216 45.839 169.753 45.839H169.17V39.613H170.006V45.102C171.656 45.091 173.537 44.948 174.582 44.695ZM176.232 38.656V42.473H177.805V43.188H176.232V48.27H175.396V38.656H176.232ZM178.159 48.468L178.566 46.323H179.567L178.753 48.468H178.159ZM192.583 41.494H191.12V43.562H190.284V38.656H191.12V40.79H192.583V41.494ZM191.483 48.171H185.015V45.729H190.284V44.75H184.982V44.068H191.12V46.367H185.851V47.478H191.483V48.171ZM184.85 42.528H185.323C186.665 42.528 188.381 42.418 189.305 42.231L189.393 42.913C188.326 43.089 186.456 43.221 184.795 43.221H184.014V39.283H188.469V39.987H184.85V42.528ZM200.275 41.56H198.207V40.867H200.275V38.656H201.111V44.629H200.275V41.56ZM201.21 46.444C201.21 47.566 200.055 48.259 197.987 48.259C195.93 48.259 194.775 47.566 194.775 46.444C194.775 45.322 195.93 44.629 197.987 44.629C200.055 44.629 201.21 45.322 201.21 46.444ZM197.987 45.311C196.513 45.311 195.622 45.729 195.622 46.444C195.622 47.17 196.513 47.577 197.987 47.577C199.483 47.577 200.363 47.17 200.363 46.444C200.363 45.729 199.483 45.311 197.987 45.311ZM198.724 43.232L198.229 43.881C197.305 43.441 196.348 42.605 195.974 41.648C195.677 42.638 194.764 43.65 193.653 44.211L193.136 43.562C194.522 42.924 195.523 41.692 195.523 40.163V39.206H196.37V40.141C196.37 41.681 197.635 42.836 198.724 43.232ZM211.453 43.518H202.774V42.814H211.453V43.518ZM210.485 40.46C210.485 41.516 209.209 42.121 207.119 42.121C205.051 42.121 203.775 41.516 203.775 40.46C203.775 39.404 205.051 38.788 207.119 38.788C209.209 38.788 210.485 39.404 210.485 40.46ZM207.119 39.47C205.612 39.47 204.633 39.855 204.633 40.46C204.633 41.054 205.612 41.428 207.119 41.428C208.648 41.428 209.638 41.054 209.638 40.46C209.638 39.855 208.648 39.47 207.119 39.47ZM210.683 48.182H203.786V45.894H209.528V45.047H203.764V44.376H210.364V46.532H204.622V47.5H210.683V48.182ZM222.838 42.858H219.934V43.771H223.861V44.464H215.182V43.771H219.098V42.858H216.227V39.052H222.772V39.723H217.063V40.614H222.607V41.252H217.063V42.198H222.838V42.858ZM222.893 46.675C222.893 47.709 221.716 48.292 219.516 48.292C217.327 48.292 216.161 47.687 216.161 46.675C216.161 45.674 217.327 45.047 219.516 45.047C221.716 45.047 222.893 45.619 222.893 46.675ZM219.516 45.718C217.965 45.718 217.008 46.081 217.008 46.675C217.008 47.269 217.965 47.61 219.516 47.61C221.078 47.61 222.046 47.269 222.046 46.675C222.046 46.081 221.078 45.718 219.516 45.718ZM232.806 48.27H231.981V43.287H230.826V47.786H230.012V38.887H230.826V42.583H231.981V38.656H232.806V48.27ZM229.286 44.167C229.286 45.322 228.428 46.081 227.185 46.081C225.953 46.081 225.084 45.267 225.084 44.167C225.084 43.001 225.953 42.242 227.185 42.242C228.428 42.242 229.286 43.012 229.286 44.167ZM228.483 44.167C228.483 43.43 227.944 42.946 227.185 42.946C226.426 42.946 225.898 43.43 225.898 44.167C225.898 44.915 226.426 45.388 227.185 45.388C227.944 45.388 228.483 44.893 228.483 44.167ZM229.462 41.692H224.677V40.999H229.462V41.692ZM228.428 40.119H225.799V39.393H228.428V40.119ZM242.595 42.407C242.595 43.221 241.726 43.617 240.604 43.694V44.299C241.682 44.244 242.804 44.145 243.431 44.068L243.475 44.739C242.716 44.827 241.55 44.937 240.384 45.003C239.295 45.069 237.876 45.113 237.238 45.113L237.117 44.376C237.821 44.376 238.778 44.376 239.768 44.343V43.683C238.712 43.606 237.92 43.199 237.92 42.418C237.92 41.527 238.976 41.109 240.241 41.109C241.528 41.109 242.595 41.516 242.595 42.407ZM238.558 45.553H244.993V48.336H244.168V46.246H238.558V45.553ZM244.993 45.058H244.168V38.656H244.993V45.058ZM243.079 40.812H237.37V40.13H243.079V40.812ZM241.715 42.407C241.715 41.967 241.088 41.758 240.241 41.758C239.394 41.758 238.8 41.967 238.8 42.407C238.8 42.869 239.405 43.078 240.241 43.078C241.088 43.078 241.715 42.858 241.715 42.407ZM241.594 39.558H238.954V38.865H241.594V39.558ZM247.581 45.113H254.192V48.336H253.356V45.806H247.581V45.113ZM255.303 44.002H246.624V43.298H255.303V44.002ZM254.28 42.231H247.691V39.074H254.236V39.778H248.527V41.527H254.28V42.231ZM264.997 42.616H263.534V45.751H262.698V38.656H263.534V41.912H264.997V42.616ZM263.908 47.962H257.506V45.498H258.342V47.258H263.908V47.962ZM260.245 39.734H257.473V38.997H260.245V39.734ZM261.73 41.153H256.098V40.46H261.73V41.153ZM261.18 43.353C261.18 44.365 260.212 45.036 258.914 45.036C257.638 45.036 256.659 44.365 256.659 43.353C256.659 42.319 257.627 41.67 258.914 41.67C260.212 41.67 261.18 42.319 261.18 43.353ZM260.388 43.353C260.388 42.715 259.695 42.33 258.914 42.33C258.144 42.33 257.451 42.715 257.451 43.353C257.451 43.98 258.144 44.365 258.914 44.365C259.695 44.365 260.388 43.98 260.388 43.353ZM269.539 45.157H272.454V43.804H268.549V43.1H277.228V43.804H273.29V45.157H276.117V48.336H275.281V45.861H269.539V45.157ZM276.997 41.593L276.513 42.209C275.842 41.934 275.16 41.296 274.907 40.68C274.698 41.296 273.994 42.055 273.213 42.396L272.729 41.813C273.708 41.417 274.489 40.504 274.489 39.437V38.788H275.292V39.415C275.292 40.482 276.073 41.274 276.997 41.593ZM272.839 41.285L272.355 41.879C271.827 41.637 271.255 41.164 271.035 40.68C270.804 41.296 270.122 42.022 269.286 42.374L268.791 41.769C269.88 41.373 270.628 40.405 270.628 39.393V38.876H271.431V39.415C271.431 40.383 272.08 41.021 272.839 41.285ZM286.745 46.95H278.066V46.246H286.745V46.95ZM285.898 41.923C285.898 43.397 284.501 44.354 282.389 44.354C280.299 44.354 278.902 43.397 278.902 41.923C278.902 40.46 280.299 39.492 282.389 39.492C284.512 39.492 285.898 40.46 285.898 41.923ZM285.062 41.934C285.062 40.889 284.006 40.196 282.389 40.196C280.794 40.196 279.738 40.889 279.738 41.934C279.738 42.957 280.794 43.639 282.389 43.639C283.995 43.639 285.062 42.957 285.062 41.934ZM296.263 47.049H287.584V46.345H291.489V44.706H288.651V41.703H294.349V40.163H288.64V39.459H295.185V42.396H289.487V44.002H295.46V44.706H292.325V46.345H296.263V47.049ZM307.383 48.127H301.344V44.805H307.383V48.127ZM300.046 40.086V39.382H305.293V40.086H303.104C303.104 40.328 303.104 40.504 303.115 40.614C303.192 41.846 304.336 42.902 305.436 43.265L304.974 43.936C304.05 43.562 303.071 42.693 302.675 41.824C302.411 42.726 301.289 43.76 300.255 44.2L299.771 43.551C300.981 43.089 302.202 41.879 302.246 40.603C302.246 40.504 302.257 40.328 302.257 40.086H300.046ZM306.547 47.434V45.487H302.18V47.434H306.547ZM308.835 41.824H307.372V44.299H306.536V38.656H307.372V41.12H308.835V41.824ZM317.143 48.072H310.554V44.728H317.143V48.072ZM317.055 39.228C317.055 40.515 316.945 41.868 316.725 42.836H318.188V43.54H309.509V42.836H315.9C316.076 42.11 316.197 40.724 316.197 39.921H310.62V39.228H317.055ZM316.307 47.379V45.421H311.39V47.379H316.307ZM327.705 43.518H319.026V42.814H327.705V43.518ZM326.737 40.46C326.737 41.516 325.461 42.121 323.371 42.121C321.303 42.121 320.027 41.516 320.027 40.46C320.027 39.404 321.303 38.788 323.371 38.788C325.461 38.788 326.737 39.404 326.737 40.46ZM323.371 39.47C321.864 39.47 320.885 39.855 320.885 40.46C320.885 41.054 321.864 41.428 323.371 41.428C324.9 41.428 325.89 41.054 325.89 40.46C325.89 39.855 324.9 39.47 323.371 39.47ZM326.935 48.182H320.038V45.894H325.78V45.047H320.016V44.376H326.616V46.532H320.874V47.5H326.935V48.182ZM25.525 65.27H24.7V60.287H23.545V64.786H22.731V55.887H23.545V59.583H24.7V55.656H25.525V65.27ZM22.005 61.167C22.005 62.322 21.147 63.081 19.904 63.081C18.672 63.081 17.803 62.267 17.803 61.167C17.803 60.001 18.672 59.242 19.904 59.242C21.147 59.242 22.005 60.012 22.005 61.167ZM21.202 61.167C21.202 60.43 20.663 59.946 19.904 59.946C19.145 59.946 18.617 60.43 18.617 61.167C18.617 61.915 19.145 62.388 19.904 62.388C20.663 62.388 21.202 61.893 21.202 61.167ZM22.181 58.692H17.396V57.999H22.181V58.692ZM21.147 57.119H18.518V56.393H21.147V57.119ZM31.8416 62.388L31.3136 63.004C30.6316 62.52 29.6196 61.398 29.3446 60.386C29.1466 61.453 28.2776 62.597 27.3426 63.257L26.7816 62.674C27.9146 61.948 28.9266 60.43 28.9266 58.56V57.482H27.0126V56.789H31.5996V57.482H29.7516V58.538C29.7516 60.43 30.6536 61.618 31.8416 62.388ZM33.1396 64.786H32.3146V59.88H30.7746V59.187H32.3146V55.887H33.1396V64.786ZM35.0426 65.27H34.2176V55.656H35.0426V65.27ZM45.3082 58.901H43.8452V61.123H43.0092V55.656H43.8452V58.197H45.3082V58.901ZM44.2082 65.215H37.7952V63.07H43.0092V62.256H37.7512V61.618H43.8452V63.686H38.6312V64.566H44.2082V65.215ZM40.6112 56.525H37.8392V55.821H40.6112V56.525ZM42.0522 57.823H36.4092V57.141H42.0522V57.823ZM41.4912 59.649C41.4912 60.595 40.5452 61.112 39.2252 61.112C37.9712 61.112 36.9702 60.595 36.9702 59.649C36.9702 58.714 37.9492 58.197 39.2252 58.197C40.5122 58.197 41.4912 58.714 41.4912 59.649ZM40.6882 59.649C40.6882 59.11 39.9842 58.846 39.2252 58.846C38.4662 58.846 37.7732 59.11 37.7732 59.649C37.7732 60.188 38.4772 60.463 39.2252 60.463C39.9842 60.463 40.6882 60.188 40.6882 59.649ZM53.6014 65.281H52.7654V61.794H48.8604V61.09H57.5394V61.794H53.6014V65.281ZM57.1874 59.352L56.7914 60.067C55.3504 59.77 53.7774 58.868 53.1944 57.746C52.7324 58.868 51.0934 59.803 49.6304 60.089L49.2234 59.374C51.0714 59.132 52.7654 57.911 52.7654 56.602V55.986H53.6454V56.602C53.6454 57.911 55.4934 59.143 57.1874 59.352ZM69.1216 61.244H68.2856V55.656H69.1216V61.244ZM69.5396 65.292H69.5286C68.8686 64.973 67.9996 64.137 67.7686 63.444C67.5266 64.17 66.7236 65.039 65.9426 65.424L65.4146 64.863C66.4486 64.357 67.3396 63.312 67.3396 62.146V61.563H68.1756V62.113C68.1756 63.301 69.1326 64.357 70.0456 64.698L69.5396 65.292ZM65.9646 63.972L65.3926 64.544C64.9086 64.291 64.3916 63.796 64.1716 63.268C63.9406 63.994 63.0936 64.918 62.2686 65.314L61.7626 64.72C62.7416 64.291 63.7096 63.235 63.7096 62.069V61.596H64.5456V61.992C64.5456 63.015 65.2276 63.686 65.9646 63.972ZM63.9956 56.195C65.3596 56.195 66.4816 57.119 66.4816 58.505C66.4816 59.913 65.3596 60.793 63.9956 60.793C62.6316 60.793 61.4986 59.913 61.4986 58.516C61.4986 57.119 62.6316 56.195 63.9956 56.195ZM63.9956 56.877C63.0276 56.877 62.3126 57.559 62.3126 58.505C62.3126 59.462 63.0276 60.111 63.9956 60.111C64.9966 60.111 65.6786 59.462 65.6786 58.516C65.6786 57.559 65.0076 56.877 63.9956 56.877ZM70.9062 59.726C70.9062 57.691 71.7862 56.327 73.3372 56.327C74.7892 56.327 75.6362 57.526 75.7462 59.352H77.8032V55.656H78.6392V65.27H77.8032V60.067H75.7462C75.6582 61.915 74.8002 63.125 73.3372 63.125C71.7862 63.125 70.9062 61.772 70.9062 59.726ZM74.9322 59.737C74.9322 58.153 74.2832 57.053 73.3372 57.053C72.3802 57.053 71.7422 58.153 71.7422 59.737C71.7422 61.299 72.3802 62.399 73.3372 62.399C74.2832 62.399 74.9322 61.299 74.9322 59.737ZM88.1018 58.791C88.1018 60.276 86.7158 61.266 84.6258 61.266C82.5578 61.266 81.1718 60.276 81.1718 58.791C81.1718 57.306 82.5578 56.294 84.6258 56.294C86.7268 56.294 88.1018 57.306 88.1018 58.791ZM87.2988 58.791C87.2988 57.713 86.2428 56.987 84.6258 56.987C83.0308 56.987 81.9748 57.713 81.9748 58.791C81.9748 59.869 83.0308 60.595 84.6258 60.595C86.2318 60.595 87.2988 59.869 87.2988 58.791ZM88.9818 64.049H80.3028V63.345H82.4478V61.552L83.2838 61.53V63.345H85.9678V61.53L86.8038 61.552V63.345H88.9818V64.049ZM89.8643 64.313V63.334H90.8213V64.313H89.8643Z" fill="#C3C4CE"/>
<path d="M2.18641 13C2.359 13 2.49891 12.8601 2.49891 12.6875V9.25C2.49891 7.92392 3.02569 6.65215 3.96337 5.71447C4.90105 4.77678 6.17282 4.25 7.49891 4.25C8.82499 4.25 10.0968 4.77678 11.0344 5.71447C11.9721 6.65215 12.4989 7.92392 12.4989 9.25V12.6875C12.4989 12.8601 12.6388 13 12.8114 13V13C12.984 13 13.1239 13.1399 13.1239 13.3125V13.625C13.1239 13.9702 12.8441 14.25 12.4989 14.25H2.49891C2.15373 14.25 1.87391 13.9702 1.87391 13.625V13.3125C1.87391 13.1399 2.01382 13 2.18641 13V13ZM3.80086 8.62786C3.74359 8.96826 4.02873 9.25 4.37391 9.25V9.25C4.71908 9.25 4.99121 8.96592 5.07662 8.63147C5.18676 8.20021 5.41107 7.8023 5.73114 7.48223C6.0512 7.16217 6.44912 6.93785 6.88038 6.82772C7.21482 6.74231 7.49891 6.47018 7.49891 6.125V6.125C7.49891 5.77982 7.21716 5.49469 6.87677 5.55195C6.11299 5.68045 5.40213 6.04347 4.84726 6.59835C4.29238 7.15322 3.92935 7.86408 3.80086 8.62786ZM6.87391 2.375C6.87391 2.02982 7.15373 1.75 7.49891 1.75V1.75C7.84408 1.75 8.12391 2.02982 8.12391 2.375V3C8.12391 3.34518 7.84408 3.625 7.49891 3.625V3.625C7.15373 3.625 6.87391 3.34518 6.87391 3V2.375ZM11.9182 3.94693C12.1623 3.70286 12.558 3.70286 12.8021 3.94693V3.94693C13.0461 4.19096 13.0462 4.58659 12.8022 4.83068L12.3607 5.27238C12.1167 5.5165 11.721 5.51658 11.4768 5.2726V5.2726C11.2326 5.02855 11.2325 4.63267 11.4766 4.38853L11.9182 3.94693ZM2.19606 4.83069C1.95217 4.58658 1.95236 4.19092 2.19635 3.94693V3.94693C2.44039 3.70289 2.83613 3.70275 3.08022 3.94673L3.52191 4.38821C3.76603 4.63221 3.7659 5.02815 3.52193 5.27229V5.27229C3.27779 5.5166 2.88154 5.51682 2.63743 5.27249L2.19606 4.83069Z" fill="#FF7E55"/>
</svg>
