<svg width="48" height="49" viewBox="0 0 48 49" fill="none" xmlns="http://www.w3.org/2000/svg">
<path d="M24 22.5336C23.4696 22.5336 22.9609 22.3211 22.5858 21.9429C22.2107 21.5647 22 21.0517 22 20.5168C22 19.9819 22.2107 19.4689 22.5858 19.0907C22.9609 18.7125 23.4696 18.5 24 18.5C24.5304 18.5 25.0391 18.7125 25.4142 19.0907C25.7893 19.4689 26 19.9819 26 20.5168C26 21.0517 25.7893 21.5647 25.4142 21.9429C25.0391 22.3211 24.5304 22.5336 24 22.5336ZM24 30.5168C23.4696 30.5168 22.9609 30.3043 22.5858 29.9261C22.2107 29.5479 22 29.0349 22 28.5C22 27.9651 22.2107 27.4521 22.5858 27.0739C22.9609 26.6957 23.4696 26.4832 24 26.4832C24.5304 26.4832 25.0391 26.6957 25.4142 27.0739C25.7893 27.4521 26 27.9651 26 28.5C26 29.0349 25.7893 29.5479 25.4142 29.9261C25.0391 30.3043 24.5304 30.5168 24 30.5168Z" fill="white"/>
</svg>
