<svg width="19" height="24" viewBox="0 0 19 24" fill="none" xmlns="http://www.w3.org/2000/svg">
<mask id="mask0_6667_65582" style="mask-type:alpha" maskUnits="userSpaceOnUse" x="0" y="0" width="19" height="24">
<rect width="19" height="24" fill="#D9D9D9"/>
</mask>
<g mask="url(#mask0_6667_65582)">
<path fill-rule="evenodd" clip-rule="evenodd" d="M9.97976 13.5772C8.06231 13.6434 4.94784 12.5452 5.24596 7.52581C5.95609 7.39379 7.61237 7.40284 8.55649 8.49524C8.43183 7.77879 8.4943 5.97094 9.74144 4.47114C10.4035 4.66503 11.8132 5.54408 12.1552 7.5092C12.9079 6.4183 14.8715 4.34152 16.7041 4.76158C17.085 5.74736 17.3526 8.12782 15.375 9.76341C16.3059 9.69601 18.3427 9.84564 19.0433 10.9833C18.7444 11.6728 17.7311 13.1926 16.0696 13.7551C16.7851 14.256 18.198 15.5148 18.1255 16.5427C16.1558 17.526 11.9509 18.3241 10.4912 13.9183L12.6717 10.7117C12.7819 10.5792 12.7657 10.3823 12.6354 10.2721C12.5051 10.1618 12.3101 10.1799 12.1999 10.3124L9.97976 13.5772Z" fill="white"/>
<path fill-rule="evenodd" clip-rule="evenodd" d="M5.72043 17.9607C6.81628 17.9944 8.59327 17.3603 8.41345 14.4932C8.00742 14.4192 7.06099 14.4277 6.52356 15.0539C6.59344 14.6442 6.55433 13.6113 5.83884 12.7568C5.46087 12.8689 4.65699 13.3741 4.46533 14.4977C4.03313 13.8758 2.90713 12.6931 1.86078 12.9368C1.64494 13.5009 1.49655 14.8617 2.62967 15.7923C2.09764 15.7557 0.934032 15.8453 0.535817 16.4968C0.707942 16.8902 1.28982 17.7566 2.24035 18.0746C1.83242 18.3623 1.02742 19.0845 1.0708 19.6717C2.19828 20.2296 4.60282 20.6773 5.42848 18.1561L4.17675 16.3287C4.1135 16.2532 4.12241 16.1406 4.19664 16.0774C4.27088 16.0141 4.38232 16.024 4.44556 16.0996L5.72043 17.9607Z" fill="white"/>
</g>
</svg>
