<svg width="13" height="13" viewBox="0 0 13 13" fill="none" xmlns="http://www.w3.org/2000/svg">
<circle cx="6.5" cy="6.5" r="6.5" fill="#FF7E55"/>
<path d="M6.50787 7.96462C6.25518 7.96462 6.04831 7.76367 6.04098 7.51109L5.92587 3.54583C5.91646 3.22184 6.17655 2.9541 6.50067 2.9541V2.9541C6.82398 2.9541 7.08374 3.22055 7.07553 3.54375L6.9748 7.5094C6.96837 7.76266 6.76121 7.96462 6.50787 7.96462V7.96462ZM6.50869 10.045C6.20745 10.045 5.96324 9.8008 5.96324 9.49956V9.44771C5.96324 9.14647 6.20745 8.90226 6.50869 8.90226V8.90226C6.80994 8.90226 7.05415 9.14647 7.05415 9.44771V9.49956C7.05415 9.8008 6.80994 10.045 6.50869 10.045V10.045Z" fill="#FAFAFA"/>
</svg>
