<svg width="22" height="22" viewBox="0 0 22 22" fill="none" xmlns="http://www.w3.org/2000/svg">
<circle cx="11.0703" cy="11.0703" r="8.07032" fill="#59D7A0"/>
<path fill-rule="evenodd" clip-rule="evenodd" d="M10.5032 6.65134C10.5032 6.37724 10.7254 6.15504 10.9995 6.15504C11.2736 6.15504 11.4958 6.37724 11.4958 6.65134L11.4958 10.5037L15.3482 10.5037C15.6223 10.5037 15.8445 10.7259 15.8445 11C15.8445 11.2741 15.6223 11.4963 15.3482 11.4963L11.4958 11.4963L11.4958 15.3487C11.4958 15.6228 11.2736 15.8451 10.9995 15.8451C10.7254 15.8451 10.5032 15.6228 10.5032 15.3487L10.5032 11.4963L6.65081 11.4963C6.37671 11.4963 6.15451 11.2741 6.15451 11C6.15451 10.7259 6.37671 10.5037 6.65081 10.5037H10.5032L10.5032 6.65134Z" fill="#23B877"/>
</svg>
